<svg width="242" height="87" viewBox="0 0 242 87" fill="none" xmlns="http://www.w3.org/2000/svg">
<g id="logo" clip-path="url(#clip0_7021_4364)">
<path id="Vector" d="M27.0826 54.2662V34.0146C27.0826 23.5262 22.2756 18.5721 13.24 18.5721H0.240845V69.7087H13.24C22.2756 69.7087 27.0826 64.7546 27.0826 54.2662ZM8.99934 62.4829V25.7979H12.0353C16.6977 25.7979 18.3241 27.5621 18.3241 32.9512V55.3296C18.3241 60.7188 16.6977 62.4829 12.0353 62.4829H8.99934Z" fill="#211650"/>
<path id="Vector_2" d="M50.3823 58.3746L51.9364 69.7087H60.4058L51.0088 18.5721H40.1299L30.7329 69.7087H39.2023L40.7564 58.3746H50.3582H50.3823ZM45.5151 28.7704H45.6597L49.1173 50.7258H42.0575L45.5151 28.7704Z" fill="#211650"/>
<path id="Vector_3" d="M87.6091 62.06H73.8389V18.5721H65.0804V69.7087H87.6091V62.06Z" fill="#211650"/>
<path id="Vector_4" d="M114.366 62.06H100.596V18.5721H91.8377V69.7087H114.366V62.06Z" fill="#211650"/>
<path id="Vector_5" d="M146.714 69.7087L137.317 18.5721H126.438L117.041 69.7087H125.51L127.064 58.3746H136.666L138.22 69.7087H146.69H146.714ZM128.354 50.7258L131.811 28.7704H131.956L135.413 50.7258H128.354Z" fill="#211650"/>
<path id="Vector_6" d="M158.014 30.5467C158.014 27.3567 159.568 25.52 162.388 25.52C164.363 25.52 166.701 26.7888 167.05 31.1871L175.387 30.2688C174.616 23.0429 170.375 17.8713 163.243 17.8713C154.629 17.8713 149.678 22.475 149.678 30.6192C149.678 45.2763 167.472 47.9708 167.472 58.0967C167.472 61.1417 165.424 62.7729 162.388 62.7729C159.556 62.7729 157.52 60.2233 157.159 55.0517L148.822 56.26C149.172 63.9088 153.834 70.4217 161.954 70.4217C170.074 70.4217 175.796 65.7454 175.796 57.3233C175.796 43.4396 158.002 39.2588 158.002 30.5467" fill="#211650"/>
<path id="Vector_7" d="M1.92759 75.6054H0V86.8429H1.92759V75.6054Z" fill="#211650"/>
<path id="Vector_8" d="M8.08392 82.0337H8.05982L5.71057 75.6054H3.92755V86.8429H5.66238V79.8225H5.69853L8.1562 86.8429H9.8308V75.6054H8.08392V82.0337Z" fill="#211650"/>
<path id="Vector_9" d="M14.4207 75.6054H11.5654V86.855H14.4207C16.4085 86.855 17.4687 85.7675 17.4687 83.4596V79.0008C17.4687 76.6929 16.4085 75.6054 14.4207 75.6054ZM15.5411 83.6892C15.5411 84.8733 15.1797 85.26 14.1556 85.26H13.493V77.1883H14.1556C15.1797 77.1883 15.5411 77.575 15.5411 78.7592V83.6771V83.6892Z" fill="#211650"/>
<path id="Vector_10" d="M21.1312 81.8646H23.613V80.185H21.1312V77.285H24.3599V75.6054H19.2036V86.8429H24.5768V85.1633H21.1312V81.8646Z" fill="#211650"/>
<path id="Vector_11" d="M28.7332 75.6054H25.9743V86.855H27.9019V82.2512H28.7452C31.1186 82.2512 32.2269 81.3329 32.2269 78.9283C32.2269 76.5237 31.1186 75.6175 28.7452 75.6175M28.6488 80.6683H27.9019V77.2125H28.6488C29.9018 77.2125 30.2993 77.5992 30.2993 78.9404C30.2993 80.2817 29.9138 80.6683 28.6488 80.6683Z" fill="#211650"/>
<path id="Vector_12" d="M35.528 81.8646H38.0219V80.185H35.528V77.285H38.7567V75.6054H33.6125V86.8429H38.9736V85.1633H35.528V81.8646Z" fill="#211650"/>
<path id="Vector_13" d="M44.5394 82.0337H44.5032L42.166 75.6054H40.371V86.8429H42.1179V79.8225H42.1419L44.5996 86.8429H46.2742V75.6054H44.5394V82.0337Z" fill="#211650"/>
<path id="Vector_14" d="M50.8644 75.6054H48.0092V86.855H50.8644C52.8522 86.855 53.9124 85.7675 53.9124 83.4596V79.0008C53.9124 76.6929 52.8522 75.6054 50.8644 75.6054ZM51.9848 83.6892C51.9848 84.8733 51.6234 85.26 50.5994 85.26H49.9367V77.1883H50.5994C51.6234 77.1883 51.9848 77.575 51.9848 78.7592V83.6771V83.6892Z" fill="#211650"/>
<path id="Vector_15" d="M57.5746 81.8646H60.0564V80.185H57.5746V77.285H60.8033V75.6054H55.647V86.8429H61.0202V85.1633H57.5746V81.8646Z" fill="#211650"/>
<path id="Vector_16" d="M66.5741 82.0337H66.55L64.2007 75.6054H62.4177V86.8429H64.1526V79.8225H64.1887L66.6464 86.8429H68.321V75.6054H66.5741V82.0337Z" fill="#211650"/>
<path id="Vector_17" d="M69.309 77.285H71.1764V86.8429H73.104V77.285H74.9593V75.6054H69.309V77.285Z" fill="#211650"/>
<path id="Vector_18" d="M80.8143 78.2396C80.8143 77.5388 81.1516 77.14 81.7781 77.14C82.2118 77.14 82.7298 77.4179 82.8021 78.3846L84.6333 78.1792C84.4647 76.5963 83.525 75.4483 81.9588 75.4483C80.0673 75.4483 78.9831 76.4633 78.9831 78.2517C78.9831 81.4779 82.8985 82.07 82.8985 84.2933C82.8985 84.9579 82.4527 85.3204 81.7781 85.3204C81.1516 85.3204 80.7059 84.7646 80.6336 83.6288L78.8024 83.8946C78.8867 85.5742 79.8987 87.0121 81.6937 87.0121C83.4888 87.0121 84.7417 85.985 84.7417 84.1242C84.7417 81.0671 80.8263 80.1608 80.8263 78.2396" fill="#211650"/>
<path id="Vector_19" d="M89.0066 75.4483C86.9826 75.4483 86.055 76.7413 86.055 78.3242V84.1242C86.055 85.7071 86.9826 87 89.0066 87C91.0306 87 91.8619 85.7071 91.8619 84.1242V82.8313H89.9343V84.1846C89.9343 84.9217 89.7054 85.3204 89.0066 85.3204C88.2356 85.3204 87.9826 84.9217 87.9826 84.0758V78.3725C87.9826 77.5267 88.2356 77.1279 89.0066 77.1279C89.5006 77.1279 89.9343 77.5267 89.9343 78.4813V79.3513H91.8619V78.5296C91.8619 76.85 90.9342 75.4483 89.0066 75.4483Z" fill="#211650"/>
<path id="Vector_20" d="M97.6685 80.185H95.6205V75.6054H93.6929V86.8429H95.6205V81.8646H97.6685V86.8429H99.5961V75.6054H97.6685V80.185Z" fill="#211650"/>
<path id="Vector_21" d="M104.283 75.4483C102.259 75.4483 101.331 76.7413 101.331 78.3242V84.1121C101.331 85.7071 102.259 86.9879 104.283 86.9879C106.307 86.9879 107.234 85.695 107.234 84.1121V78.3242C107.234 76.7413 106.307 75.4483 104.283 75.4483ZM105.307 84.0758C105.307 84.9217 105.054 85.3204 104.283 85.3204C103.512 85.3204 103.259 84.9217 103.259 84.0758V78.3725C103.259 77.5267 103.512 77.1279 104.283 77.1279C105.054 77.1279 105.307 77.5267 105.307 78.3725V84.0758Z" fill="#211650"/>
<path id="Vector_22" d="M111.921 75.4483C109.897 75.4483 108.969 76.7413 108.969 78.3242V84.1121C108.969 85.7071 109.897 86.9879 111.921 86.9879C113.945 86.9879 114.872 85.695 114.872 84.1121V78.3242C114.872 76.7413 113.945 75.4483 111.921 75.4483ZM112.945 84.0758C112.945 84.9217 112.692 85.3204 111.921 85.3204C111.15 85.3204 110.897 84.9217 110.897 84.0758V78.3725C110.897 77.5267 111.15 77.1279 111.921 77.1279C112.692 77.1279 112.945 77.5267 112.945 78.3725V84.0758Z" fill="#211650"/>
<path id="Vector_23" d="M118.438 75.6054H116.511V86.8429H121.462V85.1633H118.438V75.6054Z" fill="#211650"/>
<path id="Vector_24" d="M128.703 75.6054H125.848V86.855H128.703C130.691 86.855 131.751 85.7675 131.751 83.4596V79.0008C131.751 76.6929 130.691 75.6054 128.703 75.6054ZM129.823 83.6892C129.823 84.8733 129.462 85.26 128.438 85.26H127.775V77.1883H128.438C129.462 77.1883 129.823 77.575 129.823 78.7592V83.6771V83.6892Z" fill="#211650"/>
<path id="Vector_25" d="M135.666 75.6054H133.739V86.8429H135.666V75.6054Z" fill="#211650"/>
<path id="Vector_26" d="M139.196 78.2396C139.196 77.5388 139.533 77.14 140.16 77.14C140.594 77.14 141.112 77.4179 141.184 78.3846L143.015 78.1792C142.846 76.5963 141.907 75.4483 140.341 75.4483C138.449 75.4483 137.365 76.4633 137.365 78.2517C137.365 81.4779 141.28 82.07 141.28 84.2933C141.28 84.9579 140.835 85.3204 140.16 85.3204C139.533 85.3204 139.088 84.7646 139.015 83.6288L137.184 83.8946C137.256 85.5742 138.293 87.0121 140.076 87.0121C141.859 87.0121 143.124 85.985 143.124 84.1242C143.124 81.0671 139.208 80.1608 139.208 78.2396" fill="#211650"/>
<path id="Vector_27" d="M143.69 77.285H145.557V86.8429H147.485V77.285H149.34V75.6054H143.69V77.285Z" fill="#211650"/>
<path id="Vector_28" d="M156.316 78.9162C156.316 76.5237 155.207 75.6054 153.051 75.6054H150.352V86.855H152.28V82.2512C152.617 82.2512 153.027 82.2392 153.28 82.2029L154.641 86.855H156.593L154.966 81.7679C155.617 81.4779 156.316 80.7408 156.316 78.9283M152.966 80.6562H152.28V77.2004H152.966C154.002 77.2004 154.4 77.5871 154.4 78.9283C154.4 80.2696 154.014 80.6562 152.966 80.6562Z" fill="#211650"/>
<path id="Vector_29" d="M160.183 75.6054H158.255V86.8429H160.183V75.6054Z" fill="#211650"/>
<path id="Vector_30" d="M165.134 75.4483C163.11 75.4483 162.183 76.7413 162.183 78.3242V84.1242C162.183 85.7071 163.11 87 165.134 87C167.158 87 167.99 85.7071 167.99 84.1242V82.8313H166.062V84.1846C166.062 84.9217 165.833 85.3204 165.134 85.3204C164.363 85.3204 164.11 84.9217 164.11 84.0758V78.3725C164.11 77.5267 164.363 77.1279 165.134 77.1279C165.628 77.1279 166.062 77.5267 166.062 78.4813V79.3513H167.99V78.5296C167.99 76.85 167.062 75.4483 165.134 75.4483Z" fill="#211650"/>
<path id="Vector_31" d="M169.074 77.285H170.941V86.8429H172.857V77.285H174.724V75.6054H169.074V77.285Z" fill="#211650"/>
<path id="Vector_32" d="M215.191 46.7021L241.792 39.4762H216.3L228.492 31.6946L212.975 35.0296L227.383 19.4662L212.421 25.5804L218.517 15.0196L206.879 21.6896L215.746 3.34705L199.12 18.3546L202.445 4.45872L193.024 12.2404L194.133 0.0120544L185.266 10.0171L183.603 4.45872L178.748 11.2979C178.748 11.2979 178.808 11.3221 178.832 11.3341C179.688 11.2375 186.253 12.5546 190.651 19.2487C195.397 26.4625 191.723 30.1358 197.409 32.0812C198.807 32.5646 202.397 33.3258 203.349 33.8937C204.831 34.7758 204.542 36.4312 203.469 37.7362C202.71 38.6666 202.192 39.7421 203.433 40.9021C204.915 42.2554 204.24 43.2825 204.264 44.1404C204.289 44.7808 205.288 44.6721 205.433 46.3637C205.529 47.5721 204.072 49.2275 205.264 50.8466C206.035 51.8979 207.276 54.2058 206.192 56.4171C205.132 58.5558 201.891 59.5346 199.879 60.0541C197.879 60.5858 188.29 64.1625 187.916 70.2041L187.639 78.1429L194.108 69.4912L199.65 77.8287L201.867 71.1587L209.626 79.4962L206.3 65.0446L216.83 71.7146L211.842 60.5979L230.13 67.2679L216.83 53.3721L231.793 52.8162L215.167 46.7021H215.191Z" fill="#211650"/>
</g>
<defs>
<clipPath id="clip0_7021_4364">
<rect width="241.792" height="87" fill="white"/>
</clipPath>
</defs>
</svg>
