<svg width="167" height="88" viewBox="0 0 167 88" fill="none" xmlns="http://www.w3.org/2000/svg">
<g clip-path="url(#clip0_4877_4779)">
<path d="M32.1052 32.6365L11.9058 20.8521L32.124 28.38L58.6657 15.7443C48.8146 10.2539 53.4493 12.3678 40.5209 6.14085C27.1515 -0.306111 19.6835 0.573889 19.6835 0.573889C19.6835 0.573889 25.7255 -2.3435 44.7616 4.98345C66.5841 13.3817 66.2464 17.0548 66.2464 17.0548L32.1052 32.6365Z" fill="#0D93D1"/>
<path d="M46.6567 26.4287L48.5988 25.013L48.5707 33.8896C48.5707 33.8896 40.4083 33.8513 32.4993 45.5496C21.1001 31.7183 12.328 33.7461 12.328 33.7461C12.328 33.7461 20.9219 29.1739 32.5181 41.2835C38.5882 33.067 46.835 32.4643 46.835 32.4643L46.6661 26.4287H46.6567Z" fill="#0D93D1"/>
<path d="M34.5633 11.7844C34.5633 10.7991 33.3249 10.0052 31.7863 9.99566C30.2476 9.99566 28.9904 10.78 28.9904 11.7557C28.9904 12.7409 30.2288 13.5348 31.7675 13.5444C33.3061 13.5444 34.554 12.7504 34.5633 11.7748" fill="#0D93D1"/>
<path d="M5.27269 27.8348L4.2219 16.8444C11.3898 11.2104 18.2292 9.19218 31.7675 10.8757V11.7844C19.0549 12.5209 13.5945 12.5974 6.65185 17.2078L5.26331 27.8444L5.27269 27.8348Z" fill="#0D93D1"/>
<path d="M6.00449 32.3304C5.526 32.6461 4.31572 31.6896 4.12808 32.7417C4.02488 33.3444 4.77544 33.7174 5.83561 33.4878C6.85825 33.2583 8.04038 32.0913 7.58067 30.3983C7.22415 29.0878 5.82623 28.1791 3.98735 29.1739C2.78646 29.8244 1.01326 32.9139 2.7114 35.3913C3.97797 37.2565 6.19213 36.7687 7.03651 35.707C8.25617 34.1765 8.05915 32.7226 8.05915 32.7226C8.05915 32.7226 7.37426 34.7504 6.02325 35.2957C5.32898 35.5826 4.06241 35.2478 3.49011 34.0426C3.04915 33.1244 3.39629 31.5652 4.1187 30.9626C4.72853 30.4461 5.17887 30.3504 5.67612 30.5417C6.03263 30.6757 7.07404 31.5748 5.98572 32.3113" fill="#0D93D1"/>
<path d="M4.25944 37.687C4.25944 37.687 -0.234544 56.6165 0.00938834 62.4035C0.318995 69.8835 3.92169 74.4557 4.6441 74.207C5.3759 73.9583 2.20478 70.6104 1.66062 64.2974C1.01326 56.7791 5.62921 38.0217 4.25944 37.6774" fill="#0D93D1"/>
<path d="M4.1187 41.8287C4.1187 41.8287 1.32286 56.8652 2.39241 62.5661C3.77157 69.9218 7.86212 75.307 8.54701 74.9531C9.2319 74.5991 5.88252 70.3139 4.30634 64.1922C2.83336 58.5009 5.526 41.9626 4.12808 41.8287" fill="#80B9E3"/>
<path d="M4.2782 37.8591C4.2782 37.8591 2.66449 55.3443 5.47909 62.3365C7.93718 68.4296 10.0575 70.9452 10.3014 70.333C10.536 69.7304 8.92229 66.3826 7.62758 63.6087C4.40955 56.7122 5.67612 37.7443 4.26881 37.8591" fill="#ABCEEB"/>
<path d="M4.23129 37.6774C4.23129 37.6774 4.91617 51.2122 6.39853 56.8078C7.71201 61.7722 10.3296 64.9957 10.6486 64.3548C10.8456 63.9817 9.35386 60.9687 8.35937 58.6061C6.08892 53.2017 5.62921 37.6583 4.2219 37.6678" fill="#CCDFF1"/>
<path d="M18.7922 60.433C18.7922 63.1304 19.1299 63.7617 21.4097 63.7617V64.5652H14.195V63.7617C16.0995 63.7617 16.4373 63.14 16.4279 60.433V50.9157C16.4373 48.2374 16.1089 47.587 14.2044 47.587V46.7835H26.7856L28.3524 50.9922L27.7801 51.3843C25.6786 48.4957 24.7779 47.5965 21.0626 47.587C18.8954 47.587 18.7922 48.4861 18.7922 50.8678V54.9904H19.7679C22.0102 54.9904 23.5301 54.5791 23.7083 51.9583H24.3745V58.9313H23.6802C23.699 55.8226 21.6537 55.6791 19.7773 55.7939H18.7922V60.433Z" fill="#6E7174"/>
<path d="M31.2515 61.2461C31.2515 63.5226 31.2515 63.6757 32.8464 63.867V64.5652H27.5831V63.8574C29.1593 63.6661 29.1593 63.5226 29.1593 61.2365V56.0139C29.0842 54.7226 29.0655 54.2635 27.6113 54.2635V53.68L31.2609 52.2548V55.1243C32.1709 53.9861 33.597 52.2548 35.1732 52.2548C35.9613 52.2548 36.6461 52.8191 36.6461 53.6704C36.6461 54.4165 36.1489 55.0287 35.3608 55.0287C34.5258 55.0287 34.2162 54.3974 33.4563 54.3974C32.6213 54.3974 31.6737 55.5165 31.2609 56.1957V61.2557L31.2515 61.2461Z" fill="#6E7174"/>
<path d="M39.1605 57.8887C39.1605 60.2704 39.8454 63.7904 42.8289 63.8C44.4238 63.8 45.803 62.9009 46.7318 61.5904L47.1352 61.9731C46.1407 63.647 44.4613 64.8426 42.5099 64.8426C39.1793 64.8426 36.7493 62.0687 36.7493 58.74C36.7493 55.6313 38.879 52.427 42.2097 52.4174C45.1838 52.4174 47.2384 55.0191 47.229 57.8887H39.1511H39.1605ZM44.8272 56.9609C44.9774 55.287 44.2549 53.2209 42.1815 53.2209C40.155 53.2209 39.32 55.3061 39.2731 56.9609H44.8272Z" fill="#6E7174"/>
<path d="M57.5774 56.2243L57.0145 56.54C55.8511 55.0096 54.4157 53.2304 52.483 53.2304C51.5541 53.2304 50.5972 53.8809 50.5972 54.8852C50.5972 57.8409 58.084 56.7313 58.084 61.1791C58.084 63.2739 56.1044 64.8426 54.1905 64.8426C53.5994 64.8426 53.1679 64.6704 52.6237 64.5078C52.3329 64.4122 52.0514 64.2878 51.7418 64.2878C51.2445 64.2878 50.7661 64.5078 50.3626 64.8426L48.8897 60.7104L49.415 60.4426C50.3251 61.973 52.558 64.0391 54.35 64.0391C55.4477 64.0391 56.4516 63.1878 56.4516 62.0496C56.4516 58.9217 49.0398 60.2704 49.0398 55.88C49.0398 53.8139 50.8974 52.427 52.7832 52.4365C53.6463 52.4365 54.472 52.8287 55.1381 52.8287C55.5884 52.8287 55.9262 52.6087 56.2076 52.2739L57.5868 56.2339L57.5774 56.2243Z" fill="#6E7174"/>
<path d="M62.8219 61.2557C62.8219 63.5417 62.822 63.6852 64.4169 63.8765V64.5843H59.0973V63.8765C60.7204 63.6756 60.7204 63.5322 60.7204 61.2557V56.033C60.6547 54.7513 60.6266 54.2922 59.1723 54.2922V53.7087L62.8219 52.2739V54.34C63.732 53.3452 65.2237 52.4461 66.5654 52.4461C67.4004 52.4461 68.2354 52.7904 68.8264 53.4026C69.6145 54.3017 69.6333 55.4113 69.6333 56.5591V61.2748C69.6333 63.5513 69.6333 63.7043 71.2282 63.8957V64.6035H65.8899V63.9052C67.5317 63.7043 67.5317 63.5704 67.5317 61.2843V57.0278C67.5317 55.5739 67.4473 53.7565 65.5615 53.747C64.5201 53.747 63.535 54.6174 62.8219 55.3443V61.2748V61.2557Z" fill="#6E7174"/>
<path d="M72.6355 58.8548C72.6355 55.6983 74.6902 52.4461 78.049 52.4461C81.3608 52.4461 83.3404 55.7461 83.331 58.8357C83.331 61.9443 81.0606 64.8617 77.8988 64.8617C74.8497 64.8617 72.6355 61.8487 72.6355 58.8643M80.9292 58.3861C80.9292 56.607 80.3851 53.2591 78.049 53.2496C75.6472 53.2496 75.0467 56.4539 75.0467 58.3287C75.0467 60.06 75.5909 64.0583 77.9082 64.0678C80.3851 64.0678 80.9386 60.2513 80.9386 58.3957" fill="#6E7174"/>
<path d="M105.707 50.9539C105.707 48.2852 105.398 47.6252 103.568 47.6252V46.8217H109.019V47.6252C107.114 47.6252 106.805 48.2757 106.805 50.9443V58.453C106.805 62.7478 104.863 64.8617 100.631 64.8617C97.01 64.8617 94.5988 62.9104 94.5988 59.1417V50.9348C94.5988 48.2565 94.2986 47.6061 92.5066 47.6061V46.8026H99.2523V47.6061C97.2821 47.6061 96.9631 48.2661 96.9631 50.9348V57.7548C96.9631 60.9591 97.5823 63.8861 101.326 63.8574C105.276 63.8861 105.707 60.8539 105.707 57.573V50.9348V50.9539Z" fill="#6E7174"/>
<path d="M112.068 61.2843C112.068 63.5704 112.068 63.7139 113.663 63.9052V64.613H108.353V63.9052C109.976 63.7139 109.976 63.5704 109.976 61.2843V56.0617C109.91 54.7704 109.891 54.3113 108.437 54.3113V53.7278L112.087 52.293V54.3496C112.988 53.3643 114.498 52.4556 115.821 52.4556C116.656 52.4556 117.491 52.8 118.082 53.4026C118.87 54.3017 118.898 55.4209 118.889 56.5687V61.2748C118.889 63.5609 118.889 63.7043 120.474 63.8957V64.6035H115.136V63.8957C116.778 63.7043 116.778 63.5609 116.778 61.2748V57.0278C116.778 55.5739 116.684 53.747 114.808 53.747C113.757 53.747 112.781 54.6174 112.068 55.3539V61.2843Z" fill="#6E7174"/>
<path d="M125.24 61.2843C125.24 63.58 125.24 63.7139 126.864 63.9148V64.6226H121.525V63.8861C123.148 63.6948 123.148 63.5322 123.148 61.2652V56.0617C123.073 54.7704 123.054 54.3209 121.6 54.3113V53.7278L125.25 52.293V61.2748L125.24 61.2843ZM123.88 49.7965C122.998 49.7965 122.276 49.0887 122.285 48.1896C122.285 47.2904 122.979 46.5635 123.861 46.5635C124.743 46.5635 125.456 47.2904 125.456 48.1896C125.456 49.06 124.743 49.7965 123.88 49.7965Z" fill="#6E7174"/>
<path d="M135.758 52.7426C136.752 52.7426 137.831 52.7617 138.854 52.3504V61.2939C138.854 63.58 138.854 63.7235 140.543 63.9148V64.613H135.157V63.9052C136.752 63.7139 136.752 63.5704 136.752 61.2843V55.813C136.752 53.747 136.78 53.5365 134.707 53.527H131.845V61.2748C131.845 63.5609 131.845 63.8957 133.459 63.8957H133.769V64.6035H127.483V63.8957C129.434 63.8957 129.772 63.8765 129.744 61.8583V53.527H127.539V52.7235H129.753V51.4417C129.753 48.3809 131.264 46.5635 134.425 46.5635C135.758 46.5635 138.929 46.9748 138.929 48.8974C138.929 49.6243 138.375 50.1313 137.662 50.1313C137.071 50.1313 136.565 49.6913 136.565 49.06C136.565 48.7157 136.733 48.4478 136.733 48.2087C136.733 47.5774 135.157 47.3574 134.707 47.3574C132.033 47.3574 131.845 49.1557 131.845 51.3174V52.733H135.758V52.7426Z" fill="#6E7174"/>
<path d="M143.451 57.9461C143.451 60.3278 144.136 63.8574 147.11 63.8574C148.705 63.8574 150.084 62.9583 151.022 61.6478L151.426 62.04C150.422 63.7139 148.752 64.9096 146.8 64.9096C143.46 64.9096 141.03 62.1357 141.03 58.807C141.03 55.6983 143.151 52.4939 146.491 52.4939C149.465 52.4939 151.519 55.0957 151.519 57.9652H143.442L143.451 57.9461ZM149.118 57.0183C149.268 55.3444 148.555 53.2783 146.472 53.2783C144.445 53.2783 143.61 55.3635 143.564 57.0183H149.108H149.118Z" fill="#6E7174"/>
<path d="M161.052 50.227C161.052 48.113 160.723 48.2183 159.034 48.0939V47.3861L163.153 46.0087V61.313C163.153 63.5991 163.153 63.7426 164.767 63.9339V64.6322H161.052V63.2452C160.17 64.1444 159.025 64.9 157.787 64.9C154.597 64.9 153.171 61.5426 153.171 58.7496C153.171 54.0148 155.938 52.4844 157.627 52.4844C158.988 52.4844 160.076 53.2209 161.061 54.0626V50.227H161.052ZM161.052 55.0574C160.404 54.3496 159.382 53.527 158.406 53.527C156.07 53.527 155.422 56.8748 155.422 58.6922C155.422 60.5096 156.013 63.8478 158.397 63.8478C159.382 63.8478 160.395 63.0443 161.042 62.3365V55.0478L161.052 55.0574Z" fill="#6E7174"/>
<path d="M25.5003 73.7574L24.806 74.1017C23.6427 72.1791 21.8319 70.0461 19.4489 70.0461C17.6663 70.0461 16.2778 71.4522 16.2778 73.2791C16.2778 75.393 18.4732 76.2443 20.1338 76.7513C23.136 77.7078 26.2133 78.5304 26.2133 82.3948C26.2133 85.5035 23.8303 87.56 20.875 87.56C19.3739 87.56 18.0885 86.8522 17.1316 86.8522C16.6062 86.8522 16.0339 87.1965 15.6773 87.56L13.9417 82.8156L14.6547 82.4809C16.1089 84.4513 18.248 86.7565 20.7249 86.7565C22.5637 86.7565 24.2525 85.4939 24.2525 83.4756C24.2525 77.8417 14.514 80.7017 14.514 74.1878C14.514 71.1269 16.6155 69.233 19.5615 69.233C20.3214 69.233 20.753 69.3861 21.466 69.6539C22.0102 69.8261 22.226 69.9409 22.7514 69.9409C23.1548 69.9409 23.6333 69.8261 23.9147 69.4817L25.4815 73.7574H25.5003Z" fill="#6E7174"/>
<path d="M38.363 84.4035C37.2184 86.173 35.5015 87.56 33.3343 87.56C30.2195 87.56 28.0053 84.6617 28.0053 81.6487C28.0053 78.0522 30.4165 75.1443 34.0848 75.1443C35.4452 75.1443 37.9878 75.9956 37.9878 77.6983C37.9878 78.3965 37.3873 78.913 36.7024 78.913C34.9386 78.913 35.6329 75.9478 33.3437 75.9478C30.895 75.9478 30.4165 79.2478 30.4071 81.1226C30.4071 83.4278 31.6643 86.2687 34.31 86.2687C35.9237 86.2687 36.9745 85.2069 38.0065 84.0687L38.363 84.413V84.4035Z" fill="#6E7174"/>
<path d="M43.0071 83.9635C43.0071 86.2496 43.0071 86.393 44.6302 86.5939V87.3017H39.32V86.6035C40.915 86.4026 40.915 86.2591 40.915 83.973V72.8965C40.915 70.7826 40.5866 70.8783 38.8978 70.7635V70.0556L43.0165 68.6783V77.0574C44.0861 76.0626 45.7748 75.1635 47.229 75.1635C49.734 75.1635 50.2313 77.0096 50.2313 79.5348V83.9826C50.2313 86.2687 50.2313 86.4122 51.8168 86.613V87.3113H46.5254V86.6035C48.1203 86.4122 48.1203 86.2591 48.1203 83.9826V79.5348C48.1203 77.8322 47.792 76.4452 46.197 76.4452C44.9586 76.4452 43.8609 77.2965 43.0071 78.0809V83.973V83.9635Z" fill="#6E7174"/>
<path d="M52.2297 81.5722C52.2297 78.4157 54.2749 75.1539 57.6431 75.1635C60.9549 75.1635 62.9345 78.4731 62.9345 81.5531C62.9345 84.6618 60.6641 87.5791 57.5023 87.5791C54.4532 87.5791 52.239 84.5661 52.239 81.5817M60.5327 81.1035C60.5327 79.3244 59.9886 75.9765 57.6431 75.9765C55.2413 75.9765 54.6408 79.1809 54.6408 81.0461C54.6408 82.7678 55.185 86.7852 57.493 86.7852C59.9698 86.7852 60.5327 82.9687 60.5327 81.1035Z" fill="#6E7174"/>
<path d="M64.7828 81.5722C64.7828 78.4157 66.8375 75.1635 70.1962 75.1635C73.5081 75.1635 75.4783 78.473 75.4783 81.553C75.4783 84.633 73.2172 87.5791 70.0461 87.5791C66.875 87.5791 64.7828 84.5661 64.7828 81.5722ZM73.0765 81.0939C73.0765 79.3243 72.5323 75.967 70.1962 75.967C67.7944 75.967 67.194 79.1713 67.194 81.0365C67.194 82.7678 67.7475 86.7661 70.0555 86.7661C72.5323 86.7661 73.0859 82.9591 73.0859 81.0939" fill="#6E7174"/>
<path d="M78.246 72.9061C78.246 70.7922 77.9176 70.8878 76.2195 70.7635V70.0652L80.3475 68.6783V83.9826C80.3475 86.2591 80.3382 86.4122 81.98 86.6035V87.3113H76.6417V86.6035C78.2366 86.4122 78.2366 86.2591 78.2366 83.9826V72.9061H78.246Z" fill="#6E7174"/>
<path d="M88.3785 87.3209V86.5174C90.2737 86.5174 90.6115 85.8861 90.6208 83.1887V73.6713C90.6208 71.0026 90.2925 70.3426 88.3879 70.3426V69.5487H94.9178C96.9162 69.5487 98.9896 69.6731 101.232 71.3087C103.465 72.9348 104.422 75.4409 104.422 78.1765C104.422 84.107 100.491 87.34 94.9084 87.3305H88.3785V87.3209ZM92.9757 83.2174C92.957 85.8096 93.3322 86.5174 95.2837 86.5174C100.097 86.5174 101.673 82.6148 101.673 78.2626C101.673 73.8435 100.153 70.3522 95.2931 70.3426C93.2384 70.3426 92.957 70.8783 92.9757 73.4226V83.2174Z" fill="#6E7174"/>
<path d="M109.938 83.9922C109.938 86.2782 109.938 86.4217 111.562 86.6226V87.3304H106.223V86.6035C107.846 86.4122 107.846 86.24 107.846 83.9826V78.7791C107.781 77.4974 107.752 77.0382 106.298 77.0382V76.4548L109.938 75.02V84.0017V83.9922ZM108.578 72.5043C107.696 72.5043 106.983 71.7965 106.983 70.8974C106.983 69.9982 107.677 69.2713 108.559 69.2713C109.441 69.2713 110.154 69.9982 110.154 70.8974C110.154 71.7774 109.441 72.5043 108.578 72.5043Z" fill="#6E7174"/>
<path d="M121.694 78.9609L121.122 79.2765C119.958 77.7461 118.523 75.9765 116.6 75.9765C115.671 75.9765 114.714 76.6365 114.714 77.6313C114.714 80.587 122.201 79.4774 122.191 83.9252C122.191 86.02 120.212 87.5983 118.307 87.5983C117.707 87.5983 117.285 87.4261 116.74 87.2539C116.45 87.1583 116.168 87.0339 115.858 87.0339C115.352 87.0339 114.873 87.2539 114.47 87.5887L112.997 83.4565L113.522 83.1887C114.423 84.7191 116.665 86.7852 118.448 86.7852C119.546 86.7852 120.549 85.9435 120.549 84.7861C120.549 81.6583 113.147 83.0165 113.147 78.6165C113.147 76.5504 115.005 75.1635 116.89 75.173C117.754 75.173 118.579 75.5557 119.245 75.5652C119.696 75.5652 120.033 75.3452 120.315 75.0104L121.694 78.9704V78.9609Z" fill="#6E7174"/>
<path d="M122.82 76.2539V75.6704C124.584 74.9243 125.653 73.0495 125.869 71.2035H126.667V75.4504H129.997V76.2539H126.657V83.6095C126.657 84.7 126.535 86.3069 128.008 86.3069C128.937 86.3069 129.509 85.7043 130.11 85.0922L130.513 85.58C129.603 86.6226 128.412 87.5887 126.957 87.5887C124.856 87.5887 124.546 85.8382 124.556 84.1069V76.2443H122.82V76.2539Z" fill="#6E7174"/>
<path d="M135.448 84.0017C135.448 86.2878 135.448 86.4313 137.043 86.6226V87.3304H131.77V86.6226C133.347 86.4313 133.347 86.2783 133.347 84.0017V78.7791C133.281 77.4974 133.262 77.0287 131.799 77.0287V76.4452L135.448 75.0104V77.88C136.358 76.7322 137.784 75.0104 139.351 75.0104C140.139 75.0104 140.833 75.5748 140.833 76.4165C140.833 77.1722 140.336 77.7748 139.548 77.7748C138.704 77.7748 138.403 77.1435 137.634 77.1435C136.799 77.1435 135.852 78.2626 135.448 78.9417V83.9922V84.0017Z" fill="#6E7174"/>
<path d="M146.087 84.0113C146.087 86.2974 146.087 86.4409 147.701 86.6417V87.3496H142.363V86.613C143.986 86.4217 143.986 86.2591 143.986 83.9922V78.7983C143.911 77.507 143.892 77.0478 142.438 77.0478V76.4643L146.087 75.0296V84.0209V84.0113ZM144.727 72.5235C143.845 72.5235 143.132 71.8157 143.132 70.9165C143.132 70.0174 143.826 69.2904 144.708 69.2904C145.59 69.2904 146.303 70.0174 146.303 70.9165C146.303 71.7965 145.581 72.5235 144.727 72.5235Z" fill="#6E7174"/>
<path d="M158.631 84.4513C157.486 86.2304 155.77 87.6078 153.602 87.6078C150.478 87.6078 148.264 84.7096 148.264 81.6965C148.264 78.1 150.675 75.1922 154.343 75.1922C155.704 75.1922 158.246 76.0435 158.246 77.7461C158.246 78.4539 157.655 78.9609 156.961 78.9609C155.197 78.9609 155.891 75.9956 153.602 75.9956C151.144 75.9956 150.666 79.3052 150.666 81.1704C150.666 83.4756 151.932 86.3261 154.578 86.3261C156.201 86.3261 157.242 85.2643 158.275 84.1165L158.631 84.4513Z" fill="#6E7174"/>
<path d="M159.11 76.2635V75.68C160.873 74.9339 161.943 73.0591 162.159 71.213H162.947V75.46H166.277V76.2635H162.947V83.6191C162.947 84.7096 162.825 86.3165 164.298 86.3165C165.227 86.3165 165.808 85.7139 166.399 85.1017L166.803 85.5896C165.893 86.6322 164.711 87.5983 163.256 87.5983C161.164 87.5983 160.845 85.8478 160.845 84.1165V76.2443H159.11V76.2635Z" fill="#6E7174"/>
</g>
<defs>
<clipPath id="clip0_4877_4779">
<rect width="167" height="88" fill="white"/>
</clipPath>
</defs>
</svg>
