<?xml version="1.0" encoding="utf-8"?>
<!-- Generator: Adobe Illustrator 28.4.1, SVG Export Plug-In . SVG Version: 6.00 Build 0)  -->
<svg version="1.0" id="LBUSD_Logo" xmlns="http://www.w3.org/2000/svg" xmlns:xlink="http://www.w3.org/1999/xlink" x="0px" y="0px"
	 viewBox="0 0 268.5 49.5" style="enable-background:new 0 0 268.5 49.5;" xml:space="preserve">
<style type="text/css">
	.st0{fill:#008797;}
	.st1{fill:#057580;}
	.st2{fill:#00A09C;}
	.st3{fill:#4CC4D3;}
	.st4{fill:#FDBA4D;}
	.st5{fill:#DE7C30;}
	.st6{fill:#F58232;}
	.st7{fill:#D9593A;}
	.st8{fill:#FFF0D3;}
	.st9{fill:#F37021;}
	.st10{fill:#FCB420;}
</style>
<g>
	<path class="st0" d="M75.2,29.4H58.8V5.2h6.4v18.6h10.1V29.4z"/>
	<path class="st0" d="M87.9,29.9c-1.9,0-3.6-0.3-5.1-0.9c-1.6-0.6-2.9-1.5-4.1-2.6c-1.2-1.1-2.1-2.5-2.7-4c-0.6-1.5-1-3.2-1-5
		s0.3-3.5,1-5c0.6-1.5,1.5-2.9,2.7-4c1.2-1.1,2.5-2,4.1-2.6c1.6-0.6,3.3-0.9,5.1-0.9c1.9,0,3.6,0.3,5.1,0.9c1.6,0.6,2.9,1.5,4.1,2.6
		c1.1,1.1,2,2.5,2.7,4c0.6,1.5,1,3.2,1,5s-0.3,3.5-1,5c-0.6,1.5-1.5,2.9-2.7,4c-1.1,1.1-2.5,2-4.1,2.6
		C91.5,29.5,89.8,29.9,87.9,29.9z M87.9,24.3c0.9,0,1.7-0.2,2.5-0.5c0.8-0.4,1.4-0.9,2-1.5c0.6-0.6,1-1.4,1.3-2.2
		c0.3-0.9,0.5-1.8,0.5-2.8c0-1-0.2-1.9-0.5-2.8c-0.3-0.8-0.8-1.6-1.3-2.2c-0.6-0.6-1.2-1.1-2-1.5c-0.8-0.4-1.6-0.5-2.5-0.5
		s-1.7,0.2-2.5,0.5c-0.8,0.4-1.4,0.9-2,1.5c-0.6,0.6-1,1.4-1.3,2.2c-0.3,0.9-0.5,1.8-0.5,2.8c0,1,0.2,1.9,0.5,2.8
		c0.3,0.8,0.8,1.6,1.3,2.2c0.6,0.6,1.2,1.1,2,1.5C86.2,24.1,87,24.3,87.9,24.3z"/>
	<path class="st0" d="M125.3,29.4h-7.5L109,15v14.4h-6.4V5.2h7.5l8.7,14.4V5.2h6.4V29.4z"/>
	<path class="st0" d="M144.8,12.2c-0.6-0.6-1.3-1.1-2.1-1.4c-0.8-0.3-1.7-0.5-2.7-0.5c-0.9,0-1.8,0.2-2.5,0.5
		c-0.8,0.3-1.4,0.8-2,1.4c-0.5,0.6-1,1.3-1.3,2.2c-0.3,0.8-0.4,1.8-0.4,2.8c0,1.1,0.2,2.1,0.5,2.9c0.3,0.9,0.8,1.6,1.3,2.3
		c0.6,0.6,1.3,1.1,2.1,1.5c0.8,0.3,1.7,0.5,2.7,0.5c0.7,0,1.4-0.1,2-0.3c0.6-0.2,1.1-0.5,1.6-0.9c0.5-0.4,0.9-0.8,1.2-1.4
		c0.3-0.6,0.6-1.2,0.7-1.9H140V15h11.4l0.2,2.4c0,1.8-0.3,3.5-0.8,5s-1.3,2.8-2.4,3.9c-1,1.1-2.2,1.9-3.7,2.5
		c-1.4,0.6-3,0.9-4.7,0.9c-1.8,0-3.5-0.3-5-1c-1.6-0.6-2.9-1.5-4.1-2.7c-1.2-1.1-2.1-2.5-2.7-4c-0.7-1.5-1-3.2-1-5
		c0-1.8,0.3-3.4,1-4.9c0.6-1.5,1.5-2.8,2.7-4c1.1-1.1,2.5-2,4-2.7c1.5-0.6,3.2-1,4.9-1c1.7,0,3.3,0.3,4.9,0.9s3,1.4,4.3,2.5
		L144.8,12.2z"/>
	<path class="st0" d="M161.3,29.4V5.2h9.2c2.8,0,4.9,0.6,6.5,1.7s2.3,2.7,2.3,4.8c0,1.2-0.3,2.2-0.8,3.1s-1.2,1.6-2.1,2.1
		c1.3,0.4,2.3,1.1,3.1,2.1c0.7,1,1.1,2.2,1.1,3.6c0,1.4-0.3,2.6-1,3.6c-0.7,1-1.6,1.8-2.9,2.4c-1.2,0.6-2.7,0.8-4.4,0.8H161.3z
		 M167.7,14.9h2.4c0.9,0,1.6-0.2,2.1-0.6c0.5-0.4,0.8-0.9,0.8-1.6c0-0.6-0.3-1.1-0.8-1.5c-0.5-0.4-1.2-0.5-2.1-0.5h-2.4V14.9z
		 M167.7,23.8h2.8c0.7,0,1.4-0.1,1.9-0.2c0.5-0.2,0.9-0.4,1.2-0.7s0.4-0.7,0.4-1.2c0-0.5-0.1-0.8-0.4-1.1c-0.2-0.3-0.6-0.5-1-0.7
		c-0.5-0.2-1-0.2-1.7-0.2h-3.2V23.8z"/>
	<path class="st0" d="M182.3,29.4V5.2h16.1v5.6h-9.7v3.7h9.1V20h-9.1v3.8h9.9v5.6H182.3z"/>
	<path class="st0" d="M206.2,29.4h-6.7L209,5.2h6.7l9.4,24.2h-6.7l-1.6-4.3h-9.1L206.2,29.4z M209.8,19.5h5l-2.5-6.9L209.8,19.5z"/>
	<path class="st0" d="M245.2,26.4c-1.1,1.1-2.5,2-4,2.6c-1.6,0.6-3.2,0.9-5.1,0.9c-1.8,0-3.5-0.3-5.1-0.9c-1.6-0.6-2.9-1.5-4.1-2.6
		c-1.2-1.1-2.1-2.5-2.7-4s-1-3.2-1-5s0.3-3.5,1-5c0.6-1.5,1.5-2.9,2.7-4c1.2-1.1,2.5-2,4.1-2.6c1.6-0.6,3.3-0.9,5.1-0.9
		c1.8,0,3.5,0.3,5,0.9c1.5,0.6,2.9,1.5,4,2.6l-4.5,4.5c-0.6-0.8-1.2-1.3-2.1-1.8s-1.7-0.6-2.7-0.6c-0.9,0-1.7,0.2-2.5,0.5
		c-0.8,0.4-1.4,0.9-2,1.5s-1,1.4-1.3,2.2c-0.3,0.8-0.5,1.8-0.5,2.8c0,1,0.2,1.9,0.5,2.8c0.3,0.8,0.8,1.6,1.3,2.2
		c0.6,0.6,1.2,1.1,2,1.5c0.8,0.4,1.6,0.5,2.5,0.5c1,0,1.8-0.2,2.6-0.6s1.5-1,2-1.8L245.2,26.4z"/>
	<path class="st0" d="M253.2,29.4h-6.4V5.2h6.4v9.5h8.4V5.2h6.4v24.2h-6.4v-9.1h-8.4V29.4z"/>
</g>
<g>
	<g>
		<path class="st1" d="M0,28.6C0,28.6,0,28.6,0,28.6l0,17.1c0,2.1,1.7,3.9,3.9,3.9h40C36.4,33.5,11.2,49.3,0,28.6z"/>
	</g>
	<path class="st2" d="M0,25.8v2.8c11.2,20.7,36.4,4.9,43.8,21h1.8c2.1,0,3.9-1.7,3.9-3.9V34.8C34.4,23.9,12.8,44.4,0,25.8z"/>
	<path class="st3" d="M49.5,21.5c-17.9-6.5-30.2,17.8-49.5,2v2.3c12.8,18.6,34.4-1.9,49.5,9.1V21.5z"/>
	<path class="st4" d="M32.3,22.9c-1-6.8-6.9-12-14.1-12C10.4,10.9,4,17.2,4,25c0,0.4,0,0.9,0.1,1.3C14.7,32.3,23.3,26.6,32.3,22.9z"
		/>
	<g>
		<path class="st5" d="M4.1,26.3C4.1,26.3,4.1,26.3,4.1,26.3C4.1,26.3,4.1,26.3,4.1,26.3C4.1,26.3,4.1,26.3,4.1,26.3z"/>
		<path class="st6" d="M4.1,26.3C4,25.9,4,25.4,4,25c0-7.8,6.4-14.1,14.2-14.1c7.1,0,13,5.2,14.1,12c0,0,0,0,0,0
			c3.7-1.5,7.5-2.7,11.5-2.6C41.4,11,32.7,4.5,22.9,4.5c-11.1,0-20.5,8.2-21.4,20.1C2.3,25.2,3.2,25.8,4.1,26.3z"/>
	</g>
	<g>
		<path class="st7" d="M32.3,22.9C32.3,22.9,32.3,22.9,32.3,22.9C32.3,22.9,32.3,22.9,32.3,22.9C32.3,22.9,32.3,22.9,32.3,22.9z
			 M45.7,0H3.9C1.7,0,0,1.7,0,3.9v19.6c0.5,0.4,1,0.8,1.4,1.1C2.3,12.7,11.8,4.5,22.9,4.5c9.9,0,18.6,6.5,20.9,15.8c0,0,0,0,0,0
			c1.9,0.1,3.8,0.4,5.8,1.1V3.9C49.5,1.7,47.8,0,45.7,0z"/>
	</g>
</g>
<g>
	<path class="st7" d="M21.9,24.4c-0.5,0-1,0.1-1.4,0.4c-0.4,0.3-0.7,0.6-1,1c-0.1,0.1-0.1,0.2-0.2,0.3c0,0,0,0,0,0
		c-0.1,0.2-0.2,0.4-0.3,0.6c-0.1,0.2-0.3,0.5-0.5,0.7c-0.3,0.3-0.6,0.6-0.9,0.9c-0.1,0.1-0.2,0.1-0.2,0.2c0.3-0.1,0.5-0.1,0.8-0.2
		c0.1-0.1,0.2-0.2,0.3-0.3c0.2-0.2,0.3-0.4,0.4-0.6c0,0.1,0,0.2,0,0.2c0,0.2,0,0.3,0.1,0.5c0.3-0.1,0.7-0.2,1-0.3c0,0,0-0.1,0-0.1
		c0-0.3,0.1-0.7,0.2-1.1c0.2,0.1,0.4,0.1,0.7,0.1c0.2,0,0.3,0,0.5,0c0.2,0,0.3-0.1,0.5-0.1c0.3-0.1,0.6-0.3,0.8-0.5
		c0.2-0.2,0.3-0.5,0.3-0.8c0-0.3-0.1-0.5-0.3-0.7C22.5,24.5,22.2,24.4,21.9,24.4z M22.2,25.7c-0.1,0.2-0.3,0.3-0.5,0.4
		c-0.1,0.1-0.2,0.2-0.4,0.2c-0.2,0.1-0.3,0.1-0.5,0.1c0,0-0.1,0-0.1,0c0,0-0.1,0-0.1,0c-0.1,0-0.1-0.1-0.1-0.2c0-0.1,0-0.2,0.1-0.4
		c0.1-0.1,0.2-0.3,0.3-0.4c0.1-0.1,0.2-0.2,0.2-0.2c0.1-0.1,0.2-0.2,0.4-0.3c0.1-0.1,0.3-0.1,0.4-0.2c0.1,0,0.2,0,0.2,0
		c0.1,0,0.2,0,0.3,0.1c0.1,0.1,0.1,0.1,0.1,0.2C22.4,25.3,22.3,25.5,22.2,25.7z M30.8,20.5c-0.1-0.1-0.4-0.3-0.7-0.3
		c-0.3,0-0.4,0.2-0.7,0.4c-0.3,0.2-0.5,0.5-0.8,0.8c-0.2,0.3-0.5,0.7-0.7,1.1c-0.2,0.4-0.4,0.8-0.6,1.2c-0.2,0.4-0.3,0.8-0.4,1.2
		c0,0.1-0.1,0.2-0.1,0.3c0.7-0.3,1.4-0.6,2.1-0.9c0.2-0.2,0.3-0.4,0.4-0.5c0.3-0.3,0.5-0.6,0.7-1c0.2-0.4,0.4-0.7,0.6-1
		c0.1-0.1,0.1-0.3,0.2-0.4c0.1-0.2,0.1-0.4,0.1-0.5C30.9,20.8,30.8,20.6,30.8,20.5z M30.4,21.2c0,0.1-0.1,0.3-0.2,0.4
		c-0.1,0.1-0.1,0.2-0.1,0.2c-0.3,0.6-0.6,1.1-1,1.6c-0.4,0.5-0.7,0.8-1.1,1.3c0.2-0.4,0.2-0.6,0.4-1c0.2-0.4,0.3-0.8,0.5-1.2
		c0.2-0.4,0.4-0.7,0.5-1c0.1-0.2,0.3-0.4,0.4-0.6c0.1-0.1,0.2-0.2,0.4-0.2c0.1,0,0.2,0.1,0.2,0.2C30.5,20.9,30.5,21,30.4,21.2z
		 M27.7,21.9c0.1-0.1,0.1-0.3,0.2-0.4c0.1-0.2,0.1-0.4,0.1-0.5c0-0.2,0-0.3-0.1-0.4c-0.1-0.1-0.4-0.2-0.6-0.2
		c-0.3,0-0.5,0.2-0.8,0.4c-0.3,0.2-0.5,0.5-0.8,0.8c-0.2,0.3-0.5,0.7-0.7,1.1c-0.2,0.4-0.4,0.8-0.6,1.2c-0.2,0.4-0.3,0.8-0.4,1.2
		c-0.1,0.4-0.2,0.7-0.3,0.9c0,0.1,0,0.1-0.1,0.2c0,0,0,0-0.1,0.1c-0.1,0.2-0.3,0.3-0.4,0.5c-0.1,0.1-0.1,0.2-0.2,0.3
		c0.5-0.2,1-0.4,1.5-0.6c0,0,0-0.1,0-0.1l0.2-0.5c0.1-0.1,0.2-0.2,0.4-0.4c0.2-0.2,0.4-0.4,0.6-0.7c0.2-0.2,0.4-0.5,0.6-0.7
		c0.3-0.3,0.5-0.6,0.7-1C27.4,22.5,27.5,22.2,27.7,21.9z M26.3,23.4c-0.4,0.5-0.7,0.8-1.1,1.3c0.2-0.4,0.2-0.6,0.4-1
		c0.2-0.4,0.3-0.8,0.5-1.2c0.2-0.4,0.4-0.7,0.5-1c0.1-0.2,0.3-0.4,0.4-0.6c0.1-0.1,0.3-0.2,0.4-0.2c0.1,0,0.2,0.1,0.2,0.2
		c0,0.1,0,0.2-0.1,0.4c0,0.1-0.1,0.3-0.2,0.4c-0.1,0.1-0.1,0.2-0.1,0.2C27,22.4,26.7,22.9,26.3,23.4z M18.1,24.8
		c0.1,0.1,0.1,0.1,0.1,0.2c0,0.1-0.1,0.3-0.2,0.4c-0.1,0.1-0.1,0.1-0.2,0.2c-0.1,0-0.2,0-0.2,0c0,0,0,0.1,0,0.1c0,0,0,0.1,0,0.1
		c0,0.1,0,0.3,0.1,0.3c0.1,0.1,0.2,0.1,0.3,0.1c0.2,0,0.4-0.1,0.6-0.3c0.1-0.2,0.2-0.4,0.2-0.7c0-0.3-0.1-0.5-0.3-0.7
		c-0.2-0.2-0.5-0.3-0.9-0.3c-0.6,0-1.1,0.2-1.5,0.5c-0.4,0.3-0.7,0.7-1,1.2c-0.1,0.2-0.2,0.5-0.3,0.8c0,0.2-0.1,0.3-0.1,0.4
		c0,0-0.1,0.1-0.1,0.1c-0.1,0.1-0.2,0.2-0.3,0.4c-0.1,0.1-0.3,0.3-0.4,0.4c-0.2,0.1-0.3,0.2-0.5,0.2c-0.1,0-0.1-0.1-0.2-0.2
		c-0.1-0.1-0.2-0.2-0.3-0.4c-0.1-0.2-0.2-0.4-0.3-0.6c-0.1-0.2-0.1-0.4-0.2-0.6c0.4-0.4,0.7-0.8,1-1.1c0.4-0.4,0.8-0.7,1.2-1.1
		c0,0-0.1,0-0.3,0c-0.1,0-0.2,0-0.4,0c-0.1,0-0.2,0-0.3,0.1c-0.3,0.3-0.6,0.6-0.8,0.9c-0.3,0.3-0.4,0.5-0.6,0.7
		c-0.1-0.3-0.2-0.6-0.2-1c-0.1-0.3-0.1-0.6-0.2-0.8l-0.7,0c-0.2,0-0.3,0.1-0.4,0.3c-0.1,0.2-0.2,0.5-0.2,0.7
		c-0.1,0.2-0.2,0.5-0.4,0.9c0,0.1,0,0.2,0,0.3c0,0.1,0,0.2,0,0.2c0,0.1,0,0.1,0.1,0c0.2-0.3,0.3-0.6,0.5-0.8
		c0.1-0.2,0.2-0.4,0.3-0.5c0.1,0.3,0.1,0.5,0.2,0.8c0.1,0.3,0.2,0.5,0.2,0.8c-0.5,0.5-1,0.9-1.3,1.3c0,0-0.1,0.1-0.1,0.1
		c0.2,0,0.4,0.1,0.7,0.1c0.1-0.1,0.2-0.2,0.3-0.3c0.2-0.2,0.5-0.5,0.7-0.8c0.1,0.5,0.3,0.9,0.5,1.2c0,0,0,0,0,0
		c0.6,0,1.1,0.1,1.6,0.1c0.2-0.1,0.3-0.2,0.5-0.4c0.2-0.2,0.4-0.4,0.5-0.5c0,0,0.1-0.1,0.1-0.1c0,0.2,0.1,0.4,0.1,0.6
		c0.1,0.1,0.2,0.3,0.3,0.4c0.4,0,0.8-0.1,1.2-0.1c-0.1,0-0.3-0.1-0.4-0.2c-0.1-0.2-0.2-0.4-0.2-0.7c0-0.4,0.1-0.8,0.3-1.3
		c0.1-0.3,0.3-0.6,0.5-0.8c0.2-0.3,0.4-0.5,0.6-0.6c0.2-0.2,0.4-0.2,0.7-0.2C18,24.8,18,24.8,18.1,24.8z"/>
</g>
<g>
	<path class="st7" d="M4.1,26.3C4.1,26.3,4.1,26.3,4.1,26.3C4.1,26.3,4.1,26.3,4.1,26.3C4.1,26.3,4.1,26.3,4.1,26.3z M8.4,25.9
		c-0.1,0-0.3,0-0.4,0.1c-0.1,0-0.3,0.1-0.4,0.2c-0.1,0.1-0.1,0.1-0.2,0.2c-0.1,0.1-0.1,0.2-0.1,0.2c0,0,0,0.1,0,0.1
		c0,0.1,0.1,0.1,0.1,0.1c0.1-0.1,0.3-0.2,0.5-0.2c0.2,0,0.3,0,0.4,0.1c0.1,0.1,0.2,0.2,0.2,0.4c0,0.3-0.1,0.5-0.3,0.7
		c-0.1,0.1-0.1,0.1-0.2,0.2c0.2,0.1,0.5,0.1,0.7,0.2C9,28.1,9.2,28,9.3,27.8c0.2-0.3,0.3-0.6,0.3-0.9c0-0.3-0.1-0.5-0.3-0.7
		C9.1,26,8.8,25.9,8.4,25.9z M9.7,21.2c-0.2-0.2-0.4-0.4-0.7-0.4c-0.3-0.1-0.6-0.1-0.9-0.1c-0.3,0-0.5,0-0.8,0.1
		c-0.3,0-0.6,0.1-0.9,0.2C6,21,5.8,21.1,5.6,21.2c-0.3,0.2-0.6,0.4-0.8,0.7c-0.2,0.3-0.4,0.6-0.5,0.9c0,0.1,0,0.2,0,0.2
		c0,0.1,0,0.2,0,0.2c0,0.3,0.1,0.6,0.3,0.9c0.2,0.3,0.5,0.5,0.9,0.7c-0.3,0-0.7,0.1-1,0.2c-0.3,0.1-0.6,0.2-0.8,0.4
		c-0.2,0.1-0.3,0.3-0.5,0.4c0.3,0.2,0.6,0.3,0.8,0.5c0,0,0.1,0,0.1,0.1c0.1-0.2,0.3-0.5,0.5-0.7c0.2-0.2,0.5-0.4,0.9-0.4
		c0.1,0,0.2,0,0.2,0c0.1,0,0.1,0,0.2,0c0.2,0,0.5,0,0.7,0.1c0.2,0.1,0.5,0.1,0.7,0.1c0,0,0,0,0.1,0c0,0,0.1,0,0.1,0
		c0.2,0,0.3,0,0.4-0.1c0.1-0.1,0.2-0.2,0.2-0.2c0-0.1-0.1-0.2-0.3-0.2c-0.1,0-0.2,0-0.4,0c-0.1,0-0.3,0-0.4,0c-0.1,0-0.2,0-0.3,0
		c-0.1,0-0.2,0-0.2,0c0,0-0.1,0-0.1,0c0,0-0.1,0-0.2,0c-0.3-0.1-0.5-0.3-0.6-0.5c-0.1-0.2-0.2-0.5-0.2-0.8c0-0.4,0.1-0.7,0.3-1.1
		c0.1-0.3,0.3-0.5,0.6-0.7c0.2-0.2,0.5-0.4,0.8-0.5c0.3-0.1,0.6-0.2,0.9-0.2c0.5,0,0.8,0.1,1,0.3c0.2,0.2,0.3,0.4,0.3,0.7
		c0,0.2,0,0.4-0.1,0.5C9,22.7,8.9,22.9,8.7,23c-0.2,0.1-0.4,0.2-0.6,0.2c-0.2,0-0.4,0-0.6-0.1c-0.2-0.1-0.3-0.2-0.4-0.4
		C7.1,22.7,7,22.8,7,23c0,0,0,0.1,0,0.1c0,0,0,0.1,0,0.1c0.1,0.2,0.2,0.4,0.4,0.5c0.2,0.1,0.4,0.2,0.7,0.2c0,0,0.1,0,0.1,0
		c0,0,0.1,0,0.2,0c0.3,0,0.6-0.1,0.8-0.3c0.2-0.2,0.4-0.4,0.6-0.6c0.1-0.3,0.2-0.5,0.2-0.8C9.9,21.7,9.8,21.4,9.7,21.2z"/>
</g>
<path class="st1" d="M3.7,29.3c0.5,0.2,1,0.2,1.6,0.2c0.1,0,0.3,0,0.4,0c0.1,0,0.3,0,0.4,0c0.3,0,0.6-0.1,0.9-0.2
	c0.3-0.1,0.6-0.2,0.9-0.3c0.3-0.1,0.5-0.3,0.8-0.5c0.1-0.1,0.2-0.2,0.3-0.2c-0.2-0.1-0.5-0.1-0.7-0.2c-0.1,0.1-0.3,0.3-0.5,0.4
	c-0.3,0.2-0.6,0.3-0.9,0.4C6.5,29,6.2,29,5.8,29c-0.4,0-0.8-0.1-1.1-0.2c-0.3-0.2-0.5-0.4-0.6-0.6c-0.1-0.3-0.2-0.5-0.2-0.8
	c0-0.3,0.1-0.6,0.2-0.9c0,0,0-0.1,0.1-0.1c-0.3-0.2-0.6-0.4-0.9-0.6c-0.2,0.2-0.3,0.4-0.4,0.6c-0.2,0.4-0.3,0.8-0.3,1.2
	c0,0.4,0.1,0.7,0.3,1C3,29,3.3,29.2,3.7,29.3z"/>
<path class="st1" d="M47.4,26C47.4,26,47.3,26,47.4,26c-0.2,0.3-0.4,0.4-0.5,0.6c-0.1,0.2-0.1,0.3-0.2,0.4c-0.1,0.1-0.1,0.3-0.3,0.4
	c-0.1,0.2-0.3,0.4-0.5,0.6c-0.2,0.2-0.4,0.4-0.7,0.5c-0.2,0.1-0.5,0.2-0.7,0.2c-0.3,0-0.5-0.1-0.6-0.3c-0.1-0.2-0.2-0.4-0.2-0.7
	c0-0.3,0.1-0.7,0.2-1.1c0.2,0.1,0.4,0.1,0.7,0.1c0.2,0,0.3,0,0.5,0c0.2,0,0.3-0.1,0.5-0.1c0.3-0.1,0.6-0.3,0.8-0.5
	c0.2-0.2,0.3-0.5,0.3-0.8c0-0.3-0.1-0.5-0.3-0.7c-0.2-0.2-0.5-0.3-0.9-0.3c-0.5,0-1,0.1-1.4,0.4c-0.4,0.3-0.7,0.6-1,1
	c-0.1,0.2-0.2,0.4-0.3,0.6c-0.1,0.1-0.1,0.2-0.2,0.3c-0.1,0.2-0.3,0.5-0.5,0.7c-0.3,0.3-0.6,0.6-0.9,0.9c-0.3,0.3-0.7,0.4-1,0.4
	c-0.3,0-0.5-0.1-0.6-0.3c-0.1-0.2-0.2-0.4-0.2-0.7c0-0.4,0.1-0.8,0.3-1.3c0.1-0.3,0.3-0.6,0.5-0.8c0.2-0.3,0.4-0.5,0.6-0.6
	c0.2-0.2,0.4-0.2,0.7-0.2c0.1,0,0.2,0,0.3,0.1c0.1,0.1,0.1,0.1,0.1,0.2c0,0.1-0.1,0.3-0.2,0.4c-0.1,0.1-0.1,0.1-0.2,0.2
	c-0.1,0-0.2,0-0.2,0c0,0,0,0.1,0,0.1c0,0,0,0.1,0,0.1c0,0.1,0,0.3,0.1,0.3c0.1,0.1,0.2,0.1,0.3,0.1c0.2,0,0.4-0.1,0.6-0.3
	c0.1-0.2,0.2-0.4,0.2-0.7c0-0.3-0.1-0.5-0.3-0.7c-0.2-0.2-0.5-0.3-0.9-0.3c-0.6,0-1.1,0.2-1.5,0.5c-0.4,0.3-0.7,0.7-1,1.2
	c0,0,0,0-0.1,0.1c-0.1,0.2-0.2,0.4-0.4,0.6C38.3,27,38.2,27,38,27.2c-0.1,0.2-0.3,0.6-0.5,0.7c-0.2,0.2-0.3,0.2-0.5,0.2
	c-0.1,0-0.2-0.1-0.2-0.3c0-0.1,0-0.3,0.1-0.5c0.1-0.2,0.1-0.5,0.2-0.7c0.1-0.2,0.2-0.5,0.3-0.7c0.1-0.2,0.1-0.4,0.2-0.5
	c0-0.1,0.1-0.2,0.1-0.3c0-0.1,0-0.2,0-0.2c0-0.4-0.2-0.6-0.7-0.6c-0.2,0-0.4,0-0.6,0.1c-0.2,0.1-0.5,0-0.6,0.1
	c-0.2,0.1-0.4,0.3-0.5,0.4c-0.1,0.1-0.1,0.1-0.2,0.2c0,0,0,0,0,0c0-0.1,0.1-0.2,0.1-0.3c0-0.1,0-0.2-0.1-0.3c0,0-0.1-0.1-0.2-0.1
	c-0.1,0-0.2,0-0.3,0c-0.1,0-0.2,0-0.3,0c-0.1,0-0.2,0-0.2,0c0,0,0,0.1,0,0.2c0,0.1,0,0.3-0.1,0.6c-0.1,0.2-0.1,0.5-0.2,0.7
	c0,0.1-0.1,0.2-0.1,0.3c0,0,0,0,0,0c-0.1,0.2-0.2,0.4-0.3,0.6c-0.1,0.2-0.2,0.3-0.2,0.4c-0.1,0.1-0.2,0.2-0.3,0.4
	c-0.1,0.2-0.3,0.4-0.5,0.6c-0.2,0.2-0.4,0.4-0.7,0.5c-0.2,0.1-0.5,0.2-0.7,0.2c-0.3,0-0.5-0.1-0.6-0.3c-0.1-0.2-0.2-0.4-0.2-0.7
	c0-0.3,0.1-0.7,0.2-1.1c0.2,0.1,0.4,0.1,0.7,0.1c0.2,0,0.3,0,0.5,0c0.2,0,0.3-0.1,0.5-0.1c0.3-0.1,0.6-0.3,0.8-0.5
	c0.2-0.2,0.3-0.5,0.3-0.8c0-0.3-0.1-0.5-0.3-0.7c-0.2-0.2-0.5-0.3-0.9-0.3c-0.5,0-1,0.1-1.4,0.4c-0.4,0.3-0.7,0.6-1,1
	c-0.1,0.1-0.1,0.2-0.2,0.3c0,0,0,0,0,0c-0.1,0.2-0.3,0.4-0.4,0.6c-0.1,0.2-0.3,0.4-0.4,0.6c-0.1,0.1-0.1,0.3-0.3,0.5
	c-0.1,0.2-0.3,0.3-0.5,0.4c-0.2,0.1-0.3,0.2-0.4,0.2c-0.2,0-0.3-0.1-0.3-0.4c0,0,0-0.1,0-0.1c0,0,0-0.1,0-0.1c0-0.1,0.1-0.3,0.1-0.5
	c0-0.2,0.1-0.4,0.1-0.6c0.1-0.2,0.1-0.4,0.2-0.5l0.2-0.5c0.1-0.1,0.2-0.2,0.4-0.4c0.2-0.2,0.4-0.4,0.6-0.7c0-0.1,0.1-0.1,0.1-0.2
	c-0.7,0.3-1.4,0.6-2.1,0.9c-0.1,0.2-0.1,0.4-0.2,0.6c0,0.1-0.1,0.2-0.1,0.3c0,0,0,0,0,0.1c-0.1,0.2-0.2,0.4-0.4,0.6
	c-0.1,0.2-0.3,0.5-0.4,0.7c-0.1,0.1-0.2,0.2-0.3,0.3c-0.1,0.2-0.3,0.3-0.5,0.4c-0.2,0.1-0.3,0.2-0.4,0.2c-0.2,0-0.3-0.1-0.3-0.4
	c0,0,0-0.1,0-0.1c0,0,0-0.1,0-0.1c0-0.1,0.1-0.3,0.1-0.5c0-0.2,0.1-0.4,0.1-0.6c0-0.2,0.1-0.3,0.1-0.4c-0.5,0.2-1,0.4-1.5,0.6
	c0,0,0,0.1-0.1,0.1c-0.1,0.1-0.2,0.3-0.3,0.5c-0.1,0.2-0.3,0.4-0.5,0.6c-0.2,0.2-0.4,0.4-0.7,0.5c-0.2,0.1-0.5,0.2-0.7,0.2
	c-0.3,0-0.5-0.1-0.6-0.3c-0.1-0.2-0.2-0.4-0.2-0.6c-0.3,0.1-0.7,0.2-1,0.3c0,0,0,0,0,0c0.1,0.4,0.3,0.6,0.6,0.8
	c0.3,0.2,0.6,0.2,0.9,0.2c0.4,0,0.8-0.1,1.1-0.3c0.2-0.1,0.4-0.2,0.6-0.4c0.2-0.2,0.3-0.3,0.5-0.5c0.2-0.2,0.3-0.4,0.5-0.7
	c0-0.1,0.1-0.1,0.1-0.2c-0.1,0.3-0.1,0.6-0.2,0.8c0,0,0,0.1,0,0.1c0,0,0,0.1,0,0.1c0,0.3,0.1,0.5,0.2,0.7c0.1,0.2,0.3,0.2,0.5,0.2
	c0.2,0,0.5-0.1,0.7-0.2c0.2-0.1,0.5-0.3,0.7-0.5c0.2-0.2,0.4-0.4,0.5-0.5c0.2-0.2,0.3-0.4,0.5-0.7c0,0,0.1-0.1,0.1-0.1
	c-0.1,0.3-0.1,0.6-0.2,0.8c0,0,0,0.1,0,0.1c0,0,0,0.1,0,0.1c0,0.3,0.1,0.5,0.2,0.7c0.1,0.2,0.3,0.2,0.5,0.2c0.2,0,0.5-0.1,0.7-0.2
	c0.2-0.1,0.5-0.3,0.7-0.5c0.2-0.2,0.4-0.4,0.5-0.5c0.2-0.2,0.3-0.4,0.4-0.6c0,0.1,0,0.2,0,0.3c0,0.2,0,0.4,0.1,0.5
	c0.1,0.4,0.3,0.6,0.6,0.8c0.3,0.2,0.6,0.2,0.9,0.2c0.4,0,0.8-0.1,1.1-0.3c0.2-0.1,0.4-0.2,0.6-0.4c0.2-0.2,0.3-0.3,0.5-0.5
	c0.1-0.1,0.2-0.2,0.2-0.3C33,27.9,33,28,32.9,28.2c-0.1,0.2-0.2,0.5-0.3,0.9h1.1c0-0.1,0.1-0.3,0.1-0.4c0-0.1,0.1-0.3,0.1-0.4
	c0.1-0.2,0.2-0.5,0.3-0.8c0.1-0.3,0.3-0.7,0.4-1c0.1-0.3,0.3-0.6,0.5-0.9c0.2-0.3,0.5-0.5,0.7-0.6c0.2-0.1,0.3-0.1,0.4-0.1
	c0.1,0,0.2,0,0.2,0.1c0.1,0,0.1,0.1,0.1,0.2c0,0.1,0,0.2,0,0.2c-0.1,0.3-0.2,0.6-0.4,1c-0.1,0.4-0.3,0.7-0.4,1.1
	c-0.1,0.4-0.2,0.7-0.2,0.9c0,0.2,0,0.4,0.1,0.6c0.1,0.2,0.3,0.2,0.6,0.2c0.2,0,0.4-0.1,0.6-0.2c0.2-0.1,0.4-0.3,0.6-0.5
	c0.2-0.2,0.3-0.3,0.4-0.5c0.2-0.2,0.3-0.4,0.4-0.6c0,0.1,0,0.2,0,0.3c0,0.3,0,0.5,0.1,0.8c0.1,0.2,0.3,0.4,0.5,0.6
	c0.2,0.1,0.5,0.2,0.9,0.2c0.5,0,1-0.1,1.3-0.3c0.4-0.2,0.7-0.5,0.9-0.9c0.1-0.2,0.3-0.4,0.4-0.6c0,0.1,0,0.1,0,0.2
	c0,0.2,0,0.4,0.1,0.5c0.1,0.4,0.3,0.6,0.6,0.8c0.3,0.2,0.6,0.2,0.9,0.2c0.4,0,0.8-0.1,1.1-0.3c0.2-0.1,0.4-0.2,0.6-0.4
	c0.2-0.2,0.4-0.3,0.5-0.5c0.2-0.2,0.3-0.4,0.5-0.7c0.2-0.2,0.3-0.5,0.4-0.7c0-0.1,0.1-0.2,0.1-0.3c0-0.1,0-0.2,0-0.2
	C47.5,26.1,47.4,26,47.4,26z M44.4,25.9c0.1-0.1,0.2-0.3,0.3-0.4c0.1-0.1,0.2-0.2,0.2-0.2c0.1-0.1,0.2-0.2,0.4-0.3
	c0.1-0.1,0.3-0.1,0.4-0.2c0.1,0,0.2,0,0.2,0c0.1,0,0.2,0,0.3,0.1c0.1,0.1,0.1,0.1,0.1,0.2c0,0.2-0.1,0.4-0.2,0.6
	c-0.1,0.2-0.3,0.3-0.5,0.4c-0.1,0.1-0.2,0.2-0.4,0.2c-0.2,0.1-0.3,0.1-0.5,0.1c0,0-0.1,0-0.1,0c0,0-0.1,0-0.1,0
	c-0.1,0-0.1-0.1-0.1-0.2C44.2,26.1,44.3,26,44.4,25.9z M30.7,25.9c0.1-0.1,0.2-0.3,0.3-0.4c0.1-0.1,0.2-0.2,0.2-0.2
	c0.1-0.1,0.2-0.2,0.4-0.3c0.1-0.1,0.3-0.1,0.4-0.2c0.1,0,0.2,0,0.2,0c0.1,0,0.2,0,0.3,0.1c0.1,0.1,0.1,0.1,0.1,0.2
	c0,0.2-0.1,0.4-0.2,0.6c-0.1,0.2-0.3,0.3-0.5,0.4c-0.1,0.1-0.2,0.2-0.4,0.2c-0.2,0.1-0.3,0.1-0.5,0.1c0,0-0.1,0-0.1,0
	c0,0-0.1,0-0.1,0c-0.1,0-0.1-0.1-0.1-0.2C30.6,26.1,30.7,26,30.7,25.9z M35.1,25.1C35,25.1,35,25.1,35.1,25.1
	C35,25.1,35,25.1,35.1,25.1z"/>
<path class="st1" d="M12.8,29.2c0.2,0,0.4-0.1,0.7-0.2c0.1,0,0.1-0.1,0.2-0.1c-0.5,0-1.1,0-1.6-0.1C12.2,29.1,12.5,29.2,12.8,29.2z"
	/>
<path class="st1" d="M10.5,28.6c-0.2,0-0.4-0.1-0.6-0.1c-0.3,0.3-0.5,0.5-0.7,0.6H10C10.2,28.9,10.3,28.8,10.5,28.6z"/>
<path class="st1" d="M17.6,28.9c0.2-0.1,0.4-0.3,0.6-0.5c-0.3,0.1-0.5,0.1-0.8,0.2c-0.3,0.1-0.5,0.2-0.8,0.2c-0.1,0-0.2,0-0.3,0
	c-0.4,0.1-0.8,0.1-1.2,0.1c0.1,0.1,0.1,0.1,0.2,0.2c0.2,0.1,0.5,0.2,0.9,0.2C16.7,29.2,17.2,29.1,17.6,28.9z"/>
<path class="st1" d="M35.7,32.4c0-0.1,0.1-0.2,0.2-0.3c0.1-0.1,0.2-0.2,0.3-0.3c0.1-0.1,0.2-0.1,0.3-0.1c0.1-0.1,0.2-0.2,0.2-0.4
	c0-0.1,0-0.2-0.1-0.3c-0.1-0.1-0.2-0.1-0.3-0.1c0,0-0.1,0-0.1,0c0,0-0.1,0-0.1,0c-0.2,0.1-0.3,0.2-0.5,0.4c-0.1,0.2-0.2,0.4-0.2,0.6
	C35.4,32.2,35.5,32.4,35.7,32.4z"/>
<path class="st1" d="M13.4,30.7c-0.1,0-0.1,0-0.2,0c-0.1,0-0.1,0-0.1,0c0,0-0.1,0-0.1,0c0,0-0.1,0-0.1,0.1c0,0-0.1,0.1-0.1,0.2
	c0,0.1-0.1,0.2-0.1,0.4c0,0.1-0.1,0.3-0.1,0.5c0,0.2-0.1,0.5-0.2,0.7c0,0,0,0.1,0,0.1c0,0,0,0.1,0,0.1c-0.1-0.1-0.2-0.2-0.3-0.2
	c-0.1,0-0.2,0-0.3,0c-0.2,0-0.4,0.1-0.6,0.3c-0.2,0.2-0.3,0.4-0.4,0.6c-0.1,0.2-0.1,0.4-0.2,0.5c0,0.1-0.1,0.1-0.1,0.2
	c-0.1,0.2-0.1,0.2-0.2,0.3c-0.1,0.1-0.1,0.3-0.2,0.4c-0.1,0.1-0.1,0.2-0.2,0.2c-0.1,0-0.1,0-0.1-0.1c0-0.1,0-0.2,0-0.3
	c0-0.1,0-0.3,0.1-0.4c0-0.2,0.1-0.3,0.1-0.4c0-0.1,0.1-0.3,0.1-0.3c0-0.1,0-0.1,0-0.2c0-0.1,0-0.1,0-0.1c0-0.3-0.2-0.4-0.4-0.3
	C9.2,32.9,9.1,33,9,33c-0.1,0.1-0.2-0.1-0.3,0c-0.1,0.1-0.2,0.1-0.2,0.2c-0.1,0.1,0,0.1-0.1,0.2c0,0-0.1,0.2-0.1,0.1
	c0-0.1,0,0,0-0.1c0-0.1,0-0.1-0.1-0.2c0,0-0.1,0-0.1,0c-0.1,0-0.1,0-0.2,0c0,0-0.1,0-0.1,0c0,0-0.1,0-0.1,0c0,0,0,0,0,0.1
	c0,0.1,0,0.2,0,0.4c0,0.1,0,0.3-0.1,0.4c0,0.1,0,0.2,0,0.2c0,0,0,0,0,0c-0.1,0.2-0.2,0.3-0.3,0.5c-0.1,0.2-0.2,0.4-0.4,0.6
	c-0.1,0.1-0.1,0.3-0.2,0.4c-0.1,0-0.1,0-0.1-0.1c0,0,0-0.1,0-0.1c0,0,0-0.1,0-0.1c0-0.2,0.1-0.5,0.1-0.8C6.8,34.5,6.9,34.2,7,34
	c0,0,0-0.1,0.1-0.2c0-0.1,0.1-0.1,0.1-0.2c0-0.1,0.1-0.1,0.1-0.1c0,0-0.1,0-0.2,0.1c-0.1,0-0.2,0-0.2,0.1c-0.1,0-0.2,0.1-0.2,0.2
	c-0.1,0.1-0.1,0.2-0.2,0.3c0,0,0,0,0,0c0,0,0,0,0,0c0-0.1,0-0.1,0-0.1c-0.1,0-0.3-0.3-0.4-0.3c-0.1,0-0.2,0-0.3,0.1
	c-0.2,0.1-0.3,0.3-0.5,0.5c-0.2,0.2-0.3,0.5-0.4,0.7c-0.1,0.3-0.2,0.6-0.2,0.8c0,0.3-0.1,0.5,0,0.8c0,0.2,0.1,0.4,0.2,0.4
	c0.1,0.1,0.2,0.1,0.3,0C5,37.1,5.2,37,5.3,36.8c0.1-0.2,0.3-0.4,0.4-0.6c0.1-0.1,0.1-0.3,0.2-0.4C6,35.6,6,35.4,6.1,35.3
	c0,0.1,0,0.2,0,0.2c0,0.1,0,0.1,0,0.2c0,0.2,0,0.3,0,0.4c0,0.2,0.1,0.3,0.1,0.4c0.1,0.1,0.2,0.1,0.3,0.1c0.1,0,0.3-0.1,0.4-0.3
	C7,36.2,7.1,36,7.2,35.8c0.1-0.1,0.1-0.2,0.2-0.4c0,0.1,0,0.2-0.1,0.3c0,0.1-0.1,0.3-0.1,0.6c0.2-0.1,0.4-0.1,0.6-0.2
	c0-0.1,0-0.2,0-0.3c0-0.1,0-0.2,0-0.3c0-0.1,0.1-0.3,0.1-0.5c0-0.2,0.1-0.4,0.2-0.7c0.1-0.2,0.1-0.4,0.2-0.6
	c0.1-0.2,0.2-0.3,0.3-0.4c0.1-0.1,0.2-0.1,0.2-0.1c0,0,0.1,0,0.1,0c0,0,0.1,0.1,0.1,0.1c0,0,0,0.1,0,0.1C9.1,33.7,9,34,9,34.2
	c-0.1,0.2-0.1,0.5-0.1,0.7c0,0.2,0,0.4,0,0.6c0,0.1,0.1,0.2,0.1,0.3c0.1,0.1,0.2,0.1,0.3,0.1c0.1,0,0.2-0.1,0.3-0.2
	c0.1-0.1,0.2-0.2,0.3-0.3c0.1-0.1,0.2-0.2,0.2-0.3c0.1-0.1,0.1-0.2,0.2-0.4c0,0.1,0,0.2,0,0.4c0,0.2,0.1,0.4,0.2,0.5
	c0.1,0.1,0.2,0.1,0.3,0.1c0.1,0,0.3-0.1,0.4-0.2c0.1-0.1,0.2-0.3,0.4-0.4c0.1-0.2,0.2-0.4,0.3-0.6c0.1-0.2,0.2-0.4,0.2-0.6
	c0,0.1,0,0.2-0.1,0.3c0,0.1,0,0.2,0,0.3c0,0.1,0,0.2,0,0.2c0,0.1,0,0.2,0,0.2c0,0.2,0.1,0.3,0.1,0.4c0.1,0.1,0.1,0.1,0.3,0.1
	c0.1,0,0.2,0,0.3-0.1c0.1-0.1,0.2-0.2,0.3-0.3c0.1-0.1,0.2-0.2,0.2-0.3c0.1-0.1,0.1-0.3,0.2-0.4c0.1-0.1,0.1-0.3,0.2-0.4
	c0-0.1,0-0.2,0-0.3c0-0.1,0-0.1-0.1-0.1c0,0,0,0.1-0.1,0.1c0,0.1-0.1,0.2-0.2,0.3c-0.1,0.1-0.1,0.3-0.2,0.4c0,0-0.1,0.1-0.1,0.2
	c-0.1,0.1-0.1,0.2-0.1,0.2c-0.1,0.1-0.1,0.1-0.2,0.1c-0.1,0-0.1-0.1-0.1-0.2c0-0.1,0-0.3,0-0.6c0-0.2,0.1-0.5,0.1-0.8
	c0.1-0.3,0.1-0.6,0.2-0.9c0.1-0.3,0.1-0.6,0.2-0.8c0.1-0.3,0.2-0.5,0.2-0.7c0.1-0.2,0.1-0.3,0.2-0.4C13.5,30.7,13.4,30.7,13.4,30.7z
	 M6.2,34.5c-0.1,0.2-0.2,0.2-0.3,0.5c-0.1,0.1-0.2,0.5-0.3,0.7c-0.1,0.2-0.2,0.3-0.2,0.4c-0.1,0.1-0.1,0.3-0.1,0.3c0,0,0,0-0.1,0
	C5,36.5,5,36.4,5,36.3c0-0.1,0-0.3,0-0.5c0-0.2,0.1-0.4,0.2-0.7c0.1-0.2,0.2-0.4,0.3-0.6c0.1-0.1,0.1-0.2,0.2-0.3
	c0.1-0.1,0.2-0.2,0.3-0.2c0.1,0,0.1,0,0.2,0c0.1,0,0.1,0.1,0.1,0.1C6.3,34.2,6.3,34.3,6.2,34.5z M12.1,33.3c0,0.1-0.1,0-0.2,0.1
	c0,0.1-0.1,0.2-0.1,0.3c-0.1,0.3-0.2,0.7-0.4,0.9c-0.1,0.2-0.2,0.4-0.3,0.4c0,0,0,0-0.1,0c-0.1,0-0.1-0.1-0.1-0.2c0-0.1,0-0.3,0-0.5
	c0-0.2,0.1-0.4,0.2-0.6c0.1-0.2,0.2-0.4,0.3-0.5c0.1-0.1,0.1-0.2,0.2-0.2c0.1-0.1,0.2-0.1,0.3-0.1c0.1,0,0.1,0,0.1,0
	c0,0,0.1,0,0.1,0.1C12.1,33.1,12.1,33.2,12.1,33.3z"/>
<path class="st1" d="M4.2,39.1c0-0.1,0-0.2,0-0.2c0-0.1,0-0.1,0-0.2c0-0.1,0-0.1,0-0.2c0-0.1,0.1-0.1,0.1-0.2c0,0,0.1-0.1,0.2-0.1
	c0.1-0.1,0.3-0.1,0.4-0.2c3.4-1.6,7.4-1.6,7.4-1.6c0.1,0,0.2,0,0.3,0c0.1,0,0.2,0,0.3,0c0.2,0,0.3,0.1,0.4,0.2
	c0.1,0.1,0.1,0.2,0.1,0.4c0,0.1-0.1,0.2-0.2,0.3c-0.1,0.1-0.3,0.2-0.4,0.3c-0.1,0.1-0.3,0.2-0.4,0.2c-0.2,0.1-0.3,0.1-0.5,0.2
	c-0.2,0.1-0.3,0.1-0.5,0.2c-0.1,0-0.2,0-0.3,0c-0.1,0-0.1,0-0.1-0.1c0,0,0,0,0.1,0c0.2,0,0.3-0.1,0.5-0.2c0.2-0.1,0.3-0.1,0.5-0.2
	c0,0,0.1-0.1,0.2-0.1c0.1-0.1,0.2-0.1,0.3-0.2c0.1-0.1,0.1-0.1,0.2-0.2c0-0.1,0-0.2-0.2-0.2c-0.2,0-0.4,0-0.6,0
	c-2.9,0.1-5,0.8-6.5,1.5c-0.3,0.1-0.5,0.3-0.8,0.4c-0.2,0.1-0.4,0.2-0.4,0.3C4.2,39.2,4.2,39.2,4.2,39.1z"/>
<path class="st1" d="M18.5,39.5c-0.1,0-0.3,0-0.4,0c-0.1,0-0.3,0-0.4,0c-0.6,0-1.1-0.1-1.6-0.2c-0.4-0.1-0.7-0.4-0.9-0.7
	c-0.2-0.3-0.3-0.7-0.3-1c0-0.4,0.1-0.8,0.3-1.2c0.2-0.4,0.5-0.7,0.9-1c0.2-0.2,0.5-0.3,0.8-0.4c0.3-0.1,0.6-0.2,1-0.2
	c-0.4-0.2-0.7-0.4-0.9-0.7c-0.2-0.3-0.3-0.6-0.3-0.9c0-0.1,0-0.2,0-0.2c0-0.1,0-0.2,0-0.2c0.1-0.3,0.2-0.6,0.5-0.9
	c0.2-0.3,0.5-0.5,0.8-0.7c0.2-0.1,0.4-0.2,0.7-0.3c0.3-0.1,0.6-0.1,0.9-0.2c0.3,0,0.6-0.1,0.8-0.1c0.3,0,0.6,0,0.9,0.1
	c0.3,0.1,0.5,0.2,0.7,0.4c0.2,0.2,0.3,0.5,0.3,0.9c0,0.3-0.1,0.6-0.2,0.8c-0.1,0.3-0.3,0.5-0.6,0.6c-0.2,0.2-0.5,0.3-0.8,0.3
	c-0.1,0-0.1,0-0.2,0c0,0-0.1,0-0.1,0c-0.3,0-0.5-0.1-0.7-0.2c-0.2-0.1-0.3-0.3-0.4-0.5c0,0,0-0.1,0-0.1c0,0,0-0.1,0-0.1
	c0-0.2,0.1-0.3,0.2-0.4c0.1,0.2,0.2,0.3,0.4,0.4c0.2,0.1,0.4,0.1,0.6,0.1c0.2,0,0.4-0.1,0.6-0.2c0.2-0.1,0.3-0.3,0.4-0.4
	c0.1-0.2,0.1-0.4,0.1-0.5c0-0.3-0.1-0.5-0.3-0.7c-0.2-0.2-0.5-0.3-1-0.3c-0.3,0-0.6,0.1-0.9,0.2c-0.3,0.1-0.5,0.3-0.8,0.5
	c-0.2,0.2-0.4,0.4-0.6,0.7c-0.2,0.4-0.3,0.7-0.3,1.1c0,0.3,0.1,0.5,0.2,0.8c0.1,0.2,0.3,0.4,0.6,0.5c0.1,0,0.1,0,0.2,0s0.1,0,0.1,0
	c0.1,0,0.1,0,0.2,0c0.1,0,0.2,0,0.3,0c0.1,0,0.3,0,0.4,0c0.1,0,0.3,0,0.4,0c0.2,0,0.3,0.1,0.3,0.2c0,0.1-0.1,0.2-0.2,0.2
	c-0.1,0.1-0.2,0.1-0.4,0.1c0,0,0,0-0.1,0c0,0-0.1,0-0.1,0c-0.2,0-0.5-0.1-0.7-0.1c-0.2-0.1-0.5-0.1-0.7-0.1c-0.1,0-0.1,0-0.2,0
	c-0.1,0-0.2,0-0.2,0c-0.3,0.1-0.6,0.2-0.9,0.4c-0.2,0.2-0.4,0.5-0.6,0.8c-0.1,0.3-0.2,0.6-0.2,0.9c0,0.3,0.1,0.6,0.2,0.8
	c0.1,0.3,0.3,0.5,0.6,0.6c0.3,0.2,0.7,0.2,1.1,0.2c0.3,0,0.7-0.1,1-0.2c0.3-0.1,0.6-0.2,0.9-0.4c0.3-0.2,0.5-0.4,0.6-0.6
	c0.2-0.2,0.3-0.5,0.3-0.7c0-0.2-0.1-0.3-0.2-0.4c-0.1-0.1-0.3-0.1-0.4-0.1c-0.2,0-0.4,0.1-0.5,0.2c-0.1,0-0.1,0-0.1-0.1
	c0,0,0-0.1,0-0.1c0-0.1,0-0.2,0.1-0.2c0.1-0.1,0.1-0.1,0.2-0.2c0.1-0.1,0.2-0.2,0.4-0.2c0.1,0,0.3-0.1,0.4-0.1
	c0.4,0,0.7,0.1,0.9,0.3c0.2,0.2,0.3,0.4,0.3,0.7c0,0.3-0.1,0.6-0.3,0.9c-0.2,0.3-0.4,0.5-0.7,0.7c-0.3,0.2-0.5,0.4-0.8,0.5
	c-0.3,0.1-0.6,0.2-0.9,0.3C19.1,39.4,18.8,39.5,18.5,39.5z"/>
<path class="st1" d="M47.3,36.9c-0.3-0.2-0.7-0.3-1.2-0.3c-0.6,0-1.1,0.1-1.5,0.3c-0.5,0.2-0.9,0.2-1.3,0.5
	c-0.2,0.1-0.4,0.3-0.7,0.6c-0.3,0.2-0.5,0.4-0.8,0.6c0.2-0.3,0.2-0.5,0.3-0.8c0.1-0.4,0.2-0.7,0.4-1.1c0.1-0.3,0.2-0.6,0.3-0.9
	c0.1-0.3,0.2-0.6,0.3-0.8c0.1-0.3,0.3-0.6,0.4-0.9c0.1-0.3,0.3-0.4,0.4-0.5h-0.5c-0.3,0-0.5,0-0.6,0.1c-0.2,0.1-0.3,0.1-0.4,0.2
	c-0.1,0.1-0.2,0.3-0.2,0.4c-0.1,0.2-0.2,0.4-0.3,0.6c-0.2,0.4-0.4,0.9-0.7,1.3c-0.3,0.4-0.6,0.7-0.9,1c-0.2,0.2-0.4,0.3-0.5,0.3
	c-0.1,0-0.1,0-0.2-0.1c0-0.1-0.1-0.2-0.1-0.3c0-0.2,0-0.4,0.1-0.6c0.1-0.2,0.1-0.5,0.2-0.6c0.1-0.3,0.2-0.5,0.4-0.8
	c0.1-0.3,0.3-0.5,0.5-0.8c0.2-0.2,0.3-0.4,0.4-0.5c0,0,0.1-0.1,0.1-0.1c0,0,0,0,0,0c-0.4,0-0.7,0-1,0.1c-0.3,0.1-0.5,0.3-0.7,0.6
	c-0.1,0.2-0.3,0.5-0.4,0.7c0,0.1-0.1,0.2-0.1,0.3c-0.1,0.2-0.3,0.3-0.4,0.5c-0.1,0.2-0.3,0.4-0.5,0.6c-0.2,0.2-0.3,0.5-0.4,0.6
	c-0.2,0.1-0.3,0.2-0.4,0.2c-0.2,0-0.3-0.1-0.3-0.4c0-0.1,0-0.3,0-0.4c0-0.2,0.1-0.5,0.2-0.8c0.1-0.3,0.2-0.6,0.3-0.9
	c0.1-0.3,0.2-0.6,0.3-0.9h1c0.1,0,0.1,0,0.2-0.1c0.1-0.1,0.1-0.1,0.1-0.2c0-0.1,0-0.1,0-0.1h-1.2c0.3-0.6,0.5-1.1,0.7-1.4
	c0.2-0.3,0.4-0.5,0.6-0.7c0,0-0.1,0-0.2,0c-0.1,0-0.2,0-0.3,0c-0.2,0-0.4,0.1-0.6,0.2c-0.2,0.1-0.3,0.3-0.5,0.5
	c-0.1,0.2-0.3,0.4-0.4,0.7c-0.1,0.2-0.2,0.5-0.3,0.7h-0.9c0,0-0.1,0-0.1,0.1c0,0.1-0.1,0.1-0.1,0.2c0,0.1,0,0.1,0,0.1h0.8
	c-0.1,0.2-0.2,0.4-0.3,0.7c-0.1,0.2-0.2,0.5-0.3,0.7c0,0,0,0-0.1,0.1c-0.1,0.2-0.2,0.4-0.4,0.6c-0.1,0.2-0.3,0.5-0.4,0.7
	c-0.1,0.2-0.3,0.3-0.5,0.5c-0.1,0.1-0.2,0.1-0.3,0.2c-0.1,0-0.1,0.1-0.2,0.1c-0.1,0-0.2-0.1-0.2-0.3c0-0.1,0-0.1,0-0.2
	c0-0.1,0-0.1,0-0.2c0.1-0.4,0.2-0.8,0.4-1.2c0.2-0.4,0.4-0.8,0.6-1.2c0-0.1,0.1-0.1,0.1-0.2c0.1-0.1,0.1-0.2,0.2-0.3
	c0.1-0.1,0.1-0.2,0.2-0.2c-0.1,0-0.2,0-0.3,0c-0.2,0-0.3,0-0.4,0c-0.2,0-0.3,0.1-0.5,0.2c-0.2,0.1-0.3,0.3-0.4,0.5
	c-0.1,0.2-0.2,0.4-0.3,0.6c-0.1,0.2-0.2,0.4-0.2,0.5c0,0.1,0,0.1-0.1,0.2c-0.1,0.2-0.2,0.3-0.3,0.4c-0.1,0.2-0.4,0.4-0.5,0.6
	c-0.1,0.2-0.2,0.5-0.4,0.6c-0.2,0.2-0.4,0.2-0.5,0.2c-0.2,0-0.2-0.1-0.2-0.4c0-0.1,0-0.2,0.1-0.4c0.1-0.4,0.2-0.8,0.4-1.2
	c0.2-0.4,0.4-0.8,0.6-1.2c0-0.1,0.1-0.1,0.1-0.2c0.1-0.1,0.1-0.2,0.2-0.3c0.1-0.1,0.1-0.2,0.2-0.2c0,0-0.1,0-0.2,0
	c-0.1,0-0.2,0-0.3,0c-0.1,0-0.2,0-0.3,0c-0.2,0-0.3,0.1-0.5,0.2c-0.1,0.1-0.3,0.3-0.4,0.5c-0.1,0.1-0.2,0.4-0.3,0.6
	c-0.1,0.3-0.3,0.6-0.5,0.9c-0.2,0.3-0.3,0.6-0.5,0.9c-0.2,0.3-0.4,0.4-0.6,0.6c-0.2,0.2-0.2,0.4-0.4,0.4c-0.1,0-0.2,0-0.3-0.1
	c0-0.1-0.1-0.2-0.1-0.3c0-0.1,0-0.3,0.1-0.5c0-0.2,0.1-0.3,0.1-0.5c0-0.1,0.1-0.2,0.1-0.3c0.1-0.2,0.2-0.4,0.3-0.7
	c0.1-0.3,0.3-0.6,0.4-0.8c0.1-0.3,0.3-0.5,0.4-0.7h-0.6c-0.2,0-0.4,0-0.5,0c-0.1,0-0.2,0.1-0.3,0.2c-0.2,0.2-0.3,0.5-0.4,0.8
	c-0.1,0.3-0.3,0.6-0.4,0.9c-0.1,0.3-0.2,0.6-0.3,0.9c0,0.1,0,0.2-0.1,0.3c-0.1,0.1-0.2,0.2-0.3,0.3c-0.1,0.1-0.2,0.2-0.3,0.3
	c-0.1,0-0.1,0.1-0.2,0.1c-0.1,0-0.1,0-0.1,0c-0.1,0-0.2,0-0.2-0.1c-0.1-0.1-0.1-0.2-0.1-0.4c0.1-0.3,0.2-0.5,0.3-0.8
	c0.1-0.3,0.2-0.5,0.3-0.8c0.1-0.2,0.2-0.5,0.3-0.7c0.1-0.3,0.3-0.5,0.4-0.7c0.1-0.2,0.3-0.3,0.4-0.4h-0.4c-0.4,0-0.6,0-0.8,0.1
	c-0.2,0.1-0.3,0.3-0.4,0.5c-0.1-0.3-0.2-0.4-0.5-0.5c-0.2-0.1-0.4-0.1-0.6-0.1c-0.4,0-0.8,0.1-1.2,0.3c-0.4,0.2-0.7,0.5-0.9,0.9
	c-0.3,0.4-0.5,0.8-0.6,1.2c-0.1,0.4-0.2,0.9-0.2,1.3c0,0.4,0.1,0.7,0.2,0.8c0.2,0.2,0.3,0.2,0.6,0.2c0.3,0,0.6-0.1,0.8-0.3
	c0.3-0.2,0.5-0.5,0.8-0.8c0.2-0.2,0.3-0.4,0.5-0.7c0.2-0.3,0.3-0.5,0.4-0.8c-0.2,0.5-0.3,1-0.5,1.5c-0.2,0.5-0.4,1-0.5,1.5
	c-0.2,0.5-0.4,1.2-0.6,1.5c-0.1,0.2-0.2,0.4-0.3,0.6c-0.1,0.2-0.2,0.4-0.3,0.5c0.1,0,0.2,0,0.2,0c0.1,0,0.1,0,0.2,0
	c0.3,0,0.5-0.1,0.7-0.2c0,0,0,0,0,0c0.2-0.1,0.3-0.3,0.4-0.3c0.4-0.3,0.7-0.5,1-0.8c0.3-0.2,0.6-0.3,1-0.5c0.4-0.1,0.7-0.2,1.1-0.2
	c0.4,0,0.8,0.1,1,0.2c0.2,0.2,0.4,0.4,0.4,0.6c0,0.2-0.1,0.4-0.2,0.6c-0.2,0.2-0.4,0.4-0.7,0.6c0,0-0.1,0.1-0.1,0.1
	c0,0,0,0.1,0.1,0.1c0,0,0,0,0,0c0,0,0,0,0,0c0.2-0.1,0.4-0.2,0.6-0.3c0.2-0.1,0.4-0.3,0.5-0.4c0.2-0.2,0.3-0.3,0.3-0.5
	c0-0.1,0.1-0.3,0-0.4c0-0.3-0.2-0.6-0.4-0.8c-0.3-0.2-0.7-0.3-1.2-0.3c-0.6,0-1.1,0.1-1.5,0.3c-0.5,0.2-0.9,0.3-1.3,0.6
	c-0.2,0.1-0.3,0.2-0.6,0.5c0.1-0.5,0.3-1,0.4-1.4c0.1-0.4,0.2-0.9,0.4-1.3c0.1,0.2,0.2,0.3,0.4,0.3c0.2,0,0.3-0.1,0.5-0.2
	c0.2-0.1,0.3-0.2,0.5-0.4c0,0.3,0.1,0.5,0.2,0.6c0.1,0.2,0.3,0.3,0.5,0.3c0.2,0,0.4,0,0.6-0.1c0.2-0.1,0.5-0.3,0.8-0.6
	c0.1-0.1,0.3-0.3,0.4-0.4c0.1-0.1,0.3-0.3,0.4-0.5c0,0.1,0,0.2,0,0.3c0,0.1,0,0.2,0,0.3c0,0.3,0,0.5,0.1,0.7
	c0.1,0.1,0.1,0.2,0.2,0.3c0.1,0,0.2,0.1,0.3,0.1c0.2,0,0.4-0.1,0.6-0.2c0.2-0.1,0.4-0.3,0.6-0.5c0.2-0.2,0.3-0.3,0.4-0.5
	c0.1-0.2,0.3-0.4,0.4-0.6C33,36.7,33,37,33,37.2c0,0.3,0,0.5,0.1,0.7c0.1,0.1,0.1,0.2,0.2,0.3c0.1,0,0.2,0.1,0.3,0.1
	c0.2,0,0.4-0.1,0.6-0.2c0.2-0.1,0.4-0.3,0.6-0.5c0.2-0.2,0.3-0.3,0.4-0.5c0.2-0.2,0.3-0.4,0.5-0.7c0-0.1,0.1-0.1,0.1-0.2
	c0,0,0.1-0.1,0.1-0.1c0-0.1,0.1-0.2,0.2-0.3c0.1-0.1,0.2-0.3,0.2-0.4v0c-0.1,0.2-0.1,0.3-0.2,0.5c-0.1,0.2-0.1,0.4-0.1,0.6
	c0,0.1,0,0.3-0.1,0.4c0,0.1,0,0.3,0,0.4c0,0.1,0,0.2,0,0.4s0.1,0.2,0.1,0.3c0.1,0.2,0.3,0.3,0.5,0.3c0.2,0,0.4-0.1,0.6-0.2
	c0.2-0.1,0.4-0.3,0.6-0.5c0.2-0.2,0.3-0.3,0.4-0.5c0.1-0.2,0.3-0.4,0.4-0.6c0,0.1,0,0.1,0,0.2c0,0.2-0.1,0.4-0.1,0.6
	c0,0.3,0.1,0.6,0.2,0.7c0.1,0.2,0.3,0.2,0.5,0.2c0.2,0,0.4,0,0.6-0.1c0.2-0.1,0.5-0.3,0.8-0.6c0,0,0.1-0.1,0.3-0.3
	c0.2-0.2,0.3-0.4,0.4-0.5c-0.1,0.2-0.2,0.5-0.3,0.8c-0.1,0.3-0.2,0.6-0.3,0.9c-0.1,0.3-0.3,0.6-0.4,0.9c-0.2,0.3-0.4,0.5-0.6,0.7
	c-0.1,0.1-0.3,0.2-0.4,0.2c-0.1,0.1-0.3,0.1-0.4,0.1c-0.1,0-0.2,0-0.3-0.1c-0.1-0.1-0.1-0.2-0.1-0.3c0-0.1,0-0.2,0.1-0.4
	c0,0,0-0.1,0.1-0.1c0,0,0.1-0.1,0.1-0.1C38.7,39,38.6,39,38.4,39c0,0,0,0-0.1,0s0,0-0.1,0c-0.2,0-0.3,0.2-0.4,0.3
	c-0.1,0.2-0.1,0.3-0.1,0.5c0,0.3,0.1,0.5,0.3,0.6c0.2,0.1,0.5,0.2,0.7,0.2c0,0,0.1,0,0.1,0c0,0,0.1,0,0.1,0c0.4,0,0.8-0.2,1.2-0.4
	c0.4-0.2,0.8-0.5,1.2-0.8c0.4-0.3,0.8-0.6,1.2-0.9c0.4-0.3,0.7-0.5,1.1-0.7c0.3-0.2,0.6-0.3,1-0.4c0.4-0.1,0.7-0.2,1.1-0.2
	c0.4,0,0.8,0.1,1,0.3c0.2,0.2,0.3,0.4,0.3,0.7c0,0.2-0.1,0.4-0.2,0.6c-0.2,0.2-0.4,0.4-0.7,0.5c0,0-0.1,0.1-0.1,0.1
	c0,0,0,0.1,0.1,0.1c0,0,0,0,0,0c0,0,0,0,0,0c0.2-0.1,0.4-0.1,0.6-0.3c0.2-0.1,0.4-0.3,0.5-0.4c0.2-0.2,0.3-0.3,0.3-0.5
	c0-0.1,0.1-0.3,0.1-0.4C47.7,37.5,47.6,37.2,47.3,36.9z M26.1,35c-0.2,0.3-0.4,0.6-0.6,1c-0.1,0.2-0.3,0.4-0.5,0.6
	c-0.2,0.2-0.3,0.4-0.5,0.5c-0.2,0.1-0.3,0.2-0.5,0.2c0,0-0.1,0-0.1,0c-0.1,0-0.2-0.2-0.2-0.4c0-0.2,0.1-0.5,0.2-0.8
	c0.1-0.3,0.3-0.6,0.4-1c0.2-0.3,0.4-0.6,0.6-0.8c0.1-0.1,0.3-0.2,0.5-0.3c0.2-0.1,0.4-0.1,0.6-0.1c0.1,0,0.2,0,0.3,0.1
	c0.1,0.1,0.2,0.1,0.2,0.3l-0.1,0.2C26.4,34.6,26.3,34.8,26.1,35z"/>
<path class="st8" d="M13.2,30.5c-0.1,0-0.1,0-0.2,0c-0.1,0-0.1,0-0.1,0c0,0-0.1,0-0.1,0c0,0-0.1,0-0.1,0.1c0,0-0.1,0.1-0.1,0.2
	c0,0.1-0.1,0.2-0.1,0.4c0,0.1-0.1,0.3-0.1,0.5c0,0.2-0.1,0.5-0.2,0.7c0,0,0,0.1,0,0.1c0,0,0,0.1,0,0.1c-0.1-0.1-0.2-0.2-0.3-0.2
	c-0.1,0-0.2,0-0.3,0c-0.2,0-0.4,0.1-0.6,0.3c-0.2,0.2-0.3,0.4-0.4,0.6c-0.1,0.2-0.1,0.4-0.2,0.5c0,0.1-0.1,0.2-0.1,0.3
	c-0.1,0.2-0.1,0.3-0.2,0.4c-0.1,0.1-0.1,0.2-0.2,0.3C9.6,34.9,9.5,35,9.4,35c-0.1,0-0.1,0-0.1-0.1c0-0.1,0-0.2,0-0.3
	c0-0.1,0-0.3,0.1-0.4c0-0.2,0.1-0.3,0.1-0.4c0-0.1,0.1-0.3,0.1-0.3c0-0.1,0-0.1,0-0.2c0-0.1,0-0.1,0-0.1c0-0.3-0.2-0.4-0.4-0.3
	c-0.1,0-0.2,0.1-0.3,0.1c-0.1,0.1-0.2,0.1-0.3,0.2c-0.1,0.1-0.2,0.2-0.3,0.3c-0.1,0.1-0.1,0.1-0.2,0.2c0,0,0-0.1,0-0.2
	c0-0.1,0-0.1,0-0.2c0-0.1,0-0.1-0.1-0.2c0,0-0.1,0-0.1,0c-0.1,0-0.1,0-0.2,0c0,0-0.1,0-0.1,0c0,0-0.1,0-0.1,0c0,0,0,0,0,0.1
	c0,0.1,0,0.2,0,0.4c0,0.1,0,0.3-0.1,0.4c0,0.1,0,0.2,0,0.2c0,0,0,0,0,0c-0.1,0.2-0.1,0.4-0.2,0.6c-0.1,0.2-0.2,0.4-0.3,0.6
	c-0.1,0.1-0.2,0.2-0.2,0.2c-0.1,0-0.1,0-0.1-0.1c0,0,0-0.1,0-0.1c0,0,0-0.1,0-0.1c0-0.2,0.1-0.5,0.1-0.8c0.1-0.3,0.1-0.5,0.2-0.8
	c0,0,0-0.1,0.1-0.2c0-0.1,0.1-0.1,0.1-0.2c0-0.1,0.1-0.1,0.1-0.1c0,0-0.1,0-0.2,0.1c-0.1,0-0.2,0-0.2,0.1c-0.1,0-0.2,0.1-0.2,0.2
	c-0.1,0.1-0.1,0.2-0.2,0.3c0,0,0,0,0,0c0,0,0,0,0,0c0-0.1-0.1-0.2-0.2-0.2c-0.1,0-0.2-0.1-0.3,0c-0.1,0-0.2,0-0.2,0.1
	c-0.2,0.1-0.4,0.2-0.6,0.4c-0.2,0.2-0.3,0.5-0.4,0.7c-0.1,0.3-0.2,0.6-0.2,0.8c0,0.3-0.1,0.5,0,0.8c0,0.2,0.1,0.4,0.2,0.4
	c0.1,0.1,0.2,0.1,0.3,0c0.1-0.1,0.3-0.2,0.4-0.4c0.1-0.2,0.3-0.4,0.4-0.6c0.1-0.1,0.1-0.3,0.2-0.4c0.1-0.2,0.1-0.3,0.2-0.5
	c0,0.1,0,0.2,0,0.2c0,0.1,0,0.1,0,0.2c0,0.2,0,0.3,0,0.4c0,0.2,0.1,0.3,0.1,0.4c0.1,0.1,0.2,0.1,0.3,0.1c0.1,0,0.3-0.1,0.4-0.3
	C6.8,36,6.9,35.8,7,35.6c0.1-0.1,0.1-0.2,0.2-0.4c0,0.1,0,0.2-0.1,0.3c0,0.1-0.1,0.3-0.1,0.6c0.2-0.1,0.4-0.1,0.6-0.2
	c0-0.1,0-0.2,0-0.3c0-0.1,0-0.2,0-0.3c0-0.1,0.1-0.3,0.1-0.5c0-0.2,0.1-0.4,0.2-0.7c0.1-0.2,0.1-0.4,0.2-0.6
	c0.1-0.2,0.2-0.3,0.3-0.4c0.1-0.1,0.2-0.1,0.2-0.1c0,0,0.1,0,0.1,0c0,0,0.1,0.1,0.1,0.1c0,0,0,0.1,0,0.1c0,0.2-0.1,0.4-0.1,0.6
	c-0.1,0.2-0.1,0.5-0.1,0.7c0,0.2,0,0.4,0,0.6c0,0.1,0.1,0.2,0.1,0.3c0.1,0.1,0.2,0.1,0.3,0.1c0.1,0,0.2-0.1,0.3-0.2
	c0.1-0.1,0.2-0.2,0.3-0.3c0.1-0.1,0.2-0.2,0.2-0.3c0.1-0.1,0.1-0.2,0.2-0.4c0,0.1,0,0.2,0,0.4c0,0.2,0.1,0.4,0.2,0.5
	c0.1,0.1,0.2,0.1,0.3,0.1c0.1,0,0.3-0.1,0.4-0.2c0.1-0.1,0.2-0.3,0.4-0.4c0.1-0.2,0.2-0.4,0.3-0.6c0.1-0.2,0.2-0.4,0.2-0.6
	c0,0.1,0,0.2-0.1,0.3c0,0.1,0,0.2,0,0.3c0,0.1,0,0.2,0,0.2c0,0.1,0,0.2,0,0.2c0,0.2,0.1,0.3,0.1,0.4c0.1,0.1,0.2,0.2,0.3,0.2
	c0.1,0,0.2,0,0.3-0.1c0.1-0.1,0.2-0.2,0.3-0.3c0.1-0.1,0.2-0.2,0.2-0.3c0.1-0.1,0.1-0.3,0.2-0.4c0.1-0.1,0.1-0.3,0.2-0.4
	c0-0.1,0-0.2,0-0.3c0-0.1,0-0.1-0.1-0.1c0,0,0,0,0,0.1c0,0.1-0.1,0.3-0.2,0.4C13.1,34,13,34.1,13,34.2c0,0-0.1,0.1-0.1,0.2
	c-0.1,0.1-0.1,0.1-0.2,0.2c-0.1,0.1-0.1,0.1-0.2,0.1c-0.1,0-0.1-0.1-0.1-0.2c0-0.1,0-0.3,0-0.6c0-0.2,0.1-0.5,0.1-0.8
	c0.1-0.3,0.1-0.6,0.2-0.9c0.1-0.3,0.1-0.6,0.2-0.8c0.1-0.3,0.2-0.5,0.2-0.7c0.1-0.2,0.1-0.3,0.2-0.4C13.3,30.5,13.3,30.5,13.2,30.5z
	 M6.1,34.3c-0.1,0.2-0.2,0.5-0.3,0.9c-0.1,0.1-0.1,0.3-0.2,0.4c-0.1,0.2-0.2,0.3-0.3,0.4c-0.1,0.1-0.2,0.2-0.3,0.2c0,0,0,0-0.1,0
	c-0.1,0-0.1-0.1-0.1-0.2c0-0.1,0-0.3,0-0.5c0-0.2,0.1-0.4,0.2-0.7c0.1-0.2,0.2-0.4,0.3-0.6c0.1-0.1,0.1-0.2,0.2-0.3
	c0.1-0.1,0.2-0.2,0.3-0.2c0.1,0,0.1,0,0.2,0c0.1,0,0.1,0.1,0.1,0.1C6.2,34,6.1,34.1,6.1,34.3z M11.9,33.1c0,0.1-0.1,0.3-0.1,0.4
	c0,0.1-0.1,0.2-0.1,0.3c-0.1,0.3-0.3,0.6-0.4,0.7c-0.1,0.2-0.3,0.3-0.4,0.3c0,0,0,0-0.1,0c-0.1,0-0.1-0.1-0.1-0.2c0-0.1,0-0.3,0-0.5
	c0-0.2,0.1-0.4,0.2-0.6c0.1-0.2,0.2-0.4,0.3-0.5c0.1-0.1,0.1-0.2,0.2-0.2c0.1-0.1,0.2-0.1,0.3-0.1c0.1,0,0.1,0,0.1,0
	c0,0,0.1,0,0.1,0.1C12,32.9,12,33,11.9,33.1z"/>
<path class="st8" d="M4.3,38.8c0-0.1,0-0.2,0-0.2c0-0.1,0-0.1,0-0.2c0-0.1,0-0.1,0-0.2c0-0.1,0.1-0.1,0.1-0.2c0,0,0.1-0.1,0.2-0.1
	c0.1-0.1,0.3-0.1,0.4-0.2c3.4-1.6,7.4-1.6,7.4-1.6c0.1,0,0.2,0,0.3,0c0.1,0,0.2,0,0.3,0c0.2,0,0.3,0.1,0.4,0.2
	c0.1,0.1,0.1,0.2,0.1,0.4c0,0.1-0.1,0.2-0.2,0.3c-0.1,0.1-0.3,0.2-0.4,0.3c-0.1,0.1-0.3,0.2-0.4,0.2c-0.2,0.1-0.3,0.1-0.5,0.2
	c-0.2,0.1-0.3,0.1-0.5,0.2c-0.1,0-0.2,0-0.3,0c-0.1,0-0.1,0-0.1-0.1c0,0,0,0,0.1,0c0.2,0,0.3-0.1,0.5-0.2c0.2-0.1,0.3-0.1,0.5-0.2
	c0,0,0.1-0.1,0.2-0.1c0.1-0.1,0.2-0.1,0.3-0.2c0.1-0.1,0.1-0.1,0.2-0.2c0-0.1,0-0.2-0.2-0.2c-0.2,0-0.4,0-0.6,0
	c-2.9,0.1-5,0.8-6.5,1.5c-0.3,0.1-0.5,0.3-0.8,0.4c-0.2,0.1-0.4,0.2-0.4,0.3C4.2,38.9,4.3,38.9,4.3,38.8z"/>
<path class="st8" d="M5.8,29.2c-0.1,0-0.3,0-0.4,0c-0.1,0-0.3,0-0.4,0c-0.6,0-1.1-0.1-1.6-0.2c-0.4-0.1-0.7-0.4-0.9-0.7
	c-0.2-0.3-0.3-0.7-0.3-1c0-0.4,0.1-0.8,0.3-1.2c0.2-0.4,0.5-0.7,0.9-1c0.2-0.2,0.5-0.3,0.8-0.4c0.3-0.1,0.6-0.2,1-0.2
	c-0.4-0.2-0.7-0.4-0.9-0.7C4.1,23.5,4,23.2,4,22.9c0-0.1,0-0.2,0-0.2c0-0.1,0-0.2,0-0.2c0.1-0.3,0.2-0.6,0.5-0.9
	c0.2-0.3,0.5-0.5,0.8-0.7c0.2-0.1,0.4-0.2,0.7-0.3c0.3-0.1,0.6-0.1,0.9-0.2c0.3,0,0.6-0.1,0.8-0.1c0.3,0,0.6,0,0.9,0.1
	c0.3,0.1,0.5,0.2,0.7,0.4c0.2,0.2,0.3,0.5,0.3,0.9c0,0.3-0.1,0.6-0.2,0.8C9.4,22.8,9.2,23,9,23.2c-0.2,0.2-0.5,0.3-0.8,0.3
	c-0.1,0-0.1,0-0.2,0c0,0-0.1,0-0.1,0c-0.3,0-0.5-0.1-0.7-0.2c-0.2-0.1-0.3-0.3-0.4-0.5c0,0,0-0.1,0-0.1c0,0,0-0.1,0-0.1
	c0-0.2,0.1-0.3,0.2-0.4c0.1,0.2,0.2,0.3,0.4,0.4c0.2,0.1,0.4,0.1,0.6,0.1c0.2,0,0.4-0.1,0.6-0.2c0.2-0.1,0.3-0.3,0.4-0.4
	c0.1-0.2,0.1-0.4,0.1-0.5c0-0.3-0.1-0.5-0.3-0.7c-0.2-0.2-0.5-0.3-1-0.3c-0.3,0-0.6,0.1-0.9,0.2c-0.3,0.1-0.5,0.3-0.8,0.5
	c-0.2,0.2-0.4,0.4-0.6,0.7c-0.2,0.4-0.3,0.7-0.3,1.1c0,0.3,0.1,0.5,0.2,0.8c0.1,0.2,0.3,0.4,0.6,0.5c0.1,0,0.1,0,0.2,0
	c0,0,0.1,0,0.1,0c0.1,0,0.1,0,0.2,0c0.1,0,0.2,0,0.3,0c0.1,0,0.3,0,0.4,0c0.1,0,0.3,0,0.4,0c0.2,0,0.3,0.1,0.3,0.2
	c0,0.1-0.1,0.2-0.2,0.2c-0.1,0.1-0.2,0.1-0.4,0.1c0,0,0,0-0.1,0c0,0-0.1,0-0.1,0C7,25,6.8,25,6.6,24.9c-0.2-0.1-0.5-0.1-0.7-0.1
	c-0.1,0-0.1,0-0.2,0c-0.1,0-0.2,0-0.2,0C5,25,4.7,25.1,4.5,25.4c-0.2,0.2-0.4,0.5-0.6,0.8c-0.1,0.3-0.2,0.6-0.2,0.9
	c0,0.3,0.1,0.6,0.2,0.8c0.1,0.3,0.3,0.5,0.6,0.6c0.3,0.2,0.7,0.2,1.1,0.2c0.3,0,0.7-0.1,1-0.2c0.3-0.1,0.6-0.2,0.9-0.4
	C7.8,28,8,27.8,8.2,27.6c0.2-0.2,0.3-0.5,0.3-0.7c0-0.2-0.1-0.3-0.2-0.4c-0.1-0.1-0.3-0.1-0.4-0.1c-0.2,0-0.4,0.1-0.5,0.2
	c-0.1,0-0.1,0-0.1-0.1c0,0,0-0.1,0-0.1c0-0.1,0-0.2,0.1-0.2c0.1-0.1,0.1-0.1,0.2-0.2c0.1-0.1,0.2-0.2,0.4-0.2c0.1,0,0.3-0.1,0.4-0.1
	c0.4,0,0.7,0.1,0.9,0.3c0.2,0.2,0.3,0.4,0.3,0.7c0,0.3-0.1,0.6-0.3,0.9c-0.2,0.3-0.4,0.5-0.7,0.7c-0.3,0.2-0.5,0.4-0.8,0.5
	C7.4,28.8,7.1,29,6.8,29C6.5,29.1,6.2,29.2,5.8,29.2z"/>
<path class="st8" d="M18.3,39.2c-0.1,0-0.3,0-0.4,0c-0.1,0-0.3,0-0.4,0c-0.6,0-1.1-0.1-1.6-0.2c-0.4-0.1-0.7-0.4-0.9-0.7
	c-0.2-0.3-0.3-0.7-0.3-1c0-0.4,0.1-0.8,0.3-1.2c0.2-0.4,0.5-0.7,0.9-1c0.2-0.2,0.5-0.3,0.8-0.4c0.3-0.1,0.6-0.2,1-0.2
	c-0.4-0.2-0.7-0.4-0.9-0.7c-0.2-0.3-0.3-0.6-0.3-0.9c0-0.1,0-0.2,0-0.2c0-0.1,0-0.2,0-0.2c0.1-0.3,0.2-0.6,0.5-0.9
	c0.2-0.3,0.5-0.5,0.8-0.7c0.2-0.1,0.4-0.2,0.7-0.3c0.3-0.1,0.6-0.1,0.9-0.2c0.3,0,0.6-0.1,0.8-0.1c0.3,0,0.6,0,0.9,0.1
	c0.3,0.1,0.5,0.2,0.7,0.4c0.2,0.2,0.3,0.5,0.3,0.9c0,0.3-0.1,0.6-0.2,0.8c-0.1,0.3-0.3,0.5-0.6,0.6c-0.2,0.2-0.5,0.3-0.8,0.3
	c-0.1,0-0.1,0-0.2,0c0,0-0.1,0-0.1,0c-0.3,0-0.5-0.1-0.7-0.2c-0.2-0.1-0.3-0.3-0.4-0.5c0,0,0-0.1,0-0.1c0,0,0-0.1,0-0.1
	c0-0.2,0.1-0.3,0.2-0.4c0.1,0.2,0.2,0.3,0.4,0.4c0.2,0.1,0.4,0.1,0.6,0.1c0.2,0,0.4-0.1,0.6-0.2c0.2-0.1,0.3-0.3,0.4-0.4
	c0.1-0.2,0.1-0.4,0.1-0.5c0-0.3-0.1-0.5-0.3-0.7c-0.2-0.2-0.5-0.3-1-0.3c-0.3,0-0.6,0.1-0.9,0.2c-0.3,0.1-0.5,0.3-0.8,0.5
	c-0.2,0.2-0.4,0.4-0.6,0.7c-0.2,0.4-0.3,0.7-0.3,1.1c0,0.3,0.1,0.5,0.2,0.8c0.1,0.2,0.3,0.4,0.6,0.5c0.1,0,0.1,0,0.2,0s0.1,0,0.1,0
	c0.1,0,0.1,0,0.2,0c0.1,0,0.2,0,0.3,0c0.1,0,0.3,0,0.4,0c0.1,0,0.3,0,0.4,0c0.2,0,0.3,0.1,0.3,0.2c0,0.1-0.1,0.2-0.2,0.2
	c-0.1,0.1-0.2,0.1-0.4,0.1c0,0,0,0-0.1,0c0,0-0.1,0-0.1,0c-0.2,0-0.5-0.1-0.7-0.1c-0.2-0.1-0.5-0.1-0.7-0.1c-0.1,0-0.1,0-0.2,0
	c-0.1,0-0.2,0-0.2,0c-0.3,0.1-0.6,0.2-0.9,0.4c-0.2,0.2-0.4,0.5-0.6,0.8c-0.1,0.3-0.2,0.6-0.2,0.9c0,0.3,0.1,0.6,0.2,0.8
	c0.1,0.3,0.3,0.5,0.6,0.6c0.3,0.2,0.7,0.2,1.1,0.2c0.3,0,0.7-0.1,1-0.2c0.3-0.1,0.6-0.2,0.9-0.4c0.3-0.2,0.5-0.4,0.6-0.6
	c0.2-0.2,0.3-0.5,0.3-0.7c0-0.2-0.1-0.3-0.2-0.4c-0.1-0.1-0.3-0.1-0.4-0.1c-0.2,0-0.4,0.1-0.5,0.2c-0.1,0-0.1,0-0.1-0.1
	c0,0,0-0.1,0-0.1c0-0.1,0-0.2,0.1-0.2c0.1-0.1,0.1-0.1,0.2-0.2c0.1-0.1,0.2-0.2,0.4-0.2c0.1,0,0.3-0.1,0.4-0.1
	c0.4,0,0.7,0.1,0.9,0.3c0.2,0.2,0.3,0.4,0.3,0.7c0,0.3-0.1,0.6-0.3,0.9c-0.2,0.3-0.4,0.5-0.7,0.7c-0.3,0.2-0.5,0.4-0.8,0.5
	c-0.3,0.1-0.6,0.2-0.9,0.3C19,39.1,18.6,39.2,18.3,39.2z"/>
<path class="st8" d="M35.5,32.1c0-0.1,0.1-0.2,0.2-0.3c0.1-0.1,0.2-0.2,0.3-0.3c0.1-0.1,0.2-0.1,0.3-0.1c0.1-0.1,0.2-0.2,0.2-0.4
	c0-0.1,0-0.2-0.1-0.3c-0.1-0.1-0.2-0.1-0.3-0.1c0,0-0.1,0-0.1,0c0,0-0.1,0-0.1,0c-0.2,0.1-0.3,0.2-0.5,0.4c-0.1,0.2-0.2,0.4-0.2,0.6
	C35.2,31.9,35.3,32.1,35.5,32.1z"/>
<path class="st8" d="M47.1,36.6c-0.3-0.2-0.7-0.3-1.2-0.3c-0.6,0-1.1,0.1-1.5,0.3c-0.5,0.2-0.9,0.4-1.3,0.7
	c-0.2,0.1-0.4,0.3-0.7,0.6c-0.3,0.2-0.6,0.5-0.9,0.7c0.2-0.3,0.3-0.7,0.4-1.1c0.1-0.4,0.2-0.7,0.4-1.1c0.1-0.3,0.2-0.6,0.3-0.9
	c0.1-0.3,0.2-0.6,0.3-0.8c0.1-0.3,0.3-0.6,0.4-0.9c0.1-0.3,0.3-0.4,0.4-0.5h-0.5c-0.3,0-0.5,0-0.6,0.1c-0.2,0.1-0.3,0.1-0.4,0.2
	c-0.1,0.1-0.2,0.3-0.2,0.4c-0.1,0.2-0.2,0.4-0.3,0.6c-0.2,0.4-0.4,0.9-0.7,1.3c-0.3,0.4-0.6,0.7-0.9,1c-0.2,0.2-0.4,0.3-0.5,0.3
	c-0.1,0-0.1,0-0.2-0.1c0-0.1-0.1-0.2-0.1-0.3c0-0.2,0-0.4,0.1-0.6c0.1-0.2,0.1-0.5,0.2-0.6c0.1-0.3,0.2-0.5,0.4-0.8
	c0.1-0.3,0.3-0.5,0.5-0.8c0.2-0.2,0.3-0.4,0.4-0.5c0,0,0.1-0.1,0.1-0.1c0,0,0,0,0,0c-0.4,0-0.7,0-1,0.1c-0.3,0.1-0.5,0.3-0.7,0.6
	c-0.1,0.2-0.3,0.5-0.4,0.7c0,0.1-0.1,0.2-0.1,0.3c-0.1,0.2-0.2,0.4-0.3,0.6c-0.1,0.2-0.3,0.5-0.5,0.7c-0.2,0.2-0.3,0.4-0.5,0.5
	c-0.2,0.1-0.3,0.2-0.4,0.2c-0.2,0-0.3-0.1-0.3-0.4c0-0.1,0-0.3,0-0.4c0-0.2,0.1-0.5,0.2-0.8c0.1-0.3,0.2-0.6,0.3-0.9
	c0.1-0.3,0.2-0.6,0.3-0.9h1c0.1,0,0.1,0,0.2-0.1c0.1-0.1,0.1-0.1,0.1-0.2c0-0.1,0-0.1,0-0.1h-1.2c0.3-0.6,0.5-1.1,0.7-1.4
	c0.2-0.3,0.4-0.5,0.6-0.7c0,0-0.1,0-0.2,0c-0.1,0-0.2,0-0.3,0c-0.2,0-0.4,0.1-0.6,0.2c-0.2,0.1-0.3,0.3-0.5,0.5
	c-0.1,0.2-0.3,0.4-0.4,0.7c-0.1,0.2-0.2,0.5-0.3,0.7H36c0,0-0.1,0-0.1,0.1c0,0.1-0.1,0.1-0.1,0.2c0,0.1,0,0.1,0,0.1h0.8
	c-0.1,0.2-0.2,0.4-0.3,0.7c-0.1,0.2-0.2,0.5-0.3,0.7c0,0,0,0-0.1,0.1c-0.1,0.2-0.2,0.4-0.4,0.6c-0.1,0.2-0.3,0.5-0.4,0.7
	c-0.1,0.2-0.3,0.3-0.5,0.5c-0.1,0.1-0.2,0.1-0.3,0.2c-0.1,0-0.1,0.1-0.2,0.1c-0.1,0-0.2-0.1-0.2-0.3c0-0.1,0-0.1,0-0.2
	c0-0.1,0-0.1,0-0.2c0.1-0.4,0.2-0.8,0.4-1.2c0.2-0.4,0.4-0.8,0.6-1.2c0-0.1,0.1-0.1,0.1-0.2c0.1-0.1,0.1-0.2,0.2-0.3
	c0.1-0.1,0.1-0.2,0.2-0.2c-0.1,0-0.2,0-0.3,0c-0.2,0-0.3,0-0.4,0c-0.2,0-0.3,0.1-0.5,0.2c-0.2,0.1-0.3,0.3-0.4,0.5
	c-0.1,0.2-0.2,0.4-0.3,0.6c-0.1,0.2-0.2,0.4-0.2,0.5c0,0.1,0,0.1-0.1,0.2c-0.1,0.2-0.2,0.3-0.3,0.5c-0.1,0.2-0.3,0.5-0.5,0.7
	c-0.1,0.2-0.3,0.4-0.5,0.5c-0.2,0.2-0.4,0.2-0.5,0.2c-0.2,0-0.2-0.1-0.2-0.4c0-0.1,0-0.2,0.1-0.4c0.1-0.4,0.2-0.8,0.4-1.2
	c0.2-0.4,0.4-0.8,0.6-1.2c0-0.1,0.1-0.1,0.1-0.2c0.1-0.1,0.1-0.2,0.2-0.3c0.1-0.1,0.1-0.2,0.2-0.2c0,0-0.1,0-0.2,0
	c-0.1,0-0.2,0-0.3,0c-0.1,0-0.2,0-0.3,0c-0.2,0-0.3,0.1-0.5,0.2c-0.1,0.1-0.3,0.3-0.4,0.5c-0.1,0.1-0.2,0.4-0.3,0.6
	c-0.1,0.3-0.3,0.6-0.5,0.9c-0.2,0.3-0.3,0.6-0.5,0.9c-0.2,0.3-0.3,0.5-0.5,0.7c-0.2,0.2-0.3,0.3-0.5,0.3c-0.1,0-0.2,0-0.3-0.1
	c0-0.1-0.1-0.2-0.1-0.3c0-0.1,0-0.3,0.1-0.5c0-0.2,0.1-0.3,0.1-0.5c0-0.1,0.1-0.2,0.1-0.3c0.1-0.2,0.2-0.4,0.3-0.7
	c0.1-0.3,0.3-0.6,0.4-0.8c0.1-0.3,0.3-0.5,0.4-0.7h-0.6c-0.2,0-0.4,0-0.5,0c-0.1,0-0.2,0.1-0.3,0.2c-0.2,0.2-0.3,0.5-0.4,0.8
	c-0.1,0.3-0.3,0.6-0.4,0.9c-0.1,0.3-0.2,0.6-0.3,0.9c0,0.1,0,0.2-0.1,0.3c-0.1,0.1-0.2,0.2-0.3,0.3c-0.1,0.1-0.2,0.2-0.3,0.3
	c-0.1,0-0.1,0.1-0.2,0.1c-0.1,0-0.1,0-0.1,0c-0.1,0-0.2,0-0.2-0.1c-0.1-0.1-0.1-0.2-0.1-0.4c0.1-0.3,0.2-0.5,0.3-0.8
	c0.1-0.3,0.2-0.5,0.3-0.8c0.1-0.2,0.2-0.5,0.3-0.7c0.1-0.3,0.3-0.5,0.4-0.7c0.1-0.2,0.3-0.3,0.4-0.4h-0.4c-0.4,0-0.6,0-0.8,0.1
	c-0.2,0.1-0.3,0.3-0.4,0.5c-0.1-0.3-0.2-0.4-0.5-0.5c-0.2-0.1-0.4-0.1-0.6-0.1c-0.4,0-0.8,0.1-1.2,0.3c-0.4,0.2-0.7,0.5-0.9,0.9
	c-0.3,0.4-0.5,0.8-0.6,1.2c-0.1,0.4-0.2,0.9-0.2,1.3c0,0.4,0.1,0.7,0.2,0.8c0.2,0.2,0.3,0.2,0.6,0.2c0.3,0,0.6-0.1,0.8-0.3
	c0.3-0.2,0.5-0.5,0.8-0.8c0.2-0.2,0.3-0.4,0.5-0.7c0.2-0.3,0.3-0.5,0.4-0.8c-0.2,0.5-0.3,1-0.5,1.5c-0.2,0.5-0.4,1-0.5,1.5
	c-0.2,0.5-0.4,1.2-0.6,1.5c-0.1,0.2-0.2,0.4-0.3,0.6c-0.1,0.2-0.2,0.4-0.3,0.5c0.1,0,0.2,0,0.2,0c0.1,0,0.1,0,0.2,0
	c0.3,0,0.5-0.1,0.7-0.2c0,0,0,0,0,0c0.2-0.1,0.3-0.3,0.4-0.3c0.4-0.3,0.7-0.5,1-0.8c0.3-0.2,0.6-0.3,1-0.5c0.4-0.1,0.7-0.2,1.1-0.2
	c0.4,0,0.8,0.1,1,0.2c0.2,0.2,0.4,0.4,0.4,0.6c0,0.2-0.1,0.4-0.2,0.6c-0.2,0.2-0.4,0.4-0.7,0.6c0,0-0.1,0.1-0.1,0.1
	c0,0,0,0.1,0.1,0.1c0,0,0,0,0,0c0,0,0,0,0,0c0.2-0.1,0.4-0.2,0.6-0.3c0.2-0.1,0.4-0.3,0.5-0.4c0.2-0.2,0.3-0.3,0.3-0.5
	c0-0.1,0.1-0.3,0-0.4c0-0.3-0.2-0.6-0.4-0.8c-0.3-0.2-0.7-0.3-1.2-0.3c-0.6,0-1.1,0.1-1.5,0.3c-0.5,0.2-0.9,0.4-1.2,0.7
	c-0.2,0.1-0.4,0.3-0.7,0.5c0.1-0.5,0.4-1.1,0.5-1.5c0.1-0.4,0.2-0.9,0.4-1.3c0.1,0.2,0.2,0.3,0.4,0.3c0.2,0,0.3-0.1,0.5-0.2
	c0.2-0.1,0.3-0.2,0.5-0.4c0,0.3,0.1,0.5,0.2,0.6c0.1,0.2,0.3,0.3,0.5,0.3c0.2,0,0.4,0,0.6-0.1c0.2-0.1,0.5-0.3,0.8-0.6
	c0.1-0.1,0.3-0.3,0.4-0.4s0.3-0.3,0.4-0.5c0,0.1,0,0.2,0,0.3c0,0.1,0,0.2,0,0.3c0,0.3,0,0.5,0.1,0.7c0.1,0.1,0.1,0.2,0.2,0.3
	c0.1,0,0.2,0.1,0.3,0.1c0.2,0,0.4-0.1,0.6-0.2c0.2-0.1,0.4-0.3,0.6-0.5c0.2-0.2,0.3-0.3,0.4-0.5c0.1-0.2,0.3-0.4,0.4-0.6
	c-0.1,0.3-0.1,0.5-0.1,0.8c0,0.3,0,0.5,0.1,0.7c0.1,0.1,0.1,0.2,0.2,0.3c0.1,0,0.2,0.1,0.3,0.1c0.2,0,0.4-0.1,0.6-0.2
	c0.2-0.1,0.4-0.3,0.6-0.5c0.2-0.2,0.3-0.3,0.4-0.5c0.2-0.2,0.3-0.4,0.5-0.7c0-0.1,0.1-0.1,0.1-0.2c0,0,0.1-0.1,0.1-0.1
	c0-0.1,0.1-0.2,0.2-0.3c0.1-0.1,0.2-0.3,0.2-0.4v0c-0.1,0.2-0.1,0.3-0.2,0.5c-0.1,0.2-0.1,0.4-0.1,0.6c0,0.1,0,0.3-0.1,0.4
	c0,0.1,0,0.3,0,0.4c0,0.1,0,0.2,0,0.4s0.1,0.2,0.1,0.3c0.1,0.2,0.3,0.3,0.5,0.3c0.2,0,0.4-0.1,0.6-0.2c0.2-0.1,0.4-0.3,0.6-0.5
	c0.2-0.2,0.3-0.3,0.4-0.5c0.1-0.2,0.3-0.4,0.4-0.6c0,0.1,0,0.1,0,0.2c0,0.2-0.1,0.4-0.1,0.6c0,0.3,0.1,0.6,0.2,0.7
	c0.1,0.2,0.3,0.2,0.5,0.2c0.2,0,0.4,0,0.6-0.1c0.2-0.1,0.5-0.3,0.8-0.6c0,0,0.1-0.1,0.3-0.3c0.2-0.2,0.3-0.4,0.4-0.5
	c-0.1,0.2-0.2,0.5-0.3,0.8c-0.1,0.3-0.2,0.6-0.3,0.9c-0.1,0.3-0.3,0.6-0.4,0.9c-0.2,0.3-0.4,0.5-0.6,0.7c-0.1,0.1-0.3,0.2-0.4,0.2
	c-0.1,0.1-0.3,0.1-0.4,0.1c-0.1,0-0.2,0-0.3-0.1c-0.1-0.1-0.1-0.2-0.1-0.3c0-0.1,0-0.2,0.1-0.4c0,0,0-0.1,0.1-0.1
	c0,0,0.1-0.1,0.1-0.1c-0.1-0.2-0.2-0.2-0.4-0.2c0,0,0,0-0.1,0s0,0-0.1,0c-0.2,0-0.3,0.2-0.4,0.3c-0.1,0.2-0.1,0.3-0.1,0.5
	c0,0.3,0.1,0.5,0.3,0.6c0.2,0.1,0.5,0.2,0.7,0.2c0,0,0.1,0,0.1,0c0,0,0.1,0,0.1,0c0.4,0,0.8-0.2,1.2-0.4c0.4-0.2,0.8-0.5,1.2-0.8
	c0.4-0.3,0.8-0.6,1.2-0.9c0.4-0.3,0.7-0.5,1.1-0.7c0.3-0.2,0.6-0.3,1-0.4c0.4-0.1,0.7-0.2,1.1-0.2c0.4,0,0.8,0.1,1,0.3
	c0.2,0.2,0.3,0.4,0.3,0.7c0,0.2-0.1,0.4-0.2,0.6c-0.2,0.2-0.4,0.4-0.7,0.5c0,0-0.1,0.1-0.1,0.1c0,0,0,0.1,0.1,0.1c0,0,0,0,0,0
	c0,0,0,0,0,0c0.2-0.1,0.4-0.1,0.6-0.3c0.2-0.1,0.4-0.3,0.5-0.4c0.2-0.2,0.3-0.3,0.3-0.5c0-0.1,0.1-0.3,0.1-0.4
	C47.5,37.1,47.4,36.9,47.1,36.6z M25.9,34.7c-0.2,0.3-0.4,0.6-0.6,1c-0.1,0.2-0.3,0.4-0.5,0.6c-0.2,0.2-0.3,0.4-0.5,0.5
	C24.1,36.9,24,37,23.8,37c0,0-0.1,0-0.1,0c-0.1,0-0.2-0.2-0.2-0.4c0-0.2,0.1-0.5,0.2-0.8c0.1-0.3,0.3-0.6,0.4-1
	c0.2-0.3,0.4-0.6,0.6-0.8c0.1-0.1,0.3-0.2,0.5-0.3c0.2-0.1,0.4-0.1,0.6-0.1c0.1,0,0.2,0,0.3,0.1c0.1,0.1,0.2,0.1,0.2,0.3l-0.1,0.2
	C26.2,34.3,26.1,34.5,25.9,34.7z"/>
<path class="st8" d="M47.2,25.7C47.2,25.7,47.2,25.8,47.2,25.7c-0.2,0.3-0.3,0.5-0.4,0.7c-0.1,0.2-0.2,0.3-0.2,0.4
	c-0.1,0.1-0.2,0.2-0.3,0.4c-0.1,0.2-0.3,0.4-0.5,0.6c-0.2,0.2-0.4,0.4-0.7,0.5c-0.2,0.1-0.5,0.2-0.7,0.2c-0.3,0-0.5-0.1-0.6-0.3
	c-0.1-0.2-0.2-0.4-0.2-0.7c0-0.3,0.1-0.7,0.2-1.1c0.2,0.1,0.4,0.1,0.7,0.1c0.2,0,0.3,0,0.5,0c0.2,0,0.3-0.1,0.5-0.1
	c0.3-0.1,0.6-0.3,0.8-0.5c0.2-0.2,0.3-0.5,0.3-0.8c0-0.3-0.1-0.5-0.3-0.7c-0.2-0.2-0.5-0.3-0.9-0.3c-0.5,0-1,0.1-1.4,0.4
	c-0.4,0.3-0.7,0.6-1,1c-0.1,0.2-0.2,0.4-0.3,0.6c-0.1,0.1-0.1,0.2-0.2,0.3c-0.1,0.2-0.3,0.5-0.5,0.7c-0.3,0.3-0.6,0.6-0.9,0.9
	c-0.3,0.3-0.7,0.4-1,0.4c-0.3,0-0.5-0.1-0.6-0.3c-0.1-0.2-0.2-0.4-0.2-0.7c0-0.4,0.1-0.8,0.3-1.3c0.1-0.3,0.3-0.6,0.5-0.8
	c0.2-0.3,0.4-0.5,0.6-0.6c0.2-0.2,0.4-0.2,0.7-0.2c0.1,0,0.2,0,0.3,0.1c0.1,0.1,0.1,0.1,0.1,0.2c0,0.1-0.1,0.3-0.2,0.4
	c-0.1,0.1-0.1,0.1-0.2,0.2c-0.1,0-0.2,0-0.2,0c0,0,0,0.1,0,0.1c0,0,0,0.1,0,0.1c0,0.1,0,0.3,0.1,0.3c0.1,0.1,0.2,0.1,0.3,0.1
	c0.2,0,0.4-0.1,0.6-0.3c0.1-0.2,0.2-0.4,0.2-0.7c0-0.3-0.1-0.5-0.3-0.7c-0.2-0.2-0.5-0.3-0.9-0.3c-0.6,0-1.1,0.2-1.5,0.5
	c-0.4,0.3-0.7,0.7-1,1.2c0,0,0,0-0.1,0.1c-0.1,0.2-0.2,0.4-0.4,0.6c-0.1,0.2-0.3,0.5-0.5,0.7c-0.1,0.2-0.3,0.3-0.5,0.5
	c-0.2,0.2-0.3,0.2-0.5,0.2c-0.1,0-0.2-0.1-0.2-0.3c0-0.1,0-0.3,0.1-0.5c0.1-0.2,0.1-0.5,0.2-0.7c0.1-0.2,0.2-0.5,0.3-0.7
	c0.1-0.2,0.1-0.4,0.2-0.5c0-0.1,0.1-0.2,0.1-0.3c0-0.1,0-0.2,0-0.2c0-0.4-0.2-0.6-0.7-0.6c-0.2,0-0.4,0-0.6,0.1
	c-0.2,0.1-0.4,0.1-0.5,0.2c-0.2,0.1-0.4,0.3-0.5,0.4c-0.1,0.1-0.2,0.2-0.3,0.3c0-0.1,0-0.1,0.1-0.2c0-0.1,0.1-0.2,0.1-0.3
	c0-0.1,0-0.2-0.1-0.3c0,0-0.1-0.1-0.2-0.1c-0.1,0-0.2,0-0.3,0c-0.1,0-0.2,0-0.3,0c-0.1,0-0.2,0-0.2,0c0,0,0,0.1,0,0.2
	c0,0.1,0,0.3-0.1,0.6c-0.1,0.2-0.1,0.5-0.2,0.7c0,0.1-0.1,0.2-0.1,0.3c0,0,0,0,0,0c-0.1,0.2-0.2,0.4-0.3,0.6
	c-0.1,0.2-0.2,0.3-0.2,0.4c-0.1,0.1-0.2,0.2-0.3,0.4c-0.1,0.2-0.3,0.4-0.5,0.6c-0.2,0.2-0.4,0.4-0.7,0.5c-0.2,0.1-0.5,0.2-0.7,0.2
	c-0.3,0-0.5-0.1-0.6-0.3c-0.1-0.2-0.2-0.4-0.2-0.7c0-0.3,0.1-0.7,0.2-1.1c0.2,0.1,0.4,0.1,0.7,0.1c0.2,0,0.3,0,0.5,0
	c0.2,0,0.3-0.1,0.5-0.1c0.3-0.1,0.6-0.3,0.8-0.5c0.2-0.2,0.3-0.5,0.3-0.8c0-0.3-0.1-0.5-0.3-0.7c-0.2-0.2-0.5-0.3-0.9-0.3
	c-0.5,0-1,0.1-1.4,0.4c-0.4,0.3-0.7,0.6-1,1c-0.1,0.1-0.1,0.2-0.2,0.3c0,0,0,0,0,0c-0.1,0.2-0.2,0.4-0.4,0.6
	c-0.1,0.2-0.3,0.5-0.4,0.7c-0.1,0.1-0.2,0.2-0.3,0.3c-0.1,0.2-0.3,0.3-0.5,0.4C27.5,28,27.3,28,27.2,28c-0.2,0-0.3-0.1-0.3-0.4
	c0,0,0-0.1,0-0.1c0,0,0-0.1,0-0.1c0-0.1,0.1-0.3,0.1-0.5c0-0.2,0.1-0.4,0.1-0.6c0.1-0.2,0.1-0.4,0.2-0.5l0.2-0.5
	c0.1-0.1,0.2-0.2,0.4-0.4c0.2-0.2,0.4-0.4,0.6-0.7c0.2-0.2,0.4-0.5,0.6-0.7c0.3-0.3,0.5-0.6,0.7-1c0.2-0.4,0.4-0.7,0.6-1
	c0.1-0.1,0.1-0.3,0.2-0.4c0.1-0.2,0.1-0.4,0.1-0.5c0-0.2,0-0.3-0.1-0.4C30.5,20.1,30.3,20,30,20c-0.3,0-0.6,0.1-0.9,0.3
	c-0.3,0.2-0.5,0.5-0.8,0.8c-0.2,0.3-0.5,0.7-0.7,1.1c-0.2,0.4-0.4,0.8-0.6,1.2c-0.2,0.4-0.3,0.8-0.4,1.2c-0.1,0.4-0.2,0.7-0.3,0.9
	c0,0.1-0.1,0.2-0.1,0.3c0,0,0,0,0,0.1c-0.1,0.2-0.2,0.4-0.4,0.6c-0.1,0.2-0.3,0.5-0.4,0.7c-0.1,0.1-0.2,0.2-0.3,0.3
	c-0.1,0.2-0.3,0.3-0.5,0.4C24.6,28,24.4,28,24.3,28c-0.2,0-0.3-0.1-0.3-0.4c0,0,0-0.1,0-0.1c0,0,0-0.1,0-0.1c0-0.1,0.1-0.3,0.1-0.5
	c0-0.2,0.1-0.4,0.1-0.6c0.1-0.2,0.1-0.4,0.2-0.5l0.2-0.5c0.1-0.1,0.2-0.2,0.4-0.4c0.2-0.2,0.4-0.4,0.6-0.7c0.2-0.2,0.4-0.5,0.6-0.7
	c0.3-0.3,0.5-0.6,0.7-1c0.2-0.4,0.4-0.7,0.6-1c0.1-0.1,0.1-0.3,0.2-0.4c0.1-0.2,0.1-0.4,0.1-0.5c0-0.2,0-0.3-0.1-0.4
	c-0.1-0.1-0.3-0.2-0.5-0.2c-0.3,0-0.6,0.1-0.9,0.3c-0.3,0.2-0.5,0.5-0.8,0.8c-0.2,0.3-0.5,0.7-0.7,1.1c-0.2,0.4-0.4,0.8-0.6,1.2
	c-0.2,0.4-0.3,0.8-0.4,1.2c-0.1,0.4-0.2,0.7-0.3,0.9c0,0.1,0,0.1-0.1,0.2c0,0,0,0-0.1,0.1c-0.1,0.2-0.2,0.4-0.3,0.6
	c-0.1,0.2-0.2,0.3-0.2,0.4c-0.1,0.1-0.2,0.2-0.3,0.4c-0.1,0.2-0.3,0.4-0.5,0.6c-0.2,0.2-0.4,0.4-0.7,0.5c-0.2,0.1-0.5,0.2-0.7,0.2
	c-0.3,0-0.5-0.1-0.6-0.3c-0.1-0.2-0.2-0.4-0.2-0.7c0-0.3,0.1-0.7,0.2-1.1c0.2,0.1,0.4,0.1,0.7,0.1c0.2,0,0.3,0,0.5,0
	c0.2,0,0.3-0.1,0.5-0.1c0.3-0.1,0.6-0.3,0.8-0.5c0.2-0.2,0.3-0.5,0.3-0.8c0-0.3-0.1-0.5-0.3-0.7c-0.2-0.2-0.5-0.3-0.9-0.3
	c-0.5,0-1,0.1-1.4,0.4c-0.4,0.3-0.7,0.6-1,1c-0.1,0.1-0.1,0.2-0.2,0.3c0,0,0,0,0,0c-0.1,0.2-0.2,0.4-0.3,0.6
	c-0.1,0.2-0.3,0.5-0.5,0.7c-0.3,0.3-0.6,0.6-0.9,0.9c-0.3,0.3-0.7,0.4-1,0.4c-0.3,0-0.5-0.1-0.6-0.3c-0.1-0.2-0.2-0.4-0.2-0.7
	c0-0.4,0.1-0.8,0.3-1.3c0.1-0.3,0.3-0.6,0.5-0.8c0.2-0.3,0.4-0.5,0.6-0.6c0.2-0.2,0.4-0.2,0.7-0.2c0.1,0,0.2,0,0.3,0.1
	c0.1,0.1,0.1,0.1,0.1,0.2c0,0.1-0.1,0.3-0.2,0.4c-0.1,0.1-0.1,0.1-0.2,0.2c-0.1,0-0.2,0-0.2,0c0,0,0,0.1,0,0.1c0,0,0,0.1,0,0.1
	c0,0.1,0,0.3,0.1,0.3s0.2,0.1,0.3,0.1c0.2,0,0.4-0.1,0.6-0.3c0.1-0.2,0.2-0.4,0.2-0.7c0-0.3-0.1-0.5-0.3-0.7
	c-0.2-0.2-0.5-0.3-0.9-0.3c-0.6,0-1.1,0.2-1.5,0.5c-0.4,0.3-0.7,0.7-1,1.2c-0.1,0.2-0.2,0.5-0.3,0.8c0,0.2-0.1,0.3-0.1,0.4
	c0,0-0.1,0.1-0.1,0.1c-0.1,0.1-0.2,0.2-0.3,0.4c-0.1,0.1-0.3,0.3-0.4,0.4c-0.2,0.1-0.3,0.2-0.5,0.2c-0.1,0-0.2,0-0.3-0.1
	c-0.1-0.1-0.2-0.2-0.3-0.4c-0.1-0.2-0.2-0.4-0.3-0.6c-0.1-0.2-0.1-0.4-0.2-0.6c0.4-0.4,0.8-0.8,1.1-1.2c0.4-0.4,0.8-0.7,1.2-1.1
	c0,0-0.1,0-0.3,0c-0.1,0-0.2,0-0.4,0c-0.1,0-0.2,0-0.3,0.1c-0.3,0.3-0.6,0.6-0.8,0.9c-0.3,0.3-0.5,0.6-0.7,0.8
	c-0.1-0.3-0.2-0.7-0.3-1c-0.1-0.3-0.1-0.6-0.2-0.8h-0.6c-0.2,0-0.3,0.1-0.4,0.3c-0.1,0.2-0.2,0.5-0.2,0.7c-0.1,0.2-0.2,0.5-0.4,0.9
	c0,0.1,0,0.2,0,0.3c0,0.1,0,0.2,0,0.2c0,0.1,0,0.1,0.1,0c0.2-0.3,0.3-0.6,0.5-0.8c0.1-0.2,0.2-0.4,0.3-0.5c0.1,0.3,0.1,0.5,0.2,0.8
	c0.1,0.3,0.2,0.5,0.2,0.8c-0.5,0.5-1,0.9-1.3,1.3c-0.4,0.4-0.6,0.6-0.8,0.7h0.9c0.2-0.3,0.4-0.5,0.7-0.8c0.2-0.2,0.5-0.5,0.7-0.8
	c0.1,0.5,0.3,0.9,0.5,1.2c0.2,0.3,0.5,0.4,0.8,0.4c0.2,0,0.4-0.1,0.7-0.2c0.2-0.1,0.4-0.3,0.6-0.5c0.2-0.2,0.4-0.4,0.5-0.5
	c0,0,0.1-0.1,0.1-0.1c0,0.2,0.1,0.4,0.1,0.6c0.1,0.2,0.3,0.4,0.5,0.6c0.2,0.1,0.5,0.2,0.9,0.2c0.5,0,1-0.1,1.3-0.3
	c0.4-0.2,0.7-0.5,0.9-0.9c0.2-0.2,0.3-0.4,0.4-0.6c0,0.1,0,0.2,0,0.2c0,0.2,0,0.4,0.1,0.5c0.1,0.4,0.3,0.6,0.6,0.8
	c0.3,0.2,0.6,0.2,0.9,0.2c0.4,0,0.8-0.1,1.1-0.3c0.2-0.1,0.4-0.2,0.6-0.4c0.2-0.2,0.3-0.3,0.5-0.5c0.2-0.2,0.3-0.4,0.5-0.7
	c0-0.1,0.1-0.1,0.1-0.2c-0.1,0.3-0.1,0.6-0.2,0.8c0,0,0,0.1,0,0.1c0,0,0,0.1,0,0.1c0,0.3,0.1,0.5,0.2,0.7c0.1,0.2,0.3,0.2,0.5,0.2
	c0.2,0,0.5-0.1,0.7-0.2c0.2-0.1,0.5-0.3,0.7-0.5c0.2-0.2,0.4-0.4,0.5-0.5c0.2-0.2,0.3-0.4,0.5-0.7c0,0,0.1-0.1,0.1-0.1
	c-0.1,0.3-0.1,0.6-0.2,0.8c0,0,0,0.1,0,0.1c0,0,0,0.1,0,0.1c0,0.3,0.1,0.5,0.2,0.7c0.1,0.2,0.3,0.2,0.5,0.2c0.2,0,0.5-0.1,0.7-0.2
	c0.2-0.1,0.5-0.3,0.7-0.5c0.2-0.2,0.4-0.4,0.5-0.5c0.2-0.2,0.3-0.4,0.4-0.6c0,0.1,0,0.2,0,0.3c0,0.2,0,0.4,0.1,0.5
	c0.1,0.4,0.3,0.6,0.6,0.8c0.3,0.2,0.6,0.2,0.9,0.2c0.4,0,0.8-0.1,1.1-0.3c0.2-0.1,0.4-0.2,0.6-0.4c0.2-0.2,0.3-0.3,0.5-0.5
	c0.1-0.1,0.2-0.2,0.2-0.3c-0.1,0.2-0.1,0.3-0.2,0.5c-0.1,0.2-0.2,0.5-0.3,0.9h1.1c0-0.1,0.1-0.3,0.1-0.4c0-0.1,0.1-0.3,0.1-0.4
	c0.1-0.2,0.2-0.5,0.3-0.8c0.1-0.3,0.3-0.7,0.4-1c0.1-0.3,0.3-0.6,0.5-0.9c0.2-0.3,0.5-0.5,0.7-0.6c0.2-0.1,0.3-0.1,0.4-0.1
	c0.1,0,0.2,0,0.2,0.1c0.1,0,0.1,0.1,0.1,0.2c0,0.1,0,0.2,0,0.2c-0.1,0.3-0.2,0.6-0.4,1c-0.1,0.4-0.3,0.7-0.4,1.1
	c-0.1,0.4-0.2,0.7-0.2,0.9c0,0.2,0,0.4,0.1,0.6c0.1,0.2,0.3,0.2,0.6,0.2c0.2,0,0.4-0.1,0.6-0.2c0.2-0.1,0.4-0.3,0.6-0.5
	c0.2-0.2,0.3-0.3,0.4-0.5c0.2-0.2,0.3-0.4,0.4-0.6c0,0.1,0,0.2,0,0.3c0,0.3,0,0.5,0.1,0.8c0.1,0.2,0.3,0.4,0.5,0.6
	c0.2,0.1,0.5,0.2,0.9,0.2c0.5,0,1-0.1,1.3-0.3c0.4-0.2,0.7-0.5,0.9-0.9c0.1-0.2,0.3-0.4,0.4-0.6c0,0.1,0,0.1,0,0.2
	c0,0.2,0,0.4,0.1,0.5c0.1,0.4,0.3,0.6,0.6,0.8c0.3,0.2,0.6,0.2,0.9,0.2c0.4,0,0.8-0.1,1.1-0.3c0.2-0.1,0.4-0.2,0.6-0.4
	c0.2-0.2,0.3-0.3,0.5-0.5c0.2-0.2,0.3-0.4,0.5-0.7c0.2-0.2,0.3-0.4,0.4-0.6c0-0.1,0.1-0.2,0.1-0.3c0-0.1,0-0.2,0-0.2
	C47.3,25.8,47.3,25.7,47.2,25.7z M44.2,25.6c0.1-0.1,0.2-0.3,0.3-0.4c0.1-0.1,0.2-0.2,0.2-0.2c0.1-0.1,0.2-0.2,0.4-0.3
	c0.1-0.1,0.3-0.1,0.4-0.2c0.1,0,0.2,0,0.2,0c0.1,0,0.2,0,0.3,0.1c0.1,0.1,0.1,0.1,0.1,0.2c0,0.2-0.1,0.4-0.2,0.6
	c-0.1,0.2-0.3,0.3-0.5,0.4c-0.1,0.1-0.2,0.2-0.4,0.2c-0.2,0.1-0.3,0.1-0.5,0.1c0,0-0.1,0-0.1,0c0,0-0.1,0-0.1,0
	c-0.1,0-0.1-0.1-0.1-0.2C44.1,25.8,44.1,25.7,44.2,25.6z M30.6,25.6c0.1-0.1,0.2-0.3,0.3-0.4C30.9,25.1,31,25,31,25
	c0.1-0.1,0.2-0.2,0.4-0.3c0.1-0.1,0.3-0.1,0.4-0.2c0.1,0,0.2,0,0.2,0c0.1,0,0.2,0,0.3,0.1c0.1,0.1,0.1,0.1,0.1,0.2
	c0,0.2-0.1,0.4-0.2,0.6c-0.1,0.2-0.3,0.3-0.5,0.4c-0.1,0.1-0.2,0.2-0.4,0.2c-0.2,0.1-0.3,0.1-0.5,0.1c0,0-0.1,0-0.1,0
	c0,0-0.1,0-0.1,0c-0.1,0-0.1-0.1-0.1-0.2C30.4,25.8,30.5,25.7,30.6,25.6z M28.3,23.3c0.2-0.4,0.3-0.8,0.5-1.2c0.2-0.4,0.4-0.7,0.5-1
	c0.1-0.2,0.3-0.4,0.4-0.6c0.1-0.1,0.2-0.2,0.4-0.2c0.1,0,0.2,0.1,0.2,0.2c0,0.1,0,0.2-0.1,0.4c0,0.1-0.1,0.3-0.2,0.4
	C30,21.4,30,21.5,30,21.5c-0.3,0.6-0.6,1.1-1,1.6c-0.4,0.5-0.8,1-1.2,1.5C27.9,24.2,28.1,23.8,28.3,23.3z M25.3,23.3
	c0.2-0.4,0.3-0.8,0.5-1.2c0.2-0.4,0.4-0.7,0.5-1c0.1-0.2,0.3-0.4,0.4-0.6c0.1-0.1,0.3-0.2,0.4-0.2c0.1,0,0.2,0.1,0.2,0.2
	c0,0.1,0,0.2-0.1,0.4c0,0.1-0.1,0.3-0.2,0.4c-0.1,0.1-0.1,0.2-0.1,0.2c-0.3,0.6-0.6,1.1-1,1.6c-0.4,0.5-0.8,1-1.2,1.5
	C25,24.2,25.2,23.8,25.3,23.3z M20.4,25.6c0.1-0.1,0.2-0.3,0.3-0.4c0.1-0.1,0.2-0.2,0.2-0.2c0.1-0.1,0.2-0.2,0.4-0.3
	c0.1-0.1,0.3-0.1,0.4-0.2c0.1,0,0.2,0,0.2,0c0.1,0,0.2,0,0.3,0.1c0.1,0.1,0.1,0.1,0.1,0.2c0,0.2-0.1,0.4-0.2,0.6
	c-0.1,0.2-0.3,0.3-0.5,0.4c-0.1,0.1-0.2,0.2-0.4,0.2c-0.2,0.1-0.3,0.1-0.5,0.1c0,0-0.1,0-0.1,0c0,0-0.1,0-0.1,0
	c-0.1,0-0.1-0.1-0.1-0.2C20.3,25.8,20.4,25.7,20.4,25.6z"/>
<g>
	<path class="st9" d="M67.1,34.7v5.5c0,1-0.2,1.8-0.5,2.5c-0.3,0.7-0.8,1.2-1.5,1.6c-0.6,0.4-1.4,0.6-2.3,0.6
		c-0.9,0-1.7-0.2-2.3-0.6c-0.6-0.4-1.1-0.9-1.5-1.6c-0.3-0.7-0.5-1.5-0.5-2.5v-5.5h1.8V40c0,0.7,0.1,1.3,0.3,1.8
		c0.2,0.5,0.5,0.9,0.9,1.1c0.4,0.3,0.8,0.4,1.4,0.4c0.6,0,1-0.1,1.4-0.4c0.4-0.3,0.7-0.6,0.9-1.1c0.2-0.5,0.3-1.1,0.3-1.8v-5.3H67.1
		z"/>
	<path class="st9" d="M78.7,44.7h-2l-5.2-7.3v7.3h-1.8v-10h2L77,42v-7.3h1.8V44.7z"/>
	<path class="st9" d="M83.2,44.7h-1.8v-10h1.8V44.7z"/>
	<path class="st9" d="M85.8,44.7v-10H92v1.5h-4.4v2.6h4.1v1.5h-4.1v4.3H85.8z"/>
	<path class="st9" d="M96.3,44.7h-1.8v-10h1.8V44.7z"/>
	<path class="st9" d="M99,44.7v-10h6.3v1.5h-4.6v2.6h4.3v1.5h-4.3v2.7h4.6v1.5H99z"/>
	<path class="st9" d="M108,44.7v-10h3.1c1.2,0,2.3,0.2,3.1,0.6c0.9,0.4,1.6,1,2,1.7c0.5,0.7,0.7,1.6,0.7,2.7c0,1-0.2,1.9-0.7,2.7
		c-0.5,0.7-1.2,1.3-2,1.7c-0.9,0.4-1.9,0.6-3.1,0.6H108z M109.7,43.2h1.5c0.9,0,1.6-0.1,2.2-0.4c0.6-0.3,1.1-0.7,1.4-1.2
		c0.3-0.5,0.5-1.1,0.5-1.9c0-0.7-0.2-1.4-0.5-1.9c-0.3-0.5-0.8-0.9-1.4-1.2c-0.6-0.3-1.3-0.4-2.2-0.4h-1.5V43.2z"/>
	<path class="st10" d="M196.3,41.7c-0.6,0-1-0.2-1.4-0.5c-0.4-0.4-0.5-0.8-0.5-1.4s0.2-1,0.5-1.4c0.4-0.4,0.8-0.5,1.4-0.5
		c0.6,0,1,0.2,1.4,0.5c0.4,0.4,0.5,0.8,0.5,1.4s-0.2,1-0.5,1.4C197.3,41.5,196.8,41.7,196.3,41.7z"/>
	<path class="st9" d="M128.3,43.7l0.8-1.3c0.3,0.2,0.6,0.4,0.9,0.6c0.3,0.2,0.6,0.3,0.9,0.3c0.3,0.1,0.6,0.1,0.9,0.1
		c0.4,0,0.7-0.1,1-0.2c0.3-0.1,0.5-0.3,0.7-0.5c0.2-0.2,0.2-0.5,0.2-0.7c0-0.3-0.1-0.6-0.3-0.8c-0.2-0.2-0.4-0.4-0.7-0.5
		c-0.3-0.2-0.6-0.3-1-0.4c-0.3-0.1-0.6-0.3-1-0.4c-0.3-0.2-0.6-0.3-0.9-0.6c-0.3-0.2-0.5-0.5-0.6-0.8c-0.2-0.3-0.2-0.7-0.2-1.1
		c0-0.6,0.1-1.1,0.4-1.5c0.3-0.4,0.7-0.7,1.2-1c0.5-0.2,1.1-0.3,1.7-0.3c0.5,0,0.9,0.1,1.4,0.2c0.5,0.1,0.9,0.3,1.4,0.5l-0.7,1.4
		c-0.3-0.2-0.7-0.3-1-0.4c-0.4-0.1-0.7-0.2-1-0.2c-0.3,0-0.6,0-0.8,0.1c-0.2,0.1-0.4,0.2-0.6,0.4c-0.1,0.2-0.2,0.4-0.2,0.6
		c0,0.3,0.1,0.5,0.3,0.7c0.2,0.2,0.4,0.4,0.7,0.5c0.3,0.2,0.6,0.3,0.9,0.4c0.3,0.1,0.7,0.3,1,0.5c0.3,0.2,0.6,0.4,0.9,0.6
		c0.3,0.2,0.5,0.5,0.7,0.8c0.2,0.3,0.2,0.7,0.2,1.1c0,0.6-0.1,1.1-0.4,1.5c-0.3,0.4-0.7,0.8-1.3,1s-1.2,0.4-1.9,0.4
		c-0.6,0-1.3-0.1-1.9-0.3C129.4,44.4,128.8,44.1,128.3,43.7z"/>
	<path class="st9" d="M146.3,43.4c-0.5,0.5-1,0.8-1.6,1.1c-0.6,0.3-1.3,0.4-2.1,0.4c-0.7,0-1.4-0.1-2.1-0.4
		c-0.6-0.3-1.2-0.6-1.7-1.1c-0.5-0.5-0.8-1-1.1-1.7c-0.3-0.6-0.4-1.3-0.4-2.1c0-0.7,0.1-1.4,0.4-2.1c0.3-0.6,0.6-1.2,1.1-1.6
		c0.5-0.5,1-0.8,1.7-1.1c0.6-0.3,1.3-0.4,2.1-0.4c0.7,0,1.4,0.1,2.1,0.4c0.6,0.3,1.2,0.6,1.6,1.1l-1.2,1.2c-0.3-0.4-0.7-0.6-1.1-0.9
		c-0.4-0.2-0.9-0.3-1.4-0.3c-0.5,0-0.9,0.1-1.4,0.3c-0.4,0.2-0.8,0.4-1.1,0.8c-0.3,0.3-0.5,0.7-0.7,1.2c-0.2,0.4-0.3,0.9-0.3,1.5
		c0,0.5,0.1,1,0.3,1.4c0.2,0.4,0.4,0.8,0.7,1.2s0.7,0.6,1.1,0.8c0.4,0.2,0.9,0.3,1.4,0.3c0.5,0,1-0.1,1.4-0.3
		c0.4-0.2,0.8-0.5,1.1-0.9L146.3,43.4z"/>
	<path class="st9" d="M150.4,44.7h-1.8v-10h1.8V39h4.7v-4.3h1.8v10h-1.8v-4.1h-4.7V44.7z"/>
	<path class="st9" d="M164.4,44.9c-0.8,0-1.4-0.1-2.1-0.4c-0.6-0.3-1.2-0.6-1.7-1.1c-0.5-0.5-0.8-1-1.1-1.7
		c-0.3-0.6-0.4-1.3-0.4-2.1c0-0.7,0.1-1.4,0.4-2.1c0.3-0.6,0.6-1.2,1.1-1.6c0.5-0.5,1-0.8,1.7-1.1c0.6-0.3,1.3-0.4,2.1-0.4
		c0.8,0,1.4,0.1,2.1,0.4c0.6,0.3,1.2,0.6,1.7,1.1c0.5,0.5,0.8,1,1.1,1.6c0.3,0.6,0.4,1.3,0.4,2.1c0,0.7-0.1,1.4-0.4,2.1
		c-0.3,0.6-0.6,1.2-1.1,1.7c-0.5,0.5-1,0.8-1.7,1.1C165.8,44.8,165.1,44.9,164.4,44.9z M164.4,43.4c0.5,0,0.9-0.1,1.4-0.3
		c0.4-0.2,0.8-0.4,1.1-0.8c0.3-0.3,0.5-0.7,0.7-1.2c0.2-0.4,0.3-0.9,0.3-1.4c0-0.5-0.1-1-0.3-1.4c-0.2-0.4-0.4-0.8-0.7-1.2
		c-0.3-0.3-0.7-0.6-1.1-0.8c-0.4-0.2-0.9-0.3-1.4-0.3c-0.5,0-0.9,0.1-1.4,0.3c-0.4,0.2-0.8,0.4-1.1,0.8c-0.3,0.3-0.5,0.7-0.7,1.2
		c-0.2,0.4-0.3,0.9-0.3,1.4c0,0.5,0.1,1,0.3,1.4c0.2,0.4,0.4,0.8,0.7,1.2c0.3,0.3,0.7,0.6,1.1,0.8C163.4,43.3,163.9,43.4,164.4,43.4
		z"/>
	<path class="st9" d="M176.7,44.9c-0.8,0-1.4-0.1-2.1-0.4c-0.6-0.3-1.2-0.6-1.7-1.1c-0.5-0.5-0.8-1-1.1-1.7
		c-0.3-0.6-0.4-1.3-0.4-2.1c0-0.7,0.1-1.4,0.4-2.1c0.3-0.6,0.6-1.2,1.1-1.6c0.5-0.5,1-0.8,1.7-1.1c0.6-0.3,1.3-0.4,2.1-0.4
		c0.8,0,1.4,0.1,2.1,0.4c0.6,0.3,1.2,0.6,1.7,1.1c0.5,0.5,0.8,1,1.1,1.6c0.3,0.6,0.4,1.3,0.4,2.1c0,0.7-0.1,1.4-0.4,2.1
		c-0.3,0.6-0.6,1.2-1.1,1.7c-0.5,0.5-1,0.8-1.7,1.1C178.2,44.8,177.5,44.9,176.7,44.9z M176.7,43.4c0.5,0,0.9-0.1,1.4-0.3
		c0.4-0.2,0.8-0.4,1.1-0.8c0.3-0.3,0.5-0.7,0.7-1.2c0.2-0.4,0.3-0.9,0.3-1.4c0-0.5-0.1-1-0.3-1.4c-0.2-0.4-0.4-0.8-0.7-1.2
		c-0.3-0.3-0.7-0.6-1.1-0.8c-0.4-0.2-0.9-0.3-1.4-0.3c-0.5,0-0.9,0.1-1.4,0.3c-0.4,0.2-0.8,0.4-1.1,0.8c-0.3,0.3-0.5,0.7-0.7,1.2
		c-0.2,0.4-0.3,0.9-0.3,1.4c0,0.5,0.1,1,0.3,1.4c0.2,0.4,0.4,0.8,0.7,1.2c0.3,0.3,0.7,0.6,1.1,0.8C175.8,43.3,176.2,43.4,176.7,43.4
		z"/>
	<path class="st9" d="M190.6,44.7h-6.4v-10h1.8v8.4h4.6V44.7z"/>
	<path class="st10" d="M122.9,41.7c-0.6,0-1-0.2-1.4-0.5c-0.4-0.4-0.5-0.8-0.5-1.4s0.2-1,0.5-1.4c0.4-0.4,0.8-0.5,1.4-0.5
		c0.6,0,1,0.2,1.4,0.5c0.4,0.4,0.5,0.8,0.5,1.4s-0.2,1-0.5,1.4C123.9,41.5,123.4,41.7,122.9,41.7z"/>
	<path class="st9" d="M202.2,44.7v-10h3.1c1.2,0,2.3,0.2,3.1,0.6c0.9,0.4,1.6,1,2,1.7c0.5,0.7,0.7,1.6,0.7,2.7c0,1-0.2,1.9-0.7,2.7
		c-0.5,0.7-1.2,1.3-2,1.7c-0.9,0.4-1.9,0.6-3.1,0.6H202.2z M204,43.2h1.5c0.9,0,1.6-0.1,2.2-0.4c0.6-0.3,1.1-0.7,1.4-1.2
		c0.3-0.5,0.5-1.1,0.5-1.9c0-0.7-0.2-1.4-0.5-1.9c-0.3-0.5-0.8-0.9-1.4-1.2c-0.6-0.3-1.3-0.4-2.2-0.4H204V43.2z"/>
	<path class="st9" d="M215.3,44.7h-1.8v-10h1.8V44.7z"/>
	<path class="st9" d="M217.5,43.7l0.8-1.3c0.3,0.2,0.6,0.4,0.9,0.6c0.3,0.2,0.6,0.3,0.9,0.3c0.3,0.1,0.6,0.1,0.9,0.1
		c0.4,0,0.7-0.1,1-0.2c0.3-0.1,0.5-0.3,0.7-0.5c0.2-0.2,0.2-0.5,0.2-0.7c0-0.3-0.1-0.6-0.3-0.8c-0.2-0.2-0.4-0.4-0.7-0.5
		c-0.3-0.2-0.6-0.3-1-0.4c-0.3-0.1-0.6-0.3-1-0.4c-0.3-0.2-0.6-0.3-0.9-0.6c-0.3-0.2-0.5-0.5-0.6-0.8c-0.2-0.3-0.2-0.7-0.2-1.1
		c0-0.6,0.1-1.1,0.4-1.5c0.3-0.4,0.7-0.7,1.2-1c0.5-0.2,1.1-0.3,1.7-0.3c0.5,0,0.9,0.1,1.4,0.2c0.5,0.1,0.9,0.3,1.4,0.5l-0.7,1.4
		c-0.3-0.2-0.7-0.3-1-0.4c-0.4-0.1-0.7-0.2-1-0.2c-0.3,0-0.6,0-0.8,0.1c-0.2,0.1-0.4,0.2-0.6,0.4c-0.1,0.2-0.2,0.4-0.2,0.6
		c0,0.3,0.1,0.5,0.3,0.7c0.2,0.2,0.4,0.4,0.7,0.5c0.3,0.2,0.6,0.3,0.9,0.4c0.3,0.1,0.7,0.3,1,0.5c0.3,0.2,0.6,0.4,0.9,0.6
		c0.3,0.2,0.5,0.5,0.7,0.8c0.2,0.3,0.2,0.7,0.2,1.1c0,0.6-0.1,1.1-0.4,1.5c-0.3,0.4-0.7,0.8-1.3,1c-0.5,0.2-1.2,0.4-1.9,0.4
		c-0.6,0-1.3-0.1-1.9-0.3C218.5,44.4,218,44.1,217.5,43.7z"/>
	<path class="st9" d="M230.9,44.7h-1.8v-8.4h-3v-1.5h7.8v1.5h-3V44.7z"/>
	<path class="st9" d="M243.9,44.7h-1.9l-2.2-3.8h-2.2v3.8h-1.8v-10h4c0.8,0,1.4,0.1,2,0.4c0.6,0.2,1,0.6,1.3,1.1s0.4,1,0.4,1.7
		c0,0.7-0.2,1.3-0.5,1.8c-0.3,0.5-0.8,0.8-1.5,1.1L243.9,44.7z M237.6,39.5h2.1c0.6,0,1.1-0.1,1.5-0.4c0.4-0.3,0.5-0.7,0.5-1.2
		c0-0.5-0.2-0.9-0.5-1.2c-0.4-0.3-0.9-0.4-1.5-0.4h-2.1V39.5z"/>
	<path class="st9" d="M247.8,44.7H246v-10h1.8V44.7z"/>
	<path class="st9" d="M259,43.4c-0.5,0.5-1,0.8-1.6,1.1c-0.6,0.3-1.3,0.4-2.1,0.4c-0.7,0-1.4-0.1-2.1-0.4c-0.6-0.3-1.2-0.6-1.7-1.1
		c-0.5-0.5-0.8-1-1.1-1.7c-0.3-0.6-0.4-1.3-0.4-2.1c0-0.7,0.1-1.4,0.4-2.1c0.3-0.6,0.6-1.2,1.1-1.6c0.5-0.5,1-0.8,1.7-1.1
		c0.6-0.3,1.3-0.4,2.1-0.4c0.7,0,1.4,0.1,2.1,0.4c0.6,0.3,1.2,0.6,1.6,1.1l-1.2,1.2c-0.3-0.4-0.7-0.6-1.1-0.9
		c-0.4-0.2-0.9-0.3-1.4-0.3c-0.5,0-0.9,0.1-1.4,0.3c-0.4,0.2-0.8,0.4-1.1,0.8c-0.3,0.3-0.5,0.7-0.7,1.2c-0.2,0.4-0.3,0.9-0.3,1.5
		c0,0.5,0.1,1,0.3,1.4c0.2,0.4,0.4,0.8,0.7,1.2s0.7,0.6,1.1,0.8c0.4,0.2,0.9,0.3,1.4,0.3c0.5,0,1-0.1,1.4-0.3
		c0.4-0.2,0.8-0.5,1.1-0.9L259,43.4z"/>
	<path class="st9" d="M265.4,44.7h-1.8v-8.4h-3v-1.5h7.8v1.5h-3V44.7z"/>
</g>
</svg>
