<svg xmlns="http://www.w3.org/2000/svg" aria-hidden="true" fill="none" viewBox="0 0 210 54">
    <path d="M141.225 25.5089V25.5928L148.469 2.36627H154.937L141.227 44.1114L141.225 43.9962V44.1046L132.405 17.7715L123.588 44.1133V44.1065L123.586 44.1114L109.875 2.36627H116.344L123.586 25.5928L123.588 25.671V25.5089L132.377 0.709045H132.435L141.225 25.5089ZM172.112 1.57135C175.744 1.57135 179.252 2.5589 182.641 4.53131V11.7579C179.113 8.8082 175.464 7.33216 171.692 7.33209C167.537 7.33209 164.034 8.82554 161.188 11.8106C158.324 14.7781 156.893 18.4086 156.893 22.7032C156.893 26.9451 158.324 30.5247 161.188 33.4395C164.052 36.3543 167.562 37.8126 171.718 37.8126C173.867 37.8126 175.692 37.4627 177.193 36.7647C178.032 36.4165 178.899 35.9447 179.799 35.3506C180.698 34.7566 181.645 34.0415 182.641 33.2032V40.5606C179.148 42.533 175.482 43.5205 171.64 43.5206C165.859 43.5206 160.927 41.5029 156.84 37.4717C152.771 33.4039 150.737 28.4991 150.737 22.7559C150.737 17.6068 152.44 13.0152 155.845 8.98248C160.035 4.04252 165.458 1.57136 172.112 1.57135ZM197.831 1.56842C202.495 1.56842 206.136 3.83793 208.755 8.37701L203.804 11.3096C202.879 9.7045 201.996 8.65676 201.157 8.16803C200.285 7.6091 199.159 7.32916 197.778 7.32916C196.085 7.32921 194.679 7.80988 193.562 8.76959C192.444 9.71191 191.887 10.8991 191.887 12.3301C191.887 14.304 193.353 15.8916 196.286 17.0958L200.32 18.7452C203.603 20.0723 206.005 21.6919 207.524 23.6036C209.042 25.5137 209.803 27.8587 209.803 30.6329C209.803 34.3526 208.563 37.4246 206.083 39.8506C203.586 42.2956 200.487 43.5176 196.785 43.5176C193.275 43.5176 190.375 42.4793 188.087 40.4014C185.834 38.3236 184.43 35.3991 183.871 31.6299L190.052 30.2676C190.331 32.6406 190.821 34.2823 191.519 35.1895C192.776 36.9352 194.61 37.8086 197.02 37.8087C198.922 37.8087 200.504 37.172 201.762 35.8975C203.019 34.623 203.646 33.0077 203.646 31.0528C203.646 30.2673 203.538 29.5473 203.319 28.8926C203.1 28.2379 202.76 27.6353 202.299 27.086C201.836 26.5366 201.237 26.0218 200.504 25.5411C199.771 25.0604 198.897 24.602 197.884 24.1661L193.98 22.544C188.446 20.2042 185.678 16.7823 185.678 12.2784C185.678 9.24075 186.839 6.70094 189.162 4.65826C191.483 2.59808 194.374 1.56847 197.831 1.56842ZM95.8887 2.35748C99.2755 2.3575 101.835 2.59341 103.563 3.06451C105.31 3.53567 106.847 4.42575 108.173 5.73541C110.496 8.00487 111.657 10.8666 111.657 14.3243C111.657 18.0249 110.416 20.958 107.938 23.1221C105.459 25.2879 102.115 26.3692 97.9062 26.3692H95.0771V42.7872H88.9736V2.35748H95.8887ZM95.0771 20.713H97.3555C102.961 20.7128 105.764 18.5571 105.764 14.2452C105.764 10.0734 102.873 7.98737 97.0928 7.98737H95.0771V20.713Z" fill="#AFB1CB"></path>
    <path d="M104.397 47.5296C104.632 47.5297 104.863 47.5923 105.091 47.7151V48.4691C104.877 48.3637 104.696 48.3119 104.551 48.3118C104.353 48.3118 104.181 48.3603 104.039 48.4593C103.895 48.5567 103.778 48.7081 103.686 48.9124C103.593 49.1152 103.524 49.374 103.479 49.6868C103.435 49.9999 103.414 50.3711 103.414 50.7991C103.414 52.3352 103.807 53.1036 104.595 53.1038C104.732 53.1038 104.898 53.0602 105.091 52.9739V53.7444C104.89 53.8578 104.664 53.9134 104.413 53.9134C103.153 53.9134 102.523 52.8849 102.522 50.8265C102.522 49.7149 102.676 48.8871 102.984 48.3441C103.291 47.801 103.763 47.5296 104.397 47.5296ZM139.537 47.5296C139.772 47.5296 140.002 47.5922 140.23 47.7151V48.4691C140.016 48.3636 139.836 48.3118 139.69 48.3118C139.492 48.3119 139.322 48.3604 139.18 48.4593C139.036 48.5567 138.919 48.7081 138.826 48.9124C138.734 49.1152 138.665 49.374 138.62 49.6868C138.575 49.9999 138.553 50.3711 138.553 50.7991C138.553 52.3354 138.948 53.1038 139.735 53.1038C139.873 53.1038 140.037 53.0602 140.23 52.9739V53.7444C140.029 53.8577 139.803 53.9134 139.553 53.9134C138.293 53.9131 137.663 52.8847 137.663 50.8265C137.663 49.7149 137.817 48.8871 138.125 48.3441C138.432 47.8011 138.903 47.5296 139.537 47.5296ZM142.689 47.5325C143.21 47.5325 143.598 47.712 143.851 48.0696C144.017 48.3092 144.139 48.6493 144.214 49.0901C144.289 49.4974 144.327 50.0951 144.327 50.8792C144.327 51.9776 144.204 52.7585 143.96 53.22C143.716 53.6832 143.305 53.9134 142.729 53.9134C142.126 53.9134 141.699 53.6656 141.451 53.1673C141.207 52.6818 141.086 51.8179 141.086 50.5775C141.086 49.4707 141.205 48.6862 141.448 48.2278C141.693 47.7647 142.106 47.5326 142.689 47.5325ZM146.302 52.011C146.302 52.4598 146.341 52.7586 146.421 52.9056C146.504 53.0541 146.669 53.1272 146.913 53.1273C147.158 53.1273 147.319 53.0633 147.397 52.9339C147.477 52.8028 147.519 52.5344 147.519 52.1321V47.6146H148.342V52.1321C148.342 52.8093 148.238 53.2682 148.03 53.5062C147.783 53.7777 147.405 53.9134 146.897 53.9134C146.338 53.9134 145.945 53.7388 145.717 53.389C145.557 53.1494 145.479 52.6913 145.479 52.011V47.6146H146.302V52.011ZM167.624 52.011C167.624 52.4598 167.664 52.7586 167.745 52.9056C167.828 53.0541 167.991 53.1272 168.237 53.1273C168.482 53.1273 168.643 53.0633 168.72 52.9339C168.801 52.8029 168.842 52.5345 168.842 52.1321V47.6146H169.664V52.1321C169.664 52.8093 169.561 53.2682 169.354 53.5062C169.107 53.7777 168.728 53.9134 168.22 53.9134C167.661 53.9134 167.268 53.7387 167.039 53.389C166.881 53.1493 166.801 52.6911 166.801 52.011V47.6146H167.624V52.011ZM181.592 47.5296C181.825 47.5296 182.057 47.5922 182.285 47.7151V48.4691C182.07 48.3637 181.89 48.3119 181.745 48.3118C181.545 48.3118 181.375 48.3603 181.232 48.4593C181.09 48.5567 180.972 48.7081 180.879 48.9124C180.786 49.1151 180.718 49.374 180.675 49.6868C180.63 49.9999 180.607 50.3711 180.607 50.7991C180.607 52.3354 181 53.1038 181.788 53.1038C181.925 53.1038 182.092 53.0602 182.285 52.9739V53.7444C182.084 53.8578 181.857 53.9134 181.607 53.9134C180.347 53.9134 179.716 52.8849 179.716 50.8265C179.716 49.7149 179.871 48.8871 180.178 48.3441C180.486 47.8011 180.958 47.5296 181.592 47.5296ZM186.1 47.5296C186.398 47.5296 186.683 47.6015 186.954 47.7435V48.5609C186.7 48.379 186.47 48.2864 186.266 48.2864C186.045 48.2865 185.865 48.3653 185.726 48.5218C185.585 48.6686 185.515 48.8664 185.515 49.1136C185.515 49.3308 185.566 49.5182 185.665 49.6732C185.716 49.7578 185.8 49.8645 185.918 49.9954C186.035 50.1279 186.185 50.2858 186.37 50.471C186.712 50.8176 186.945 51.1181 187.068 51.3704C187.191 51.6148 187.253 51.9153 187.253 52.2698C187.253 52.7506 187.117 53.1469 186.846 53.4583C186.574 53.7616 186.226 53.9134 185.803 53.9134C185.445 53.9134 185.139 53.8159 184.887 53.6194V52.7894C185.185 53.0066 185.456 53.1165 185.702 53.1165C185.931 53.1165 186.108 53.0397 186.237 52.888C186.367 52.7363 186.431 52.5302 186.431 52.2698C186.431 52.0431 186.381 51.8403 186.282 51.6614C186.231 51.5752 186.158 51.4764 186.067 51.3646C185.976 51.2528 185.863 51.1282 185.726 50.9925C185.513 50.7817 185.338 50.5962 185.197 50.4349C185.058 50.2736 184.954 50.1324 184.887 50.011C184.758 49.7748 184.693 49.478 184.693 49.1175C184.693 48.6322 184.82 48.2455 185.072 47.9612C185.328 47.6738 185.67 47.5296 186.1 47.5296ZM190.029 47.5296C190.264 47.5296 190.494 47.5922 190.723 47.7151V48.4691C190.509 48.3637 190.328 48.3118 190.183 48.3118C189.985 48.3118 189.813 48.3603 189.671 48.4593C189.529 48.5567 189.411 48.7083 189.318 48.9124C189.226 49.1152 189.157 49.374 189.112 49.6868C189.068 49.9999 189.047 50.3711 189.047 50.7991C189.047 52.3354 189.44 53.1038 190.228 53.1038C190.365 53.1038 190.529 53.0601 190.723 52.9739V53.7444C190.521 53.8578 190.296 53.9134 190.045 53.9134C188.785 53.9133 188.155 52.8848 188.155 50.8265C188.155 49.7149 188.309 48.8871 188.617 48.3441C188.924 47.8011 189.395 47.5296 190.029 47.5296ZM197.419 47.5325C197.94 47.5326 198.326 47.7119 198.58 48.0696C198.746 48.3092 198.868 48.6493 198.943 49.0901C199.018 49.4974 199.055 50.0951 199.055 50.8792C199.055 51.9779 198.933 52.7585 198.688 53.22C198.444 53.6831 198.034 53.9133 197.459 53.9134C196.855 53.9134 196.428 53.6656 196.181 53.1673C195.936 52.6818 195.813 51.818 195.813 50.5775C195.813 49.4706 195.935 48.6862 196.178 48.2278C196.422 47.7647 196.836 47.5325 197.419 47.5325ZM201.688 47.5325C202.208 47.5325 202.595 47.7119 202.848 48.0696C203.015 48.3092 203.135 48.6493 203.212 49.0901C203.287 49.4974 203.324 50.095 203.324 50.8792C203.324 51.9777 203.202 52.7585 202.958 53.22C202.714 53.6832 202.303 53.9134 201.728 53.9134C201.122 53.9133 200.698 53.6655 200.45 53.1673C200.206 52.6818 200.082 51.8181 200.082 50.5775C200.082 49.4706 200.204 48.6862 200.445 48.2278C200.691 47.7648 201.105 47.5326 201.688 47.5325ZM208.846 47.5296C209.144 47.5296 209.429 47.6015 209.7 47.7435V48.5609C209.446 48.379 209.216 48.2864 209.012 48.2864C208.791 48.2865 208.611 48.3653 208.472 48.5218C208.331 48.6686 208.261 48.8664 208.261 49.1136C208.261 49.3308 208.312 49.5182 208.411 49.6732C208.462 49.7578 208.546 49.8645 208.664 49.9954C208.781 50.1279 208.931 50.2858 209.116 50.471C209.458 50.8176 209.691 51.1181 209.814 51.3704C209.937 51.6148 209.999 51.9153 209.999 52.2698C209.999 52.7506 209.863 53.1469 209.592 53.4583C209.32 53.7616 208.972 53.9134 208.549 53.9134C208.191 53.9134 207.885 53.8159 207.633 53.6194V52.7894C207.932 53.0066 208.202 53.1165 208.448 53.1165C208.677 53.1165 208.854 53.0397 208.983 52.888C209.113 52.7363 209.177 52.5302 209.177 52.2698C209.177 52.0431 209.127 51.8403 209.028 51.6614C208.977 51.5752 208.905 51.4764 208.813 51.3646C208.722 51.2528 208.609 51.1282 208.472 50.9925C208.259 50.7817 208.084 50.5962 207.943 50.4349C207.804 50.2736 207.7 50.1324 207.633 50.011C207.504 49.7748 207.439 49.478 207.439 49.1175C207.439 48.6322 207.566 48.2455 207.818 47.9612C208.074 47.6738 208.416 47.5296 208.846 47.5296ZM90.0596 47.6146C90.5916 47.6146 90.9804 47.7486 91.2217 48.0169C91.4627 48.2884 91.584 48.7179 91.584 49.3069C91.584 50.1343 91.3408 50.6693 90.8535 50.9105C90.6092 51.0206 90.2563 51.0764 89.7949 51.0765V53.8362H88.9561V47.6146H90.0596ZM93.6553 47.6146C94.1122 47.6146 94.4527 47.7226 94.6748 47.9398C94.9576 48.2225 95.0977 48.654 95.0977 49.2337C95.0976 49.6809 95.0226 50.039 94.874 50.3089C94.7255 50.5785 94.5115 50.746 94.2354 50.8099L95.3809 53.8362H94.5293L93.3887 50.7903V53.8362H92.5498V47.6146H93.6553ZM97.1904 53.8362H96.3516V47.6146H97.1904V53.8362ZM100.088 50.096C100.331 50.7988 100.543 51.5467 100.729 52.3421C100.661 51.8615 100.612 51.4251 100.58 51.0355C100.548 50.6475 100.532 50.2801 100.532 49.9368V47.6146H101.374V53.8362H100.588L99.6484 51.0355C99.5622 50.7752 99.481 50.5083 99.4043 50.2337C99.3276 49.9607 99.2572 49.6731 99.1934 49.3714C99.1886 49.3347 99.1791 49.288 99.168 49.2337C99.1552 49.181 99.141 49.1184 99.125 49.0482C99.133 49.1184 99.1391 49.1793 99.1455 49.2288C99.1503 49.2782 99.1556 49.3197 99.1572 49.3548L99.2012 49.9876L99.2461 50.7571C99.2477 50.8002 99.2513 50.8531 99.2529 50.9153C99.2529 50.976 99.2539 51.0462 99.2539 51.1243L99.2988 53.8362H98.4717V47.6146H99.2539L100.088 50.096ZM108.349 48.3235H106.957V50.2943H108.19V51.0032H106.957V53.1273H108.349V53.8362H106.118V47.6146H108.349V48.3235ZM112.704 50.5032L112.772 50.931C112.804 51.1625 112.829 51.3737 112.845 51.5638L112.889 52.0921C112.892 52.1049 112.894 52.1292 112.897 52.1644C112.901 52.1995 112.903 52.2445 112.908 52.2972L112.929 52.096C112.961 51.7446 112.996 51.4198 113.031 51.1243C113.068 50.829 113.108 50.556 113.151 50.3069L113.599 47.6146H114.244L114.662 50.2298C114.724 50.6163 114.776 50.9763 114.817 51.3069C114.859 51.6359 114.895 51.9524 114.922 52.2542C114.949 51.9365 114.977 51.6296 115.011 51.3343C115.044 51.0388 115.081 50.7475 115.118 50.4632L115.179 50.0482L115.538 47.6146H116.34L115.239 53.8362H114.586L114.146 51.1487C114.143 51.1376 114.137 51.0942 114.127 51.0159C114.116 50.9377 114.1 50.826 114.078 50.681L113.993 50.0609C113.988 50.0113 113.979 49.9395 113.968 49.8421C113.955 49.7464 113.942 49.6236 113.93 49.4769L113.908 49.2181C113.903 49.2802 113.899 49.3346 113.893 49.3792C113.888 49.4254 113.882 49.4622 113.881 49.4925C113.867 49.6695 113.855 49.8066 113.846 49.9056C113.836 50.003 113.83 50.0629 113.828 50.0853L113.744 50.681C113.725 50.8182 113.71 50.925 113.699 51.0032C113.688 51.0815 113.68 51.1296 113.675 51.1487L113.22 53.8362H112.546L111.471 47.6146H112.28L112.704 50.5032ZM117.992 53.8362H117.154V47.6146H117.992V53.8362ZM120.114 53.1273H121.485V53.8362H119.275V47.6146H120.114V53.1273ZM123.169 53.1273H124.54V53.8362H122.33V47.6146H123.169V53.1273ZM126.224 53.8362H125.385V47.6146H126.224V53.8362ZM130.381 53.8362H129.551L129.315 52.6243H128.082L127.844 53.8362H127.039L128.394 47.6146H129.046L130.381 53.8362ZM132.753 50.1536C132.822 50.4697 132.882 50.7874 132.937 51.1068C132.992 51.4246 133.043 51.7589 133.089 52.1087C133.094 52.0624 133.098 52.0268 133.1 52.0013C133.103 51.9761 133.106 51.9573 133.109 51.9476L133.227 51.2337L133.33 50.556L133.423 50.1087L133.911 47.6146H134.637L135.209 53.8362H134.407L134.267 51.7249C134.26 51.6181 134.255 51.5257 134.252 51.4476C134.247 51.3694 134.245 51.3053 134.245 51.2542L134.209 50.4183L134.189 49.6536C134.189 49.6488 134.188 49.636 134.188 49.6185C134.186 49.6009 134.183 49.5785 134.182 49.5482L134.161 49.6732C134.14 49.8215 134.121 49.9507 134.104 50.0609C134.086 50.1711 134.069 50.2641 134.057 50.3392L133.951 50.9075L133.911 51.1194L133.388 53.8362H132.822L132.331 51.4915C132.262 51.182 132.203 50.8692 132.15 50.5501C132.098 50.2323 132.052 49.8979 132.009 49.5482L131.766 53.8362H130.977L131.487 47.6146H132.205L132.753 50.1536ZM151.239 50.096C151.482 50.7987 151.696 51.5467 151.881 52.3421C151.814 51.8615 151.763 51.4251 151.731 51.0355C151.7 50.6475 151.684 50.2801 151.684 49.9368V47.6146H152.525V53.8362H151.739L150.8 51.0355C150.714 50.7752 150.633 50.5083 150.557 50.2337C150.48 49.9607 150.41 49.6731 150.345 49.3714C150.34 49.3347 150.33 49.288 150.318 49.2337C150.306 49.181 150.291 49.1184 150.275 49.0482C150.283 49.1184 150.291 49.1793 150.296 49.2288C150.301 49.2782 150.306 49.3197 150.308 49.3548L150.353 49.9876L150.397 50.7571C150.401 50.8002 150.402 50.8531 150.403 50.9153C150.405 50.976 150.405 51.0462 150.405 51.1243L150.45 53.8362H149.622V47.6146H150.405L151.239 50.096ZM156.039 48.347H155.1V53.8362H154.278V48.347H153.311V47.6146H156.039V48.347ZM157.999 48.9681C158.013 49.008 158.026 49.053 158.039 49.1009C158.053 49.1488 158.069 49.2016 158.088 49.2591C158.241 49.7478 158.346 50.1587 158.403 50.4925C158.451 50.1588 158.491 49.9268 158.522 49.7943L158.652 49.2386L158.7 49.0208L159.047 47.6146H159.922L158.838 51.1614V53.8362H157.999V51.1614L156.701 47.6146H157.588L157.999 48.9681ZM164.311 47.6146C164.842 47.6146 165.23 47.7486 165.472 48.0169C165.713 48.2884 165.834 48.7178 165.834 49.3069C165.834 50.1341 165.592 50.6692 165.104 50.9105C164.86 51.0207 164.507 51.0765 164.045 51.0765V53.8362H163.206V47.6146H164.311ZM172.081 47.6146C172.971 47.6146 173.417 48.1673 173.417 49.2708C173.417 49.6922 173.359 50.0049 173.242 50.2093C173.127 50.4136 172.923 50.5684 172.631 50.6722C172.966 50.8063 173.196 50.9796 173.319 51.1888C173.445 51.3964 173.509 51.7077 173.509 52.1243C173.509 53.2662 173.02 53.8362 172.041 53.8362H170.945V47.6146H172.081ZM175.504 53.1273H176.875V53.8362H174.665V47.6146H175.504V53.1273ZM178.561 53.8362H177.722V47.6146H178.561V53.8362ZM192.59 50.0482H193.82V47.6146H194.658V53.8362H193.82V50.7571H192.59V53.8362H191.751V47.6146H192.59V50.0482ZM205.314 53.1273H206.686V53.8362H204.476V47.6146H205.314V53.1273ZM142.71 48.2913C142.411 48.2915 142.211 48.4545 142.112 48.7786C142.016 49.1077 141.968 49.7657 141.968 50.7542C141.968 51.6646 142.019 52.2958 142.121 52.6487C142.227 52.9806 142.423 53.1486 142.71 53.1487C142.991 53.1487 143.185 52.9914 143.29 52.68C143.395 52.3717 143.448 51.7999 143.448 50.9681C143.448 49.8902 143.399 49.1749 143.303 48.8235C143.205 48.469 143.007 48.2913 142.71 48.2913ZM197.438 48.2913C197.141 48.2915 196.941 48.4546 196.842 48.7786C196.744 49.1076 196.696 49.7657 196.696 50.7542C196.696 51.6646 196.747 52.2958 196.85 52.6487C196.955 52.9807 197.15 53.1486 197.438 53.1487C197.72 53.1487 197.914 52.9914 198.02 52.68C198.123 52.3716 198.176 51.7998 198.176 50.9681C198.176 49.8902 198.128 49.1749 198.03 48.8235C197.934 48.469 197.736 48.2913 197.438 48.2913ZM201.707 48.2913C201.41 48.2914 201.21 48.4545 201.111 48.7786C201.014 49.1076 200.966 49.7656 200.966 50.7542C200.966 51.6646 201.017 52.2958 201.119 52.6487C201.223 52.9808 201.42 53.1487 201.707 53.1487C201.99 53.1487 202.184 52.9914 202.289 52.68C202.393 52.3716 202.445 51.7997 202.445 50.9681C202.445 49.8903 202.397 49.1749 202.3 48.8235C202.204 48.469 202.006 48.2913 201.707 48.2913ZM171.734 53.1194C172.079 53.1194 172.317 53.0461 172.448 52.8978C172.579 52.7509 172.646 52.4823 172.646 52.096C172.646 51.6984 172.578 51.4202 172.44 51.262C172.306 51.1007 172.071 51.0189 171.734 51.0189V53.1194ZM128.707 48.8235C128.67 49.1972 128.622 49.5757 128.562 49.9573C128.503 50.3405 128.434 50.7477 128.353 51.1771L128.198 51.9739H129.195L129.011 50.9837C128.886 50.3083 128.785 49.5883 128.707 48.8235ZM93.3887 50.3704C93.7142 50.3704 93.9439 50.2957 94.0781 50.1458C94.2123 49.9957 94.2802 49.7417 94.2803 49.3841C94.2803 49.1908 94.2651 49.0244 94.2363 48.887C94.2092 48.7513 94.1652 48.6393 94.1045 48.553C94.0439 48.4669 93.9652 48.4051 93.8711 48.3636C93.7753 48.3237 93.6618 48.3021 93.5293 48.3021H93.3887V50.3704ZM89.7949 50.3577C90.1413 50.3577 90.3792 50.2892 90.5117 50.1487C90.6459 50.0066 90.7129 49.7544 90.7129 49.3919C90.7129 49.0214 90.6489 48.7499 90.5195 48.5775C90.3901 48.405 90.1875 48.3196 89.9111 48.3196H89.7949V50.3577ZM164.045 50.3577C164.392 50.3577 164.63 50.2893 164.763 50.1487C164.897 50.0066 164.964 49.7542 164.964 49.3919C164.964 49.0215 164.9 48.75 164.771 48.5775C164.641 48.4051 164.438 48.3197 164.162 48.3196H164.045V50.3577ZM171.734 48.2913V50.3548C172.06 50.3548 172.285 50.2793 172.411 50.1292C172.537 49.9695 172.602 49.6919 172.602 49.2943C172.602 48.6235 172.36 48.2864 171.876 48.2864H171.775C171.753 48.2865 171.741 48.2882 171.734 48.2913Z" fill="#717491"></path>
    <path d="M36.5688 35.7683C37.0543 44.8703 45.9389 52.1237 56.8315 52.1238C67.723 52.1238 76.609 44.8701 77.0942 35.7693C77.1096 36.0296 77.1187 36.2925 77.1187 36.5554C77.1187 46.0226 68.0359 53.696 56.8315 53.696C45.6272 53.696 36.5454 46.0226 36.5454 36.5554C36.5454 36.2914 36.5535 36.0298 36.5688 35.7683ZM56.6606 41.2859L76.647 31.1404C76.8142 32.021 76.9038 32.9233 76.9038 33.8435C76.9038 43.2163 67.9102 50.8142 56.8169 50.8142C45.7238 50.814 36.731 43.2161 36.731 33.8435C36.731 32.8851 36.8312 31.947 37.0112 31.032L56.6606 41.2859ZM97.5464 17.9792L56.7769 38.7585L39.3198 29.8035C39.3198 29.8035 45.8661 28.8858 55.2827 21.7673C64.7008 14.65 70.3286 7.87573 70.3286 7.87573L97.5464 17.9792ZM68.3765 7.07202C68.3493 7.10623 63.0574 13.7495 49.312 20.8484C35.5297 27.967 25.3081 22.2263 25.3081 22.2263L17.6138 17.5193L56.8911 2.82397L68.3765 7.07202Z" fill="#3A559C"></path>
    <path d="M59.1709 16.832C53.6294 21.6326 47.1904 25.4215 40.1436 27.9297L40.1357 27.9531C33.5319 30.1664 26.5755 31.3096 19.4941 31.3096C12.9862 31.3096 6.56237 30.3483 0.400391 28.4541C0.100331 28.3622 -0.0665427 28.0438 0.0253906 27.7451C0.11747 27.4455 0.434799 27.2784 0.733398 27.3701C6.78816 29.2311 13.0997 30.1748 19.4941 30.1748C20.6037 30.1748 21.7096 30.1365 22.8115 30.0791C22.2677 30.0829 21.7252 30.0808 21.1826 30.0693C13.6519 29.9187 6.68638 27.4112 1.01465 23.2578L1.02637 23.2432C0.451784 22.8092 0.0771484 22.1224 0.0771484 21.3477C0.0773328 20.0358 1.1408 18.9729 2.45312 18.9727C3.03026 18.9727 3.56053 19.1794 3.97168 19.5215C11.2586 24.6233 20.914 28.0621 30.4775 27.6562C36.5554 27.3971 40.7863 26.3767 44.9297 24.8896C45.1989 24.7749 45.4197 24.688 45.6494 24.5859L45.6523 24.585C50.5131 22.5887 55.0545 19.9757 59.1709 16.832ZM6.01074 16.0293C6.26353 15.842 6.61836 15.8942 6.80469 16.1455C8.41607 18.3052 10.3224 20.1457 12.4395 21.6455C11.2533 20.5351 10.1813 19.2835 9.26074 17.8936C9.08709 17.6319 9.16042 17.28 9.4209 17.1064C9.68135 16.9344 10.0334 17.005 10.207 17.2666C13.9124 22.8585 20.1244 26.1972 26.8252 26.1973C26.9886 26.1973 27.1358 26.2679 27.2393 26.3789C27.1167 26.3776 26.9979 26.3785 26.874 26.376C21.6185 26.27 16.6384 25.0168 12.1797 22.8584C9.80483 21.2412 7.67921 19.2165 5.89551 16.8232C5.70788 16.5718 5.7605 16.2169 6.01074 16.0293ZM72.8096 2.2959L75.2314 2.31836L73.2842 3.75879L74.0127 6.06934L72.04 4.66406L70.0664 6.06934L70.7949 3.75879L68.8477 2.31836L71.2695 2.2959L72.04 0L72.8096 2.2959Z" fill="#F6A21D"></path>
</svg>