<?xml version="1.0" encoding="UTF-8"?>
<svg xmlns="http://www.w3.org/2000/svg" version="1.1" viewBox="0 0 180.56 74.8">
  <!-- Generator: Adobe Illustrator 29.4.0, SVG Export Plug-In . SVG Version: 2.1.0 Build 152)  -->
  <defs>
    <style>
      .st0 {
        fill: #f8da2a;
      }

      .st1, .st2 {
        fill: #231f20;
      }

      .st3 {
        fill: #6d6e71;
      }

      .st2 {
        font-family: Montserrat-Regular, Montserrat;
        font-size: 7.6px;
        letter-spacing: .12em;
      }

      .st4 {
        fill: #42873f;
      }

      .st5 {
        fill: #00aeef;
      }

      .st6 {
        fill: #94bd59;
      }

      .st7 {
        fill: #fff;
      }

      .st8 {
        fill: #eb2127;
      }

      .st9 {
        fill: #9cbe61;
      }

      .st10 {
        display: none;
      }
    </style>
  </defs>
  <g id="Junk_Drawer" class="st10">
    <g>
      <path class="st1" d="M-283.98,45.69c-.61,0-1.16-.06-1.64-.19s-.9-.25-1.24-.38c-.34-.13-.6-.2-.77-.21l.13-3.01h.88l.25,2.21c.13.12.32.24.57.35.25.11.54.21.87.28.33.07.67.11,1.03.11.68,0,1.22-.1,1.63-.29.41-.19.71-.46.9-.82.19-.35.28-.77.28-1.25s-.13-.91-.4-1.24c-.27-.33-.63-.62-1.08-.87s-.97-.48-1.54-.71c-.35-.15-.73-.32-1.12-.52-.39-.2-.76-.44-1.11-.73-.35-.29-.63-.63-.84-1.03-.22-.4-.33-.87-.33-1.42,0-.63.17-1.18.49-1.66s.79-.85,1.39-1.11,1.3-.4,2.1-.4c.38,0,.73.03,1.06.08s.64.12.91.19c.28.07.52.14.72.21.21.07.37.11.49.13l-.1,2.77h-.84l-.3-2.09c-.08-.07-.22-.14-.41-.21-.2-.08-.43-.14-.71-.19-.28-.05-.58-.08-.9-.08-.57,0-1.05.07-1.43.22s-.66.38-.85.68-.28.68-.28,1.14c0,.51.12.92.37,1.24.25.31.59.58,1.04.81.44.23.96.48,1.54.76.42.19.84.4,1.26.62.42.22.81.47,1.17.75.36.28.64.61.86.99s.33.82.33,1.33c0,.43-.09.86-.27,1.28-.18.42-.45.8-.81,1.14-.36.34-.81.61-1.36.81-.55.2-1.19.3-1.93.3Z"/>
      <path class="st1" d="M-275.87,45.69c-.5,0-.97-.09-1.39-.28s-.77-.47-1.03-.87c-.26-.39-.39-.89-.39-1.51s.16-1.09.49-1.49c.32-.4.76-.72,1.3-.96s1.15-.42,1.82-.53c.67-.11,1.35-.17,2.05-.19v-.71c0-.56-.06-.99-.18-1.3s-.32-.53-.62-.66c-.29-.13-.7-.19-1.23-.19-.66,0-1.24.11-1.74.33-.5.22-.88.41-1.15.56l-.37-.74c.1-.1.33-.24.7-.44s.81-.38,1.32-.54c.51-.17,1.04-.25,1.58-.25.75,0,1.35.11,1.79.32s.76.56.96,1.04c.19.48.29,1.11.29,1.9v5.55h1.05v.62c-.12.03-.28.07-.46.11-.18.04-.37.07-.57.1-.2.03-.38.04-.55.04-.24,0-.42-.04-.54-.11-.12-.07-.17-.27-.17-.6v-.6c-.14.12-.35.29-.64.51-.29.22-.62.41-1.02.59-.39.18-.83.27-1.3.27ZM-275.36,44.69c.34,0,.73-.1,1.17-.3s.83-.44,1.17-.73v-2.99c-.93,0-1.71.1-2.32.29-.61.19-1.07.45-1.38.77-.3.33-.46.7-.46,1.13,0,.45.08.81.24,1.08.16.27.38.46.65.57.28.12.58.17.93.17Z"/>
      <path class="st1" d="M-265.97,45.69c-.91,0-1.68-.21-2.3-.63-.62-.42-1.09-.99-1.41-1.71-.32-.72-.48-1.53-.49-2.41,0-.67.09-1.31.28-1.91.19-.6.48-1.14.87-1.61.39-.47.88-.84,1.47-1.12.59-.27,1.28-.41,2.08-.41.33,0,.64.03.95.09.31.06.58.13.83.21.25.08.44.15.59.21l-.07,2.42h-.84l-.36-1.62c-.02-.09-.1-.17-.25-.25-.15-.08-.33-.14-.54-.19-.21-.05-.43-.07-.66-.07-.58,0-1.08.15-1.52.45-.43.3-.77.73-1,1.29s-.36,1.22-.37,1.99c0,.73.07,1.37.22,1.91.16.54.37.99.65,1.34.28.35.6.62.97.79.37.17.77.26,1.2.26.34,0,.67-.04.99-.12.32-.08.6-.18.86-.3s.47-.24.64-.35l.27.56c-.21.21-.48.4-.81.59-.33.18-.69.33-1.08.44-.39.11-.78.17-1.17.17Z"/>
      <path class="st1" d="M-261.56,45.5v-.71l1.35-.1v-7.45l-1.3-.29v-.76l2.15-.27h.03l.32.27v.27l-.03,1.5h.03c.05-.06.15-.19.31-.39.16-.21.37-.43.63-.67s.59-.45.97-.63c.38-.18.83-.27,1.33-.27.16,0,.29,0,.38.02.09.01.16.03.21.05v1.42s-.13-.06-.28-.1c-.16-.04-.35-.06-.58-.06-.52,0-.96.07-1.31.21-.35.14-.64.3-.88.48-.23.18-.44.33-.61.46v6.18l2.25.13v.69h-4.97Z"/>
      <path class="st1" d="M-251.74,45.69c-.5,0-.97-.09-1.39-.28s-.77-.47-1.03-.87c-.26-.39-.39-.89-.39-1.51s.16-1.09.49-1.49c.32-.4.76-.72,1.3-.96s1.15-.42,1.82-.53c.67-.11,1.35-.17,2.05-.19v-.71c0-.56-.06-.99-.18-1.3s-.32-.53-.62-.66c-.29-.13-.7-.19-1.23-.19-.66,0-1.24.11-1.74.33-.5.22-.88.41-1.15.56l-.37-.74c.1-.1.33-.24.7-.44s.81-.38,1.32-.54c.51-.17,1.04-.25,1.58-.25.75,0,1.35.11,1.79.32s.76.56.96,1.04c.19.48.29,1.11.29,1.9v5.55h1.05v.62c-.12.03-.28.07-.46.11-.18.04-.37.07-.57.1-.2.03-.38.04-.55.04-.24,0-.42-.04-.54-.11-.12-.07-.17-.27-.17-.6v-.6c-.14.12-.35.29-.64.51-.29.22-.62.41-1.02.59-.39.18-.83.27-1.3.27ZM-251.23,44.69c.34,0,.73-.1,1.17-.3s.83-.44,1.17-.73v-2.99c-.93,0-1.71.1-2.32.29-.61.19-1.07.45-1.38.77-.3.33-.46.7-.46,1.13,0,.45.08.81.24,1.08.16.27.38.46.65.57.28.12.58.17.93.17Z"/>
      <path class="st1" d="M-245.37,45.5v-.73l1.08-.13v-7.4l-1.3-.29v-.76l2.14-.27.37.27v.74l-.02.42c.25-.21.57-.43.96-.66.39-.22.81-.41,1.25-.57.44-.15.87-.23,1.27-.23.6,0,1.08.1,1.44.3.36.2.64.52.83.95.2-.17.5-.35.88-.54.38-.19.8-.36,1.25-.5.45-.14.87-.21,1.28-.21.54,0,.98.08,1.33.23.35.16.63.39.83.71.2.32.34.72.42,1.22.08.5.12,1.09.12,1.77v4.8l1.28.13v.73h-3.78v-.73l1.15-.13v-4.75c0-.65-.05-1.19-.15-1.63s-.29-.77-.58-.99-.72-.33-1.3-.33c-.3,0-.6.05-.92.14s-.61.21-.89.35c-.28.14-.51.28-.71.42.04.18.07.38.1.59s.04.44.05.68c.01.24.02.49.02.76v4.76l1.28.13v.73h-3.87v-.73l1.22-.13v-4.78c0-.65-.04-1.19-.12-1.62-.08-.43-.25-.75-.51-.96s-.66-.32-1.2-.32c-.47,0-.96.12-1.48.35-.51.24-.94.49-1.29.76v6.57l1.2.13v.73h-3.65Z"/>
      <path class="st1" d="M-225.42,45.69c-.89,0-1.64-.21-2.24-.62-.61-.42-1.06-.99-1.37-1.73s-.46-1.59-.46-2.55c0-.73.11-1.39.33-1.99s.52-1.12.91-1.55c.39-.43.85-.77,1.37-1s1.1-.35,1.72-.35c1,0,1.78.28,2.34.85.56.57.86,1.4.9,2.49,0,.32,0,.6-.02.84s-.04.46-.08.64h-6.01c0,.57.07,1.1.19,1.59.13.49.32.92.58,1.28.26.36.58.65.96.85.38.2.82.3,1.33.3s.97-.09,1.47-.26c.5-.17.87-.37,1.13-.6l.27.62c-.21.22-.5.42-.85.6-.35.18-.74.33-1.17.44-.43.11-.86.16-1.29.16ZM-228.02,39.91h4.58c.02-.09.03-.21.04-.36,0-.15.01-.28.01-.38,0-.69-.16-1.27-.49-1.74-.33-.46-.87-.7-1.62-.7-.34,0-.65.06-.94.17s-.55.29-.77.54c-.22.25-.4.57-.54.98s-.23.9-.27,1.49Z"/>
      <path class="st1" d="M-219.65,44.64v-7.4l-1.3-.29v-.76l2.14-.27h.05l.32.27v.74l-.02.42c.25-.21.57-.43.97-.66.4-.22.82-.41,1.28-.57.46-.15.9-.23,1.32-.23.73,0,1.29.14,1.68.43s.66.72.8,1.3c.15.59.22,1.33.22,2.24v4.78l1.27.12v.73h-3.77v-.73l1.13-.12v-4.8c0-.65-.04-1.19-.13-1.62s-.27-.75-.54-.96c-.27-.21-.68-.32-1.23-.32-.32,0-.65.06-1,.17-.35.11-.68.26-1,.43-.32.17-.59.35-.82.53v6.55l1.23.13v.73h-3.73v-.73l1.13-.13Z"/>
      <path class="st1" d="M-207.44,45.69c-.56,0-1-.13-1.32-.39-.32-.26-.49-.76-.49-1.5v-6.65h-1.28v-.68c.1-.02.22-.05.35-.08s.26-.06.38-.1c.12-.03.2-.07.25-.09.06-.04.11-.08.16-.13s.08-.1.12-.17c.04-.06.07-.14.11-.24.05-.14.11-.34.18-.61.07-.27.14-.53.2-.79.07-.26.11-.43.13-.54h.76v2.4h3.01v1.01h-3.01v5.46c0,.62.02,1.08.07,1.36s.15.46.3.54.38.11.69.11c.35,0,.72-.05,1.13-.14.4-.09.7-.19.88-.28l.22.64c-.16.12-.4.25-.71.38-.31.13-.65.24-1.02.34-.37.09-.74.14-1.11.14Z"/>
      <path class="st1" d="M-203.98,40.76c0-.77.12-1.46.37-2.06s.58-1.11.99-1.53c.42-.42.88-.74,1.4-.96s1.04-.33,1.58-.33c1.01,0,1.82.23,2.43.68s1.05,1.05,1.33,1.8c.28.75.41,1.57.41,2.45,0,.77-.12,1.45-.37,2.06-.24.61-.58,1.12-.99,1.54-.42.42-.88.74-1.4.96-.51.22-1.04.33-1.58.33-.75,0-1.4-.13-1.93-.39-.53-.26-.96-.62-1.29-1.08-.33-.46-.57-.98-.72-1.58-.15-.59-.23-1.22-.23-1.89ZM-199.72,44.81c.57,0,1.06-.15,1.46-.44.41-.29.72-.73.93-1.31.22-.58.33-1.3.33-2.15,0-.56-.05-1.09-.15-1.59-.1-.5-.25-.94-.46-1.33s-.49-.69-.83-.91c-.34-.22-.76-.33-1.26-.33-.57,0-1.07.15-1.47.44s-.72.73-.94,1.3-.32,1.3-.32,2.16c0,.56.05,1.09.15,1.6s.26.94.47,1.33.49.69.84.9c.35.22.76.33,1.25.33Z"/>
      <path class="st1" d="M-184.5,45.69c-.92,0-1.73-.15-2.45-.45-.71-.3-1.32-.73-1.81-1.28-.49-.56-.87-1.23-1.12-2.02-.25-.79-.38-1.67-.38-2.65s.15-1.81.46-2.6c.3-.79.73-1.48,1.28-2.07.55-.59,1.18-1.04,1.91-1.36.73-.32,1.52-.48,2.37-.48.38,0,.74.02,1.1.07s.69.1,1.01.16c.32.06.6.12.85.18.25.06.45.1.6.13l-.14,2.75h-.88l-.37-1.96c-.1-.09-.26-.17-.49-.25-.22-.08-.51-.14-.85-.19-.34-.05-.73-.08-1.18-.08-.77,0-1.46.21-2.07.64-.62.42-1.11,1.04-1.47,1.85s-.54,1.79-.54,2.94c0,.78.08,1.53.25,2.23.17.7.43,1.33.77,1.88.34.55.78.97,1.31,1.29.53.31,1.15.47,1.87.47.47,0,.85-.03,1.16-.08.3-.05.55-.13.75-.22s.36-.2.51-.32l.68-1.6.83.14-.42,2.26c-.22,0-.43.04-.64.11-.21.07-.44.14-.69.22-.25.08-.56.15-.91.21s-.78.09-1.29.09Z"/>
      <path class="st1" d="M-179.59,45.5v-.73l1.49-.13v-7.4l-1.32-.29v-.76l2.31-.27h.03l.34.27v8.46l1.47.12v.73h-4.32ZM-177.52,34.36c-.31,0-.54-.09-.7-.28-.16-.19-.24-.42-.24-.69s.09-.53.26-.76c.17-.23.44-.35.8-.35h.02c.31,0,.54.09.7.28.16.19.24.42.24.69s-.09.53-.26.76c-.17.23-.44.35-.8.35h-.02Z"/>
      <path class="st1" d="M-171.84,45.69c-.56,0-1-.13-1.32-.39-.32-.26-.49-.76-.49-1.5v-6.65h-1.28v-.68c.1-.02.22-.05.35-.08s.26-.06.38-.1c.12-.03.2-.07.25-.09.06-.04.11-.08.16-.13s.08-.1.12-.17c.04-.06.07-.14.11-.24.05-.14.11-.34.18-.61.07-.27.14-.53.2-.79.07-.26.11-.43.13-.54h.76v2.4h3.01v1.01h-3.01v5.46c0,.62.02,1.08.07,1.36s.15.46.3.54.38.11.69.11c.35,0,.72-.05,1.13-.14.4-.09.7-.19.88-.28l.22.64c-.16.12-.4.25-.71.38-.31.13-.65.24-1.02.34-.37.09-.74.14-1.11.14Z"/>
      <path class="st1" d="M-166.47,49.72c-.15,0-.3-.01-.44-.03s-.24-.05-.31-.08v-1.27c.07.03.18.06.33.08.15.02.3.03.45.03.2,0,.41-.03.62-.1s.43-.2.65-.39.45-.49.68-.88c.23-.39.46-.91.69-1.56h-.74l-3.23-8.46-.79-.22v-.69h3.73v.69l-1.37.2,1.77,5.17.88,2.75.84-2.77,1.59-5.15-1.18-.2v-.69h3.24v.69l-.88.2c-.4,1.23-.75,2.3-1.05,3.22-.3.91-.56,1.69-.77,2.33-.21.64-.39,1.18-.54,1.6s-.26.76-.35,1.02c-.09.25-.17.44-.22.57-.35.86-.68,1.59-.99,2.17s-.67,1.03-1.08,1.33c-.41.3-.92.45-1.54.45Z"/>
    </g>
    <g id="apple">
      <path class="st4" d="M-34.72,13.42c0,.06-.01.12-.04.18-.1.22-.21.41-.37.59-.08.1-.19.14-.29.15-.01.01-.02.03-.04.04,0,0,0,0,0,0,.06.08.11.17.12.3.01.23-.08.43-.24.59-.17.17-.41.18-.61.09.05.17.1.33.17.49.12.27.08.57-.19.73-.03.02-.07.03-.11.04.42,1.93.21,2.72.17,2.88.08.3.43.58.9.62.58.05.67-.38.7-.9.19-1.82.06-3.95-.17-5.81Z"/>
      <path class="st4" d="M-35.39,17.9c.31.01.61.03.91.12.14-3.76-.67-7.33-.93-8.8-.05-.3-.34-.5-.64-.45-.66.12-1.59.44-2.18.65-.31.11-.45.47-.31.77,1.8,3.97,2.35,6.36,2.49,7.72.22,0,.45-.02.67,0Z"/>
      <path class="st4" d="M-34.75,15.32c.04-3.32,4.12-2.89,6.19-2.8,2.25.1,4.11.09,6.56-1.27,2.45-1.36,3.69-3.52,4.04-3.97.28-.37,1.35-1.65,1.78-1.73.43-.08.35-.4.15-.46-.2-.06-2.65-.75-3.39-.91s-5.42-1.52-9.68,1.52c-4.27,3.04-5.68,7.22-5.85,7.59-.1.22.21,2.04.21,2.04"/>
      <path class="st4" d="M-36.27,16.34c-.15-.31-1.48-3.28-5.04-5.8-3.56-2.53-7.43-1.28-8.05-1.2-.63.08-2.59.61-2.75.66-.17.04-.22.31.13.38.36.07.89.49,1.17.88.28.38,1.76,2.64,3.8,3.78,2.04,1.14,3.48,1.23,5.34,1.15,1.7-.07,5.49.06,5.67,2.39,0,0-.18-2.04-.26-2.22Z"/>
    </g>
    <path d="M-104.67,151.45c-.33-1.68-.84-3.31-1.54-4.89-.9-2.01-2.12-3.78-3.82-5.17-1.5-1.23-3.22-1.98-5.14-2.35-1.76-.34-3.49-.32-5.16.21-1.27.41-2.52.99-3.67,1.69-.42.25-.83.52-1.24.78-5.21,2.64-9.64,1.74-11.94.9-1.48-.64-2.91-1.4-4.37-2.08-1.38-.65-2.81-1.14-4.33-1.32-1.97-.24-3.84.09-5.69.82-2.58,1.01-4.62,2.7-6.28,4.87-1.74,2.27-3,4.79-3.6,7.6-.35,1.63-.68,3.27-.8,4.93-.28,3.68.15,7.32,1.14,10.88.54,1.96,1.03,3.94,1.76,5.83.79,2.05,1.77,4.04,2.78,6,1.51,2.95,3.48,5.59,5.85,7.9,2.45,2.38,5.27,3.98,8.84,3.65.72-.07,1.47-.23,2.12-.52,1.33-.59,2.58-1.33,3.9-1.93.75-.34,1.56-.61,2.37-.76,1.42-.26,2.66.33,3.82,1.1,1.31.86,2.73,1.47,4.3,1.64,2.07.23,4.08-.12,5.99-.95,2.25-.97,4.14-2.45,5.67-4.34,1.1-1.36,2.16-2.79,3.03-4.31,1.16-2.04,2.2-4.16,3.14-6.31.69-1.58,1.19-3.24,1.69-4.89.44-1.47.82-2.96,1.11-4.47.29-1.48.49-2.98.61-4.48.28-3.35.13-6.7-.51-10Z"/>
    <path d="M-35.64,92.26c-.19-.98-.49-1.93-.9-2.85-.52-1.17-1.23-2.2-2.23-3.01-.87-.72-1.87-1.15-3-1.37-1.03-.2-2.03-.19-3.01.12-.74.24-1.47.58-2.14.98-.24.15-.48.3-.72.46-3.03,1.54-5.62,1.01-6.96.52-.86-.37-1.7-.81-2.55-1.21-.8-.38-1.64-.67-2.53-.77-1.15-.14-2.24.05-3.31.48-1.5.59-2.69,1.57-3.66,2.84-1.01,1.33-1.75,2.79-2.1,4.43-.2.95-.4,1.91-.47,2.87-.16,2.15.09,4.26.66,6.34.31,1.14.6,2.29,1.03,3.39.46,1.2,1.03,2.35,1.62,3.49.88,1.72,2.02,3.26,3.41,4.6,1.43,1.39,3.07,2.32,5.15,2.12.42-.04.85-.13,1.24-.3.77-.34,1.5-.78,2.27-1.13.44-.2.91-.36,1.38-.44.83-.15,1.55.2,2.22.64.76.5,1.59.85,2.5.95,1.21.13,2.38-.07,3.49-.55,1.31-.56,2.41-1.43,3.3-2.53.64-.79,1.26-1.63,1.76-2.51.68-1.19,1.28-2.42,1.83-3.67.4-.92.69-1.89.98-2.85.26-.86.48-1.73.65-2.6.17-.86.28-1.74.36-2.61.17-1.95.08-3.9-.3-5.83Z"/>
    <g>
      <path d="M-88.3,1.81s.03.06.07.06c.13,0,.26,0,.39,0h0c.08,0,.17,0,.25,0,.27-.03.54-.07.81-.1.04,0,.08-.01.12-.02.11-.03.22-.05.33-.08.09-.02.19-.04.28-.07.06-.02.12-.04.18-.06.12-.04.24-.09.35-.14.1-.04.2-.08.3-.12.09-.04.17-.09.26-.14.14-.08.28-.15.4-.23.18-.12.35-.26.53-.4.11-.09.22-.19.32-.3.14-.15.28-.31.4-.48.1-.14.19-.28.29-.43.06-.1.12-.21.18-.32.05-.09.09-.19.13-.29.05-.12.09-.24.12-.36.05-.16.1-.31.14-.47.04-.18.07-.37.09-.55.02-.25.03-.51.04-.77,0-.05-.02-.06-.07-.06-.12.02-.24.03-.36.05-.09.01-.18.02-.27.04-.24.04-.48.08-.72.12-.22.04-.43.08-.65.12-.01,0-.02,0-.03,0-.1.03-.2.06-.29.08-.09.02-.19.05-.29.07-.06.02-.12.03-.17.05-.17.06-.34.13-.51.19-.11.04-.22.08-.32.12-.16.08-.32.16-.48.25-.18.1-.35.21-.52.33-.22.16-.42.35-.6.56-.18.21-.33.44-.44.68-.08.18-.15.36-.21.55-.05.15-.08.32-.11.48-.03.21-.05.43-.05.64,0,.18.01.36.03.54.01.15.03.3.05.46Z"/>
      <path d="M-92.67.17c.02.1.05.19.08.28.02.07.05.14.07.22.02.06.05.12.08.17.03.07.07.13.11.19.05.09.11.18.17.26.08.1.16.19.24.29.06.06.13.13.19.18.1.08.21.16.32.24.08.05.16.1.24.14.05.03.1.06.16.08.06.03.12.05.18.07.07.03.14.06.21.08.04.01.07.03.11.04.06.01.11.03.17.04.07.02.13.03.2.05.02,0,.05,0,.07.01.16.02.32.04.49.06.05,0,.1,0,.15,0h0c.08,0,.16,0,.23,0,.03,0,.04,0,.04-.04.01-.09.02-.18.03-.27,0-.11.02-.22.02-.32,0-.13-.01-.26-.03-.38-.01-.1-.03-.19-.06-.29-.03-.11-.07-.22-.13-.33-.07-.15-.16-.28-.27-.41-.11-.13-.23-.24-.36-.34-.1-.07-.2-.14-.31-.2-.09-.05-.19-.1-.29-.15-.06-.03-.13-.05-.19-.07-.1-.04-.21-.08-.31-.11-.03-.01-.07-.02-.1-.03-.06-.01-.11-.03-.17-.04-.06-.02-.12-.03-.18-.05,0,0-.01,0-.02,0-.13-.02-.26-.05-.39-.07-.14-.03-.29-.05-.43-.07-.05,0-.11-.01-.16-.02-.07,0-.14-.02-.22-.03-.03,0-.04,0-.04.03,0,.15,0,.31.02.46,0,.11.03.22.05.33Z"/>
      <path d="M-77.09,10.57c.05-6.63-6.07-10.06-11.86-6.39-1.17.26-1.89-.99-2.87-1.4-2.12-1.05-4.78-.18-6.59,1.15-3.44,2.54-3.7,8.43-1.95,13.27.02,0,.02.06.03.07.04.12.09.24.13.37.03.07.06.14.09.21.06.13.11.27.17.4.05.13.11.25.16.38.06.13.12.25.17.37.05.11.1.23.16.34.08.15.16.31.24.46.08.14.16.29.24.43.1.16.19.32.29.48.09.15.19.31.29.46.12.17.24.35.37.51.16.21.33.43.51.63.25.28.51.55.78.82.16.16.34.3.51.44.17.13.34.26.52.37.16.11.33.2.5.29.18.09.36.16.55.22.22.07.44.14.67.18.24.04.48.04.72.06.47.04.94,0,1.41-.06.14-.02.29-.04.42-.08.18-.05.36-.11.53-.18.17-.07.35-.13.51-.23.26-.15.51-.32.76-.47.11-.07.22-.11.34-.1.22.01.4.12.58.22.21.13.41.28.61.42.13.09.25.19.38.28.21.13.42.25.64.36.16.08.34.14.52.18.28.05.56.04.85,0,.03,0,.07-.01.1-.02.11-.03.22-.06.33-.1.13-.05.27-.1.4-.16.11-.05.22-.12.33-.18.13-.07.27-.14.4-.22.13-.08.26-.17.39-.25.14-.09.28-.18.41-.28.22-.17.44-.34.65-.51.19-.16.38-.32.56-.49.31-.3.6-.62.9-.93.13-.14.25-.28.37-.43.17-.22.35-.44.51-.67.13-.17.25-.35.36-.52.12-.19.25-.38.36-.57.1-.16.2-.33.29-.5.08-.14.16-.29.23-.43.1-.19.2-.39.3-.59.08-.17.15-.34.23-.52.1-.23.21-.46.3-.7.11-.28.2-.56.3-.84.03-.08.05-.16.08-.23.03-.1.07-.2.1-.3.03-.12.06-.24.09-.35.02-.09.05-.17.07-.26.04-.13.08-.26.11-.39.03-.15.06-.3.09-.45.06-.29.12-.59.17-.89.04-.27.06-.54.09-.81.02-.21.04-.41.06-.62,0-.1.01-.2.02-.3v-.93s0,0,0,0ZM-80.17,17.91c-.1.21-.39.73-.61,1.13-.08.14-.17.27-.25.41-.1.16-.21.32-.32.48-.11.16-.23.31-.35.46-.15.18-.29.36-.45.54-.16.18-.32.36-.48.53-.17.18-.35.35-.53.52-.16.14-.32.28-.49.41-.16.13-.32.25-.48.37-.15.11-.3.21-.46.31-.2.13-.4.25-.61.37-.2.11-.4.21-.63.24-.17.03-.34.02-.51-.02-.14-.03-.27-.1-.4-.17-.15-.09-.3-.18-.45-.29-.18-.12-.34-.26-.52-.38-.07-.05-.13-.09-.2-.13-.64-.56-1.73-.51-2.49-.04,0,0,0,0-.01,0-.02,0-.04.02-.06.03-.14.06-.27.12-.41.17-.21.08-.43.16-.65.24,0,0-.02.01-.03.01-.2.05-.4.1-.6.14-.37.06-.73.12-1.11.1-.21,0-.41-.03-.62-.07-.19-.04-.37-.1-.55-.16-.04-.01-.08-.04-.12-.06-.26-.12-.49-.28-.72-.45-.37-.28-.7-.59-1.01-.93-.1-.11-.2-.22-.3-.33-.14-.17-.28-.35-.41-.53-.09-.12-.17-.25-.26-.37-.1-.15-.19-.29-.28-.44-.12-.2-.23-.4-.34-.6-.07-.13-.14-.27-.22-.4-.08-.15-.16-.29-.23-.44-.06-.12-.11-.25-.16-.37-.01-.03-.03-.05-.04-.08-.07-.15-.14-.3-.2-.45-.08-.2-.16-.4-.23-.6-.07-.19-.14-.39-.2-.59-.08-.23-.16-.46-.23-.69-.03-.1-.05-.19-.08-.29-.07-.26-.14-.52-.2-.78-.04-.17-.08-.35-.12-.52-.04-.2-.07-.41-.1-.61-.03-.18-.05-.36-.08-.54-.11-.76-.13-1.51-.11-2.28,0-.04,0-.08,0-.12,0-.04-.02-.08-.03-.12.13-1.63.61-3.2,1.53-4.57,1.64-2.02,5.1-3.29,7.2-1.26,1.35.76-2.68,1.9-3.35,2.19,3.38.37,6.36-1.67,9.4-2.78,3.71-.88,6.86,2.29,6.84,5.92.1,2.88-.37,5.29-1.7,7.86Z"/>
    </g>
    <path class="st8" d="M-186.37,115.37c2.38.02,4.46,1.17,6.7.45,4.14-1.32,10.56-7.31,11.69-19.31.86-9.13-2.47-14.03-8.19-15.99-2.77-.95-6.67.28-9.98.25h.23c-3.3-.02-6.06-1.71-9.47-.88-5.88,1.43-10.86,7.22-9.99,16.35.91,9.64,6.29,19.06,12.43,19.48,2.35.16,4.33-.37,6.72-.35h-.13Z"/>
    <path class="st0" d="M-186.91,156.99c2.38.02,4.46,1.17,6.7.45,4.14-1.32,9.57-9.68,10.64-19.31,1.01-9.11-1.46-13.47-7.18-15.42-2.77-.95-6.63-.29-9.94-.32h.23c-3.3-.02-7.15-.75-9.94.16-5.75,1.87-8.29,6.18-7.42,15.31.91,9.64,6.2,18.09,10.32,19.48,2.23.75,4.33-.37,6.72-.35h-.13Z"/>
    <path d="M-39.02-5.22c-.01.1-.06.13-.16.13-.29,0-.57,0-.86,0v-.02c-.19,0-.37.02-.55,0-.6-.07-1.19-.14-1.78-.22-.09-.01-.18-.02-.27-.04-.25-.06-.49-.12-.74-.18-.21-.05-.41-.1-.62-.15-.14-.04-.27-.08-.41-.13-.26-.1-.52-.2-.78-.3-.22-.09-.44-.17-.66-.27-.19-.09-.38-.19-.57-.3-.3-.17-.61-.32-.89-.52-.4-.27-.78-.57-1.16-.88-.25-.2-.49-.43-.71-.67-.31-.34-.61-.68-.89-1.05-.23-.3-.43-.63-.63-.95-.14-.23-.27-.47-.39-.71-.11-.21-.21-.42-.29-.64-.1-.26-.19-.53-.28-.79-.11-.35-.22-.69-.3-1.05-.09-.4-.16-.81-.2-1.21-.05-.56-.06-1.13-.09-1.69,0-.11.05-.14.15-.13.26.04.53.07.79.11.2.03.39.05.59.08.53.09,1.05.17,1.58.27.48.08.95.18,1.42.27.02,0,.04.01.07.02.22.06.43.12.65.18.21.05.42.1.63.15.13.03.26.07.38.12.38.14.76.28,1.13.42.24.09.48.17.7.27.36.17.71.35,1.05.55.39.23.78.46,1.14.73.49.36.92.78,1.32,1.24.39.46.72.97.98,1.51.19.39.33.8.46,1.21.11.34.19.7.23,1.05.06.47.1.94.11,1.41,0,.4-.03.79-.06,1.19-.03.34-.08.67-.11,1Z"/>
    <path d="M-29.38-8.84c-.05.21-.12.42-.18.63-.05.16-.1.32-.17.48-.05.13-.11.26-.17.38-.07.14-.15.29-.23.43-.12.19-.24.39-.38.57-.17.22-.35.43-.54.63-.13.14-.28.28-.43.4-.23.18-.46.36-.7.53-.17.12-.35.21-.53.31-.11.06-.23.13-.34.18-.13.06-.26.11-.4.16-.16.06-.31.12-.47.18-.08.03-.16.06-.24.08-.12.03-.25.06-.37.09-.15.04-.29.07-.44.11-.05.01-.11.02-.16.03-.36.04-.71.09-1.07.13-.11.01-.22,0-.33,0h0c-.17,0-.34,0-.52.01-.06,0-.09-.02-.09-.08-.02-.2-.05-.4-.07-.6-.02-.24-.04-.48-.04-.71,0-.28.03-.57.07-.85.03-.21.08-.43.14-.63.08-.25.17-.49.28-.72.16-.33.35-.63.59-.9.24-.28.5-.53.79-.74.22-.16.45-.3.69-.44.2-.12.42-.23.63-.33.14-.06.28-.11.42-.16.23-.08.45-.17.68-.25.07-.03.15-.05.23-.07.13-.03.25-.06.38-.09.13-.03.26-.07.39-.11.01,0,.03,0,.04-.01.28-.05.57-.11.85-.16.32-.06.63-.11.95-.16.12-.02.24-.03.35-.05.16-.02.32-.04.48-.06.06,0,.09,0,.09.08-.02.34-.02.68-.05,1.01-.02.24-.07.49-.12.73Z"/>
    <path d="M-80.75-27.49c.45-5.04-.48-10.33-3.61-14.39-2.7-3.5-6.9-5.99-11.46-5.6-4.63.4-9.03,3.49-13.74,2.98-3.36-.37-5.88-3.01-9.33-3.39-6.38-.71-12,3.72-14.52,9.28-.58,1.28-1.43,3.68-1.52,5.05l-.1.9s-.08.49-.09.58c-.98,9.44,4.14,21.54,10.55,28.35.15.16.34.37.51.52.04.06.07.12.17.22,0,0,.02.02.03.03.03.04.06.07.1.11.07.07.14.13.23.18.09.09.19.18.27.25,1.41,1.32,3.68,2.7,5.64,2.84,3.95.28,7.34-2.43,11.39-1.7,2.11.38,4.08,1.44,6.26,1.52,4.02.15,7.34-3.06,9.79-5.87,4.55-5.24,8.07-12.53,9.14-19.42.02-.13.04-.26.06-.39.05-.19.09-.38.12-.57.04-.26.08-.48,0-.09.06-.39.07-.47.03-.24-.03.17-.03.15,0-.06.02-.21.03-.41.03-.62l.02-.15s0-.03-.01-.04c0-.09,0-.18.01-.26,0,0,.01,0,.02,0Z"/>
    <path class="st6" d="M-108.78,22.89c4.84,0,8.73,3.81,10.44,7.59.6,1.32,1.21,3.27,1.26,4.02,0,.05,0,.1.01.15l.1.9c.01.12.04.25.07.37.01.07.02.15.02.18.91,8.82-4.24,20.14-9.75,25.99l-.09.09c-.08.09-.17.19-.26.27-.13.12-.26.26-.37.4-.1.08-.19.16-.27.25l-.03.02c-.06.05-.11.1-.16.14-1.17,1.09-2.81,1.97-3.81,2.04-.12,0-.25.01-.37.01-1.18,0-2.46-.39-3.82-.8-1.64-.49-3.5-1.05-5.57-1.05-.66,0-1.32.06-1.96.17-1.05.19-2,.49-2.92.79-1.05.34-2.04.65-2.93.69-.05,0-.11,0-.16,0-2.69,0-5.29-2.59-7.25-4.85-4.25-4.89-7.48-11.75-8.44-17.91l-.03-.18-.03-.2c-.01-.09-.03-.19-.06-.28-.02-.08-.04-.17-.05-.25,0-.02,0-.04,0-.06,0-.11-.02-.21-.03-.28,0-.11-.01-.22-.01-.34,0-.03,0-.07,0-.1,0-.04,0-.07,0-.11,0-.12,0-.23-.02-.35,0-.14-.03-.28-.05-.42-.36-4.72.71-8.96,3.03-11.96,2.16-2.8,5.2-4.47,8.13-4.47.23,0,.46.01.69.03,1.61.14,3.32.72,5.14,1.34,2.44.84,4.97,1.7,7.79,1.7.47,0,.95-.03,1.41-.08,2.21-.24,4.03-1.17,5.63-1.98,1.34-.68,2.51-1.27,3.7-1.41.34-.04.68-.06,1.01-.06M-108.78,19.89c-.44,0-.89.02-1.34.07-3.45.38-5.97,3.02-9.33,3.39-.36.04-.72.06-1.08.06-4.31,0-8.39-2.66-12.66-3.03-.32-.03-.64-.04-.95-.04-4.18,0-7.99,2.38-10.51,5.64-3.13,4.06-4.06,9.35-3.61,14.39,0,0,.01,0,.02,0,0,.09,0,.18.01.26,0,.01-.01.02-.01.04l.02.15c0,.21.01.41.03.62.02.12.03.18.02.18,0,0,0-.04-.02-.12-.01-.09-.02-.13-.02-.13,0,0,.02.12.05.37-.03-.15-.04-.21-.04-.21,0,0,.02.14.05.3.03.19.07.38.12.57.02.13.04.26.06.39,1.07,6.89,4.59,14.18,9.14,19.42,2.39,2.75,5.61,5.88,9.51,5.88.09,0,.18,0,.27,0,2.18-.08,4.16-1.14,6.26-1.52.48-.09.96-.13,1.43-.13,3.25,0,6.15,1.85,9.38,1.85.19,0,.39,0,.58-.02,1.96-.14,4.23-1.52,5.64-2.84.08-.07.18-.16.27-.25.08-.05.16-.11.23-.18.04-.04.07-.07.1-.11,0,0,.02-.02.03-.03.1-.1.14-.16.17-.22.17-.15.36-.37.51-.52,6.42-6.81,11.53-18.92,10.55-28.35,0-.09-.07-.57-.09-.58l-.1-.9c-.09-1.38-.94-3.77-1.52-5.05-2.34-5.17-7.36-9.36-13.18-9.36h0Z"/>
    <g>
      <path d="M-95.84-49.24c.19-.23.38-.45.59-.67,1.97-2.41,5.91-4.92,11.41-3.56,1.69.56,2.78,1.13,4,2.18h0s0,0,0,0c.1.09.21.2.32.29.77.63,2.94,1.93,6.42.45,2.18-.97,4.34-1.97,6.51-2.76,5.91-1.4,11.19,1.88,13.64,6.82.08-.1.14-.22.22-.31.44-.48.97-.82,1.58-1.01.23-.12.47-.16.72-.23-4.2-8.29-14.4-11.32-24.18-5.13-2.59.57-4.17-2.18-6.32-3.08-4.68-2.32-10.55-.39-14.54,2.53-7.59,5.6-8.16,18.59-4.31,29.28.04.02.04.14.08.16.1.27.2.54.3.81.06.16.13.31.19.47.12.3.24.59.37.89.12.28.23.56.36.84.12.28.26.55.39.83.12.25.23.5.35.74.17.34.35.67.53,1.01.17.32.35.63.53.95.21.36.43.71.64,1.06.21.34.42.68.64,1,.26.39.54.76.82,1.13.36.47.72.95,1.11,1.39.56.62,1.13,1.22,1.73,1.81.35.35.74.66,1.14.96.37.29.76.57,1.16.82.36.23.72.45,1.11.64.39.19.8.36,1.22.49.48.16.97.3,1.47.39.52.09,1.05.1,1.58.14,1.04.08,2.08-.01,3.12-.13.31-.04.63-.09.93-.18.4-.11.79-.24,1.18-.39.38-.15.76-.3,1.12-.5.57-.33,1.12-.7,1.68-1.05.23-.15.48-.24.76-.23.48.02.89.26,1.28.49.47.28.91.62,1.35.93.28.2.54.43.83.61.46.28.93.56,1.42.79.36.17.75.32,1.14.4.62.12,1.24.08,1.87,0,.08,0,.15-.03.22-.05.25-.07.5-.14.74-.23.3-.11.59-.22.87-.35.25-.11.48-.26.72-.39.29-.16.59-.31.87-.48.29-.18.58-.37.87-.56.31-.2.62-.4.91-.62.48-.37.96-.74,1.43-1.13.42-.35.85-.7,1.24-1.09.68-.67,1.33-1.36,1.98-2.06.17-.18.33-.38.49-.57-.88-.4-1.65-1.08-2.21-1.96-.12.14-.23.29-.36.43-.34.4-.7.79-1.06,1.16-.38.39-.76.77-1.16,1.14-.35.32-.71.62-1.08.91-.35.28-.71.56-1.07.82-.33.24-.67.47-1.02.68-.44.28-.89.56-1.35.81-.44.23-.87.46-1.38.53-.39.06-.76.04-1.12-.05-.31-.08-.6-.22-.88-.37-.34-.19-.67-.41-.99-.63-.39-.27-.76-.56-1.15-.83-.14-.1-.29-.19-.44-.29-1.42-1.23-3.82-1.12-5.5-.08,0,0-.02,0-.02,0-.04.02-.09.04-.13.06-.3.13-.6.26-.91.38-.47.18-.95.35-1.42.53-.02,0-.04.02-.06.03-.44.1-.88.23-1.33.3-.81.12-1.62.26-2.44.22-.46-.02-.91-.06-1.36-.15-.41-.08-.81-.23-1.21-.35-.09-.03-.18-.09-.27-.13-.56-.27-1.08-.61-1.59-.98-.81-.61-1.55-1.29-2.22-2.05-.22-.24-.45-.47-.65-.73-.31-.38-.61-.78-.91-1.17-.2-.27-.38-.54-.57-.82-.21-.32-.43-.64-.62-.97-.26-.44-.5-.88-.75-1.32-.16-.29-.32-.59-.48-.89-.17-.32-.35-.64-.52-.97-.13-.27-.24-.54-.36-.81-.03-.06-.07-.11-.1-.17-.15-.33-.31-.66-.44-.99-.18-.44-.35-.88-.51-1.32-.16-.43-.3-.86-.45-1.29-.17-.51-.35-1.02-.51-1.53-.07-.21-.11-.43-.17-.65-.15-.57-.3-1.14-.44-1.72-.09-.38-.18-.77-.25-1.15-.09-.45-.16-.9-.23-1.35-.06-.39-.11-.79-.17-1.18-.24-1.67-.3-3.34-.24-5.02,0-.09,0-.17.01-.26-.02-.09-.04-.18-.06-.27.24-2.94,1-5.79,2.37-8.39h-.01s.08-.15.22-.4c.25-.44.51-.88.79-1.3Z"/>
      <path d="M-51.7-45.78c1.93,0,1.93-3,0-3s-1.93,3,0,3h0Z"/>
    </g>
    <path class="st6" d="M-43.89,23.63h0c1.34,0,2.82.57,4.39,1.17,1.92.73,4.08,1.56,6.54,1.58h0s.06,0,.06,0h.26s0,0,0,0c2.28-.11,4.5-.82,6.65-1.51,1.87-.6,3.64-1.16,4.99-1.16.33,0,.62.04.85.11,2.66.79,10.75,3.19,9.77,17.79-.44,6.54-2.32,12.35-5.42,16.79-3.38,4.83-6.89,6.31-7.89,6.65-.12.04-.24.06-.38.06-.65,0-1.6-.39-2.6-.8-1.5-.62-3.19-1.31-5.18-1.31h-.01s0,0,0,0h-.07s-.11,0-.11,0h0c-2.04.08-3.78.76-5.32,1.36-1.29.5-2.41.94-3.43.94h-.12c-6.47-.23-13.49-10.84-15.01-22.71-.63-4.9.23-9.3,2.5-12.74,1.98-3,4.97-5.15,8.42-6.07.37-.1.74-.15,1.14-.15M-43.89,20.63c-.62,0-1.26.07-1.91.25-8.04,2.13-14.68,10.02-13.12,22.09,1.63,12.74,9.41,25.03,17.88,25.32.08,0,.15,0,.23,0,3.1,0,5.74-2.18,8.89-2.3-.02,0-.04,0-.05,0h.11s.04,0,.06,0h-.06s-.04,0-.06,0c.02,0,.04,0,.06,0,2.75,0,5.24,2.11,7.78,2.11.45,0,.9-.07,1.35-.22,5.66-1.92,14.26-10.12,15.34-26.08.82-12.14-3.95-18.51-11.9-20.87-.54-.16-1.11-.23-1.71-.23-3.57,0-7.97,2.51-11.84,2.68.04,0,.09,0,.13,0h-.26s-.03,0-.05,0h.05s.09,0,.13,0c-.02,0-.03,0-.05,0-3.84,0-7.21-2.75-11-2.75h0Z"/>
    <g>
      <path class="st6" d="M4.82,146.85c-.11-.03-.23-.07-.33-.13-.08-.05-.15-.11-.22-.15-.03-.02-.07-.04-.1-.06-.05-.03-.1-.07-.14-.11-.01-.01-.03-.02-.04-.04-.02-.02-.03-.06-.05-.08-.55-.23-1.08-.52-1.56-.9-1.96,2.91-4.68,5.62-8.34,6.8-.15.03-.32.04-.52.04-.81,0-1.82-.24-2.9-.5-1.35-.32-2.74-.66-4.26-.66h-.18s-.04,0-.04,0c-1.71.04-3.27.38-4.79.71-1.38.3-2.68.58-3.88.58-.21,0-.41,0-.6-.02-3.7-.67-6.96-3.33-9.69-7.92-2.32-3.89-4.11-9.06-4.93-14.2-1.79-10.61,4.32-17.91,10.96-19.4h.03s.03-.02.03-.02c.46-.11.94-.17,1.46-.17,1.38,0,2.87.39,4.46.8,1.87.49,3.8.99,5.91.99.43,0,.85-.02,1.26-.06,1.66-.14,3.35-.51,4.99-.86,1.89-.41,3.67-.79,5.15-.79.29,0,.57.02.81.05,3.61.68,6.33,2.56,8.11,5.59.01.02.19.27.21.3.68-.72,1.49-1.37,2.49-1.61-2.08-3.62-5.45-6.35-10.33-7.24-.42-.06-.85-.09-1.29-.09-3.23,0-7.1,1.4-10.42,1.67-.33.03-.66.05-.98.05-3.47,0-6.86-1.79-10.37-1.79-.72,0-1.45.08-2.19.26-8.68,1.94-15.21,11.25-13.27,22.83,1.52,9.59,6.91,22.86,17.18,24.6.33.03.67.05,1,.05,2.95,0,5.8-1.21,8.75-1.29h.14s.02,0,.03,0c2.27,0,4.81,1.16,7.12,1.16.44,0,.87-.04,1.29-.14,4.16-1.29,7.46-4.19,10.06-8.06-.01-.01.05-.13.04-.14-.03,0-.06-.02-.09-.02Z"/>
      <circle class="st6" cx="6.82" cy="115.7" r="1.49"/>
      <circle class="st6" cx="3.61" cy="146.22" r="1.49"/>
    </g>
    <path class="st5" d="M75.24,96.11s-7.31-8.64-18.9-.82c0,0-.57.5-1.61-.08s-19.57-9.91-23.04,13.85,17.36,27.51,17.36,27.51c0,0,3.71.84,7.73-2.04,0,0,1.14-1.13,3.02.19s7.1.56,9.02-1.69.09.74.09.74c0,0-3.14,5.23-10.38,1.67,0,0-.76-.96-2.5.96,0,0-23.74,10.05-28.98-24.55,0,0-4.79-29.94,28.14-18.65,0,0,.68.56,1.69-.19s11.03-6.9,19.13,2.24c0,0,.58.53.55,1.42,0,0-.19.53-1.3-.53Z"/>
    <text class="st2" transform="translate(24 86.66)"><tspan x="0" y="0">UNIFIED SCHOOL DISTRICT</tspan></text>
    <g>
      <path class="st3" d="M29.44,50.79c0,1.56-.89,2.37-2.23,2.37s-2.22-.81-2.22-2.32v-3.11h.6v3.07c0,1.15.61,1.8,1.63,1.8s1.61-.6,1.61-1.76v-3.11h.6v3.06Z"/>
      <path class="st3" d="M35.76,47.73h.59v5.34h-.48l-3.45-4.38v4.38h-.59v-5.34h.56l3.37,4.28v-4.28Z"/>
      <path class="st3" d="M39.48,47.73v5.34h-.6v-5.34h.6Z"/>
      <path class="st3" d="M45.85,48.29h-3.24v1.91h2.89v.55h-2.89v2.33h-.6v-5.34h3.84v.56Z"/>
      <path class="st3" d="M48.64,47.73v5.34h-.6v-5.34h.6Z"/>
      <path class="st3" d="M55.03,48.28h-3.26v1.82h2.92v.55h-2.92v1.87h3.3v.55h-3.9v-5.34h3.86v.55Z"/>
      <path class="st3" d="M59.1,53.07h-1.86v-5.34h1.86c1.68,0,2.84,1.15,2.84,2.66s-1.16,2.68-2.84,2.68ZM59.1,48.29h-1.25v4.23h1.25c1.35,0,2.21-.92,2.21-2.11s-.86-2.12-2.21-2.12Z"/>
      <path class="st3" d="M69.35,50.11c1.19.26,1.74.69,1.74,1.52,0,.92-.76,1.52-1.82,1.52-.85,0-1.54-.28-2.18-.86l.37-.44c.56.5,1.09.76,1.83.76s1.19-.37,1.19-.92c0-.5-.27-.79-1.39-1.02-1.23-.27-1.79-.66-1.79-1.55s.74-1.47,1.76-1.47c.78,0,1.34.22,1.88.66l-.35.47c-.5-.4-.99-.58-1.54-.58-.69,0-1.14.38-1.14.87s.27.79,1.45,1.05Z"/>
      <path class="st3" d="M75.72,53.17c-1.54,0-2.68-1.21-2.68-2.76s1.13-2.77,2.7-2.77c.97,0,1.55.34,2.08.85l-.41.44c-.45-.43-.95-.73-1.68-.73-1.18,0-2.07.95-2.07,2.2s.89,2.21,2.07,2.21c.73,0,1.21-.28,1.73-.77l.4.39c-.56.57-1.17.94-2.14.94Z"/>
      <path class="st3" d="M80.48,50.67v2.41h-.6v-5.34h.6v2.37h3.08v-2.37h.6v5.34h-.6v-2.41h-3.08Z"/>
      <path class="st3" d="M89.12,53.17c-1.63,0-2.72-1.28-2.72-2.76s1.11-2.77,2.73-2.77,2.72,1.28,2.72,2.76-1.11,2.77-2.73,2.77ZM89.12,48.2c-1.22,0-2.09.98-2.09,2.2s.89,2.21,2.11,2.21,2.09-.98,2.09-2.2-.89-2.21-2.11-2.21Z"/>
      <path class="st3" d="M96.58,53.17c-1.63,0-2.72-1.28-2.72-2.76s1.11-2.77,2.73-2.77,2.72,1.28,2.72,2.76-1.11,2.77-2.73,2.77ZM96.58,48.2c-1.22,0-2.09.98-2.09,2.2s.89,2.21,2.11,2.21,2.09-.98,2.09-2.2-.89-2.21-2.11-2.21Z"/>
      <path class="st3" d="M101.55,47.73h.6v4.79h3.01v.56h-3.61v-5.34Z"/>
      <path class="st3" d="M112.35,53.07h-1.86v-5.34h1.86c1.68,0,2.84,1.15,2.84,2.66s-1.16,2.68-2.84,2.68ZM112.35,48.29h-1.25v4.23h1.25c1.35,0,2.21-.92,2.21-2.11s-.86-2.12-2.21-2.12Z"/>
      <path class="st3" d="M118.08,47.73v5.34h-.6v-5.34h.6Z"/>
      <path class="st3" d="M122.53,50.11c1.19.26,1.74.69,1.74,1.52,0,.92-.76,1.52-1.82,1.52-.85,0-1.54-.28-2.18-.86l.37-.44c.56.5,1.09.76,1.83.76s1.19-.37,1.19-.92c0-.5-.27-.79-1.39-1.02-1.23-.27-1.79-.66-1.79-1.55s.74-1.47,1.76-1.47c.78,0,1.34.22,1.88.66l-.35.47c-.5-.4-.99-.58-1.54-.58-.69,0-1.14.38-1.14.87s.27.79,1.45,1.05Z"/>
      <path class="st3" d="M128.37,53.07h-.61v-4.79h-1.79v-.56h4.2v.56h-1.79v4.79Z"/>
      <path class="st3" d="M135.93,53.07l-1.55-2.08h-1.53v2.08h-.6v-5.34h2.3c1.18,0,1.93.63,1.93,1.6,0,.89-.61,1.41-1.45,1.57l1.64,2.18h-.74ZM134.51,48.29h-1.65v2.17h1.64c.8,0,1.37-.41,1.37-1.11s-.5-1.06-1.37-1.06Z"/>
      <path class="st3" d="M139.39,47.73v5.34h-.6v-5.34h.6Z"/>
      <path class="st3" d="M144.36,53.17c-1.54,0-2.68-1.21-2.68-2.76s1.13-2.77,2.7-2.77c.97,0,1.55.34,2.08.85l-.41.44c-.45-.43-.95-.73-1.68-.73-1.18,0-2.07.95-2.07,2.2s.89,2.21,2.07,2.21c.73,0,1.21-.28,1.73-.77l.4.39c-.56.57-1.17.94-2.14.94Z"/>
      <path class="st3" d="M150.54,53.07h-.61v-4.79h-1.79v-.56h4.2v.56h-1.79v4.79Z"/>
    </g>
    <g>
      <path class="st1" d="M-183.56,32.69c-1.05,0-2-.11-2.84-.32-.84-.21-1.56-.43-2.15-.65-.59-.22-1.04-.34-1.34-.37l.23-5.2h1.52l.44,3.83c.22.21.55.42.99.61.43.19.94.36,1.5.48.57.13,1.17.19,1.79.19,1.17,0,2.11-.17,2.83-.5.72-.33,1.24-.8,1.56-1.41s.49-1.33.49-2.16-.23-1.57-.69-2.15c-.46-.57-1.09-1.07-1.88-1.5-.79-.42-1.67-.83-2.66-1.24-.61-.25-1.26-.55-1.94-.9-.68-.34-1.32-.77-1.92-1.26-.6-.5-1.09-1.09-1.46-1.78-.38-.69-.56-1.51-.56-2.45,0-1.09.29-2.05.85-2.87.57-.82,1.37-1.47,2.4-1.93,1.03-.46,2.25-.69,3.64-.69.65,0,1.27.05,1.84.14.57.09,1.1.2,1.58.33.48.13.89.25,1.25.36.36.11.64.19.85.23l-.18,4.79h-1.46l-.53-3.62c-.14-.12-.38-.24-.72-.37-.34-.13-.75-.24-1.23-.34-.48-.09-1-.14-1.56-.14-.99,0-1.82.13-2.48.39-.66.26-1.15.65-1.48,1.18-.33.53-.49,1.18-.49,1.97,0,.89.21,1.6.64,2.14.42.54,1.02,1.01,1.79,1.4s1.66.83,2.67,1.31c.72.33,1.45.69,2.18,1.07s1.4.81,2.02,1.3c.62.49,1.11,1.06,1.49,1.71s.56,1.42.56,2.29c0,.75-.16,1.49-.47,2.22-.31.73-.78,1.39-1.4,1.98-.62.59-1.41,1.06-2.36,1.41-.95.35-2.06.53-3.34.53Z"/>
      <path class="st1" d="M-169.31,32.69c-.87,0-1.67-.16-2.41-.48-.74-.32-1.34-.82-1.79-1.5s-.68-1.55-.68-2.61.28-1.88.84-2.57c.56-.69,1.31-1.24,2.25-1.66.94-.41,1.99-.72,3.15-.91,1.16-.2,2.34-.3,3.55-.32v-1.23c0-.96-.1-1.71-.31-2.25-.2-.54-.56-.91-1.07-1.13-.51-.22-1.22-.33-2.13-.33-1.14,0-2.14.19-3,.58-.86.38-1.53.71-1.99.97l-.64-1.29c.17-.17.58-.42,1.21-.76.63-.34,1.39-.65,2.28-.94.89-.29,1.8-.43,2.73-.43,1.29,0,2.33.19,3.1.56s1.32.97,1.66,1.8.5,1.92.5,3.29v9.6h1.81v1.08c-.21.06-.48.12-.79.19s-.64.13-.98.18c-.34.05-.66.07-.95.07-.42,0-.73-.06-.93-.19-.2-.13-.3-.47-.3-1.04v-1.04c-.24.21-.61.51-1.1.88-.49.38-1.08.72-1.76,1.02s-1.43.46-2.25.46ZM-168.43,30.97c.58,0,1.26-.17,2.02-.52s1.43-.77,2.02-1.26v-5.17c-1.62,0-2.96.18-4.02.5-1.06.33-1.86.77-2.38,1.34s-.79,1.22-.79,1.96c0,.78.14,1.4.42,1.86.28.46.65.79,1.13.99.48.2,1.01.3,1.61.3Z"/>
      <path class="st1" d="M-151.81,32.69c-1.58,0-2.9-.37-3.97-1.1s-1.88-1.72-2.43-2.97c-.55-1.25-.83-2.64-.84-4.18,0-1.16.15-2.26.48-3.31s.83-1.98,1.5-2.79,1.52-1.46,2.54-1.93,2.22-.71,3.59-.71c.56,0,1.11.05,1.64.15.53.1,1.01.22,1.43.36.42.14.76.26,1.02.37l-.12,4.18h-1.46l-.61-2.81c-.03-.16-.17-.3-.43-.43-.26-.13-.57-.24-.94-.32-.37-.08-.75-.12-1.14-.12-1,0-1.88.26-2.62.78-.75.52-1.32,1.26-1.74,2.23-.41.96-.63,2.11-.64,3.45,0,1.27.12,2.37.39,3.31.27.94.64,1.71,1.12,2.32.48.61,1.04,1.06,1.68,1.37.64.3,1.33.45,2.07.45.59,0,1.16-.07,1.71-.21.55-.14,1.04-.31,1.48-.52.44-.21.81-.41,1.1-.61l.47.96c-.36.36-.83.7-1.4,1.02-.57.32-1.19.57-1.87.77s-1.35.29-2.02.29Z"/>
      <path class="st1" d="M-130.26,32.69c-1.59,0-3-.26-4.24-.77-1.24-.52-2.28-1.26-3.13-2.22-.85-.96-1.5-2.13-1.94-3.49-.44-1.36-.66-2.89-.66-4.59s.26-3.13.79-4.5c.53-1.37,1.26-2.57,2.21-3.58.94-1.01,2.05-1.8,3.31-2.35,1.26-.56,2.63-.83,4.1-.83.65,0,1.29.04,1.91.12.62.08,1.2.17,1.75.28.54.11,1.03.21,1.47.31s.78.18,1.04.23l-.23,4.76h-1.52l-.64-3.39c-.17-.16-.46-.3-.85-.44-.39-.14-.88-.25-1.47-.34-.59-.09-1.27-.13-2.04-.13-1.32,0-2.52.37-3.59,1.1-1.07.74-1.91,1.8-2.54,3.2-.63,1.4-.94,3.09-.94,5.09,0,1.35.15,2.64.44,3.86.29,1.22.74,2.3,1.33,3.24.59.95,1.35,1.69,2.26,2.23.92.54,2,.81,3.24.81.81,0,1.48-.05,2-.14.53-.09.96-.22,1.29-.39.34-.17.63-.35.88-.55l1.17-2.78,1.43.23-.73,3.92c-.38,0-.75.07-1.11.19-.36.12-.76.25-1.2.39-.44.14-.96.27-1.57.37-.61.11-1.35.16-2.23.16Z"/>
      <path class="st1" d="M-121.82,32.37v-1.26l2.57-.23v-12.8l-2.28-.5v-1.31l4-.47h.06l.58.47v14.64l2.54.2v1.26h-7.48ZM-118.24,13.09c-.54,0-.94-.16-1.21-.48s-.41-.72-.41-1.2.15-.92.45-1.31c.3-.4.76-.6,1.38-.6h.03c.54,0,.94.16,1.21.48.27.32.41.72.41,1.2s-.15.92-.45,1.31c-.3.4-.76.6-1.38.6h-.03Z"/>
      <path class="st1" d="M-108.63,32.69c-.96,0-1.73-.22-2.29-.67-.56-.45-.84-1.31-.84-2.6v-11.51h-2.22v-1.17c.18-.04.38-.08.61-.14.23-.05.45-.11.66-.17.2-.06.35-.11.42-.16.11-.07.2-.14.27-.22.07-.08.14-.17.2-.29s.12-.25.18-.42c.09-.23.19-.58.31-1.05.12-.47.24-.92.35-1.37.11-.44.19-.75.23-.93h1.31v4.15h5.2v1.75h-5.2v9.44c0,1.08.04,1.87.12,2.35.08.49.26.8.52.93.26.13.66.2,1.2.2.6,0,1.25-.08,1.95-.25s1.21-.33,1.53-.48l.38,1.11c-.28.21-.69.44-1.22.67s-1.12.42-1.77.58c-.65.16-1.29.24-1.92.24Z"/>
      <path class="st1" d="M-99.25,39.68c-.26,0-.51-.02-.75-.06-.24-.04-.42-.09-.53-.15v-2.21c.12.06.3.1.56.13s.52.04.78.04c.35,0,.71-.06,1.08-.17s.75-.34,1.13-.68.78-.85,1.18-1.53.8-1.58,1.2-2.7h-1.29l-5.58-14.64-1.37-.38v-1.2h6.46v1.2l-2.37.35,3.07,8.94,1.52,4.76,1.46-4.79,2.75-8.91-2.04-.35v-1.2h5.61v1.2l-1.52.35c-.69,2.13-1.3,3.99-1.82,5.57-.52,1.58-.97,2.92-1.34,4.04s-.68,2.04-.93,2.78c-.25.74-.45,1.32-.61,1.76-.16.44-.29.77-.39.99-.6,1.49-1.18,2.74-1.72,3.76-.54,1.02-1.16,1.78-1.86,2.3-.7.52-1.59.77-2.67.77Z"/>
    </g>
    <g>
      <path class="st1" d="M-187.9-7.91c0,1.56-.89,2.37-2.23,2.37s-2.22-.81-2.22-2.32v-3.11h.6v3.07c0,1.15.61,1.8,1.63,1.8s1.61-.6,1.61-1.76v-3.11h.6v3.06Z"/>
      <path class="st1" d="M-181.58-10.97h.59v5.34h-.48l-3.45-4.38v4.38h-.59v-5.34h.56l3.37,4.28v-4.28Z"/>
      <path class="st1" d="M-177.86-10.97v5.34h-.6v-5.34h.6Z"/>
      <path class="st1" d="M-171.49-10.42h-3.24v1.91h2.89v.55h-2.89v2.33h-.6v-5.34h3.84v.56Z"/>
      <path class="st1" d="M-168.71-10.97v5.34h-.6v-5.34h.6Z"/>
      <path class="st1" d="M-162.32-10.42h-3.26v1.82h2.92v.55h-2.92v1.87h3.3v.55h-3.9v-5.34h3.86v.55Z"/>
      <path class="st1" d="M-158.24-5.63h-1.86v-5.34h1.86c1.68,0,2.84,1.15,2.84,2.66s-1.16,2.68-2.84,2.68ZM-158.24-10.42h-1.25v4.23h1.25c1.35,0,2.21-.92,2.21-2.11s-.86-2.12-2.21-2.12Z"/>
      <path class="st1" d="M-148-8.59c1.19.26,1.74.69,1.74,1.52,0,.92-.76,1.52-1.82,1.52-.85,0-1.54-.28-2.18-.86l.37-.44c.56.5,1.09.76,1.83.76s1.19-.37,1.19-.92c0-.5-.27-.79-1.39-1.02-1.23-.27-1.79-.66-1.79-1.55s.74-1.47,1.76-1.47c.78,0,1.34.22,1.88.66l-.35.47c-.5-.4-.99-.58-1.54-.58-.69,0-1.14.38-1.14.87s.27.79,1.45,1.05Z"/>
      <path class="st1" d="M-141.62-5.54c-1.54,0-2.68-1.21-2.68-2.76s1.13-2.77,2.7-2.77c.97,0,1.55.34,2.08.85l-.41.44c-.45-.43-.95-.73-1.68-.73-1.18,0-2.07.95-2.07,2.2s.89,2.21,2.07,2.21c.73,0,1.21-.28,1.73-.77l.4.39c-.56.57-1.17.94-2.14.94Z"/>
      <path class="st1" d="M-136.86-8.03v2.41h-.6v-5.34h.6v2.37h3.08v-2.37h.6v5.34h-.6v-2.41h-3.08Z"/>
      <path class="st1" d="M-128.22-5.54c-1.63,0-2.72-1.28-2.72-2.76s1.11-2.77,2.73-2.77,2.72,1.28,2.72,2.76-1.11,2.77-2.73,2.77ZM-128.22-10.51c-1.22,0-2.09.98-2.09,2.2s.89,2.21,2.11,2.21,2.09-.98,2.09-2.2-.89-2.21-2.11-2.21Z"/>
      <path class="st1" d="M-120.77-5.54c-1.63,0-2.72-1.28-2.72-2.76s1.11-2.77,2.73-2.77,2.72,1.28,2.72,2.76-1.11,2.77-2.73,2.77ZM-120.77-10.51c-1.22,0-2.09.98-2.09,2.2s.89,2.21,2.11,2.21,2.09-.98,2.09-2.2-.89-2.21-2.11-2.21Z"/>
      <path class="st1" d="M-115.79-10.97h.6v4.79h3.01v.56h-3.61v-5.34Z"/>
      <path class="st1" d="M-105-5.63h-1.86v-5.34h1.86c1.68,0,2.84,1.15,2.84,2.66s-1.16,2.68-2.84,2.68ZM-105-10.42h-1.25v4.23h1.25c1.35,0,2.21-.92,2.21-2.11s-.86-2.12-2.21-2.12Z"/>
      <path class="st1" d="M-99.26-10.97v5.34h-.6v-5.34h.6Z"/>
      <path class="st1" d="M-94.82-8.59c1.19.26,1.74.69,1.74,1.52,0,.92-.76,1.52-1.82,1.52-.85,0-1.54-.28-2.18-.86l.37-.44c.56.5,1.09.76,1.83.76s1.19-.37,1.19-.92c0-.5-.27-.79-1.39-1.02-1.23-.27-1.79-.66-1.79-1.55s.74-1.47,1.76-1.47c.78,0,1.34.22,1.88.66l-.35.47c-.5-.4-.99-.58-1.54-.58-.69,0-1.14.38-1.14.87s.27.79,1.45,1.05Z"/>
      <path class="st1" d="M-88.98-5.63h-.61v-4.79h-1.79v-.56h4.2v.56h-1.79v4.79Z"/>
      <path class="st1" d="M-81.41-5.63l-1.55-2.08h-1.53v2.08h-.6v-5.34h2.3c1.18,0,1.93.63,1.93,1.6,0,.89-.61,1.41-1.45,1.57l1.64,2.18h-.74ZM-82.84-10.42h-1.65v2.17h1.64c.8,0,1.37-.41,1.37-1.11s-.5-1.06-1.37-1.06Z"/>
      <path class="st1" d="M-77.95-10.97v5.34h-.6v-5.34h.6Z"/>
      <path class="st1" d="M-72.98-5.54c-1.54,0-2.68-1.21-2.68-2.76s1.13-2.77,2.7-2.77c.97,0,1.55.34,2.08.85l-.41.44c-.45-.43-.95-.73-1.68-.73-1.18,0-2.07.95-2.07,2.2s.89,2.21,2.07,2.21c.73,0,1.21-.28,1.73-.77l.4.39c-.56.57-1.17.94-2.14.94Z"/>
      <path class="st1" d="M-66.8-5.63h-.61v-4.79h-1.79v-.56h4.2v.56h-1.79v4.79Z"/>
    </g>
    <g>
      <path class="st1" d="M-188.31-13.55c-.51,0-.98-.04-1.41-.11s-.82-.16-1.17-.25c-.35-.09-.64-.18-.89-.26-.25-.08-.44-.12-.58-.14l.14-3.12h1.48l.36,2.04c.14.16.38.31.72.45.33.14.75.21,1.23.21.38,0,.71-.05.98-.14.27-.09.49-.22.66-.38.17-.16.29-.35.36-.57.07-.22.11-.45.11-.71,0-.29-.06-.55-.19-.79-.13-.23-.31-.45-.54-.66-.24-.21-.52-.4-.87-.59-.34-.19-.73-.39-1.15-.6-.33-.15-.68-.34-1.05-.56s-.71-.49-1.03-.81c-.31-.32-.58-.69-.78-1.12-.21-.43-.31-.93-.31-1.49,0-.45.09-.88.28-1.28.18-.4.46-.75.82-1.05.36-.3.81-.54,1.35-.71.54-.18,1.16-.26,1.87-.26.38,0,.75.03,1.11.08.36.06.7.12,1.01.19.31.07.59.14.83.2.24.07.42.11.55.13l-.11,2.85h-1.45l-.34-1.87s-.12-.1-.22-.15c-.1-.05-.22-.1-.35-.14s-.28-.08-.44-.11-.32-.04-.49-.04c-.34,0-.63.04-.87.11s-.44.18-.59.32-.26.3-.33.49c-.07.19-.11.39-.11.62,0,.32.07.6.21.85.14.24.34.47.6.68s.56.4.91.59.74.39,1.15.6c.36.18.73.39,1.11.61.38.23.73.49,1.04.79s.57.63.77,1.01c.2.38.3.81.3,1.3,0,.43-.09.88-.26,1.33-.17.45-.44.86-.82,1.23s-.86.67-1.45.9c-.59.23-1.31.35-2.16.35Z"/>
      <path class="st1" d="M-182.76-16.24c0-.41.07-.77.22-1.08s.35-.59.6-.82c.25-.24.56-.44.9-.6.35-.17.72-.3,1.12-.41.4-.11.82-.19,1.25-.23.43-.05.87-.08,1.3-.09v-.4c0-.63-.13-1.07-.38-1.34-.26-.27-.67-.4-1.26-.4-.3,0-.59.02-.89.07-.3.05-.59.1-.86.17-.27.07-.53.15-.76.23-.23.09-.43.17-.6.24h0l-.49-1.1c.12-.09.31-.22.58-.37.27-.15.6-.3.99-.44.38-.14.81-.27,1.28-.37s.95-.16,1.44-.16c.61,0,1.13.07,1.55.2.43.13.77.33,1.04.61.27.28.46.62.59,1.04.12.42.19.92.19,1.49v5.15h1.02v1.01c-.1.02-.23.05-.39.09-.15.04-.32.07-.51.1-.19.03-.39.06-.6.08-.21.02-.43.03-.66.03-.2,0-.37,0-.51-.02-.14-.02-.25-.05-.34-.12s-.15-.15-.19-.26c-.04-.11-.06-.27-.06-.46v-.48c-.09.13-.22.27-.39.42s-.36.3-.6.44c-.23.14-.5.25-.8.34s-.62.14-.98.14c-.39,0-.76-.05-1.1-.16s-.64-.27-.89-.49-.46-.5-.61-.84c-.15-.34-.22-.74-.22-1.21ZM-178.84-15.14c.1,0,.21-.01.34-.04.13-.03.26-.07.4-.12.14-.05.27-.11.4-.18.13-.07.25-.15.35-.24v-2.73c-.53,0-.98.05-1.34.15s-.65.23-.86.4c-.21.17-.37.35-.46.57-.09.21-.14.44-.14.68,0,.49.11.86.33,1.12s.55.38.98.38Z"/>
      <path class="st1" d="M-173.56-18.35c0-.74.11-1.42.33-2.04.22-.62.54-1.14.95-1.59s.91-.79,1.5-1.03c.58-.24,1.24-.37,1.97-.37.37,0,.71.02,1.01.06s.58.09.83.14c.24.05.45.11.63.17s.32.1.43.14l-.08,2.81h-1.45l-.48-1.45c-.12-.23-.27-.41-.45-.54s-.39-.2-.64-.2-.48.06-.71.19c-.22.12-.42.32-.59.59-.17.27-.31.61-.42,1.04-.1.42-.16.93-.16,1.53,0,.68.05,1.26.16,1.73.11.47.26.86.47,1.15s.46.5.75.63.63.19,1,.19c.51,0,.95-.07,1.32-.21.37-.14.68-.29.94-.45l.44,1c-.12.13-.28.27-.5.42-.22.15-.47.29-.76.42-.29.13-.61.24-.96.33-.35.09-.71.13-1.09.13-.78,0-1.44-.12-2-.36-.56-.24-1.02-.58-1.38-1.01-.36-.43-.63-.94-.8-1.52-.17-.59-.26-1.22-.26-1.91Z"/>
      <path class="st1" d="M-164.55-13.74v-1.1l1.19-.16v-6.35l-1.12-.35v-1.25l2.82-.4h.05l.44.35v1.97s.02,0,.02,0c.07-.18.19-.4.36-.66.17-.27.39-.52.64-.77s.55-.46.88-.64c.33-.18.69-.27,1.08-.27.17,0,.3,0,.39.02s.17.03.23.05v2.85c-.06-.04-.22-.09-.47-.14-.25-.05-.56-.08-.91-.08-.19,0-.38.01-.58.03-.19.02-.37.05-.54.09-.17.04-.32.08-.45.13-.13.05-.23.1-.3.15v5.26l2.05.2v1.07h-5.78Z"/>
      <path class="st1" d="M-156.69-16.24c0-.41.07-.77.22-1.08s.35-.59.6-.82c.25-.24.56-.44.9-.6.35-.17.72-.3,1.12-.41.4-.11.82-.19,1.25-.23.43-.05.87-.08,1.3-.09v-.4c0-.63-.13-1.07-.38-1.34-.26-.27-.67-.4-1.26-.4-.3,0-.59.02-.89.07-.3.05-.59.1-.86.17-.27.07-.53.15-.76.23-.23.09-.43.17-.6.24h0l-.49-1.1c.12-.09.31-.22.58-.37.27-.15.6-.3.99-.44.38-.14.81-.27,1.28-.37s.95-.16,1.44-.16c.61,0,1.13.07,1.55.2.43.13.77.33,1.04.61.27.28.46.62.59,1.04.12.42.19.92.19,1.49v5.15h1.02v1.01c-.1.02-.23.05-.39.09-.15.04-.32.07-.51.1-.19.03-.39.06-.6.08-.21.02-.43.03-.66.03-.2,0-.37,0-.51-.02-.14-.02-.25-.05-.34-.12s-.15-.15-.19-.26c-.04-.11-.06-.27-.06-.46v-.48c-.09.13-.22.27-.39.42s-.36.3-.6.44c-.23.14-.5.25-.8.34s-.62.14-.98.14c-.39,0-.76-.05-1.1-.16s-.64-.27-.89-.49-.46-.5-.61-.84c-.15-.34-.22-.74-.22-1.21ZM-152.77-15.14c.1,0,.21-.01.34-.04.13-.03.26-.07.4-.12.14-.05.27-.11.4-.18.13-.07.25-.15.35-.24v-2.73c-.53,0-.98.05-1.34.15s-.65.23-.86.4c-.21.17-.37.35-.46.57-.09.21-.14.44-.14.68,0,.49.11.86.33,1.12s.55.38.98.38Z"/>
      <path class="st1" d="M-146.76-13.74v-1.07l1.03-.19v-6.35l-1.12-.35v-1.25l2.92-.4h.04l.44.35v.98c.18-.17.41-.33.67-.5.27-.16.55-.3.86-.42.31-.12.62-.22.94-.29.32-.07.62-.11.91-.11.63,0,1.14.1,1.51.31.37.2.66.53.85.97.15-.14.36-.28.61-.43s.53-.29.83-.41c.3-.12.62-.23.95-.31.33-.08.66-.12.97-.12.52,0,.95.07,1.29.2.35.13.62.35.83.64.21.3.36.68.45,1.16.09.48.13,1.05.13,1.74v4.58l1.16.19v1.07h-4.57v-1.07l.87-.19v-4.51c0-.42-.02-.78-.07-1.08-.05-.29-.12-.53-.24-.71-.11-.18-.26-.31-.44-.4-.19-.08-.42-.12-.7-.12-.14,0-.29.02-.45.06-.16.04-.33.09-.49.14s-.32.12-.48.19c-.15.07-.29.14-.4.21.04.23.07.48.09.75.02.27.02.57.02.89v4.58l1.1.18v1.07h-4.62v-1.07l.99-.18v-4.61c0-.38-.02-.71-.07-.99-.04-.28-.12-.5-.23-.68-.11-.18-.25-.31-.44-.39-.18-.09-.42-.13-.7-.13-.16,0-.34.02-.51.06s-.35.09-.52.14c-.17.06-.33.12-.47.2-.14.07-.26.15-.36.23v6.16l1.11.19v1.07h-4.68Z"/>
      <path class="st1" d="M-125.7-13.55c-.77,0-1.44-.12-2-.36-.56-.24-1.02-.58-1.38-1.01-.36-.43-.63-.95-.8-1.55-.17-.6-.26-1.25-.26-1.96,0-.77.11-1.46.33-2.07.22-.61.52-1.12.92-1.55s.87-.75,1.43-.98c.55-.23,1.17-.34,1.85-.34,2.28,0,3.47,1.11,3.57,3.34.01.38,0,.72,0,1.03s-.04.56-.09.77h-5.38c.03.54.11,1.01.24,1.39s.3.7.52.94c.21.24.47.42.76.53.29.11.62.16.97.16.28,0,.54-.02.78-.07s.47-.1.67-.17.39-.14.56-.22c.17-.08.31-.16.43-.24l.43,1c-.14.14-.33.29-.57.45-.25.16-.53.3-.84.43-.32.13-.66.24-1.02.33-.37.09-.74.13-1.12.13ZM-125.93-22.26c-.21,0-.41.04-.6.12-.18.08-.35.22-.49.44-.14.21-.26.51-.35.89-.09.38-.15.88-.17,1.48h2.96s0-.07,0-.12,0-.1,0-.16c0-.05,0-.11,0-.16v-.11c0-.28-.02-.56-.06-.85-.04-.29-.11-.54-.21-.77s-.24-.41-.42-.55-.41-.21-.69-.21Z"/>
      <path class="st1" d="M-120.73-13.74v-1.1l1.06-.17v-6.34l-1.12-.35v-1.25l2.95-.4h.04l.44.35v.98c.18-.17.4-.33.64-.49.25-.16.52-.3.8-.42.29-.12.59-.22.91-.29.32-.07.64-.11.96-.11.53,0,.97.07,1.32.21.35.14.64.36.84.66s.36.69.45,1.17.13,1.05.13,1.72v4.57l1.17.16v1.1h-4.64v-1.1l.9-.16v-4.6c0-.38-.02-.71-.06-.99-.04-.28-.11-.5-.21-.68-.1-.18-.24-.31-.42-.39-.18-.09-.41-.13-.69-.13-.19,0-.37.02-.55.06s-.35.09-.52.16c-.16.07-.31.14-.45.22-.13.08-.25.16-.35.23v6.1l1.11.17v1.1h-4.73Z"/>
      <path class="st1" d="M-108.62-15.72v-6.07h-1.16v-.94s.11-.03.21-.07c.1-.04.2-.07.3-.11.1-.04.19-.08.28-.11.08-.04.13-.06.16-.08.19-.15.38-.41.59-.79.05-.11.12-.24.18-.38.07-.15.13-.3.19-.46.06-.16.12-.32.18-.47.05-.16.1-.3.14-.42h1.47l.03,2.44h2.42v1.4h-2.42v4.57c0,.44,0,.79.02,1.05.01.26.05.45.1.59.05.13.13.22.24.25.11.04.26.06.45.06h0c.13,0,.27-.01.42-.03.15-.02.29-.05.43-.08.14-.03.27-.06.39-.1.12-.04.22-.07.29-.09h0l.39.96c-.16.13-.37.25-.61.38-.24.13-.5.24-.79.34-.29.1-.59.18-.92.25s-.64.09-.97.09h-.02c-.36,0-.67-.05-.93-.14-.26-.09-.46-.23-.62-.42-.16-.18-.27-.41-.34-.68s-.11-.58-.11-.93Z"/>
      <path class="st1" d="M-102.86-18.41c0-.84.13-1.56.39-2.19.26-.62.6-1.14,1.03-1.55s.92-.72,1.49-.92,1.15-.3,1.76-.3c.71,0,1.35.11,1.9.33s1.01.54,1.39.96c.37.42.66.93.85,1.53.19.6.29,1.28.29,2.04,0,.86-.13,1.6-.39,2.23s-.6,1.14-1.03,1.55-.92.7-1.48.9c-.56.2-1.15.29-1.76.29-.71,0-1.35-.11-1.9-.33s-1.01-.54-1.39-.96c-.38-.42-.66-.93-.85-1.53-.19-.6-.29-1.28-.29-2.04ZM-98.29-14.69c.3,0,.56-.07.78-.2s.4-.35.55-.63c.15-.29.25-.66.32-1.11.07-.45.1-.99.1-1.62s-.03-1.21-.09-1.71c-.06-.5-.17-.91-.3-1.25-.14-.33-.32-.59-.55-.76-.23-.17-.51-.26-.84-.26-.3,0-.56.07-.79.2s-.41.35-.56.63c-.15.29-.26.66-.33,1.11-.07.45-.11.99-.11,1.62s.03,1.21.1,1.71c.07.5.17.91.32,1.25.15.33.33.59.56.76.23.17.51.26.84.26Z"/>
      <path class="st1" d="M-81.51-13.55c-.97,0-1.83-.16-2.57-.47-.74-.31-1.36-.75-1.86-1.31s-.88-1.24-1.14-2.02-.38-1.66-.38-2.61.17-1.86.5-2.65c.33-.79.79-1.47,1.37-2.04s1.27-1,2.06-1.31c.79-.31,1.65-.46,2.56-.46.4,0,.77.02,1.13.07s.69.1,1,.16c.31.06.6.12.85.17.26.06.48.1.67.13l-.19,3.28h-1.69l-.5-2.17c-.05-.07-.12-.13-.21-.19-.08-.06-.19-.12-.31-.16-.12-.04-.27-.08-.45-.11s-.38-.04-.63-.04c-.47,0-.91.1-1.3.31s-.74.52-1.02.93c-.28.42-.5.94-.66,1.56-.16.63-.24,1.36-.24,2.2,0,.73.06,1.42.19,2.09.13.67.32,1.26.58,1.78.26.51.59.93.99,1.23s.88.46,1.43.46c.27,0,.51-.02.71-.05s.37-.07.51-.12c.14-.05.26-.11.35-.18.09-.07.17-.14.24-.21l.75-1.82,1.45.08-.2,2.8c-.24.02-.48.06-.72.13-.24.07-.51.14-.82.22-.3.08-.65.15-1.05.21s-.87.09-1.42.09Z"/>
      <path class="st1" d="M-76.05-13.74v-1.1l1.2-.16v-6.35l-1.11-.35v-1.24l3.03-.4h.04l.6.35v7.98l1.2.17v1.1h-4.96ZM-73.85-24.74c-.19,0-.36-.04-.51-.11-.15-.07-.28-.17-.38-.28s-.18-.26-.23-.42c-.05-.16-.08-.33-.08-.52,0-.21.03-.42.09-.61s.15-.36.27-.5c.12-.14.27-.26.45-.34.18-.08.39-.12.62-.12h0c.23,0,.42.04.58.11s.3.17.41.3.19.27.24.42c.05.16.08.33.08.5,0,.22-.03.42-.09.61-.06.19-.15.35-.28.5-.12.14-.28.25-.48.33-.2.08-.42.12-.69.12h0Z"/>
      <path class="st1" d="M-69.46-15.72v-6.07h-1.16v-.94s.11-.03.21-.07c.1-.04.2-.07.3-.11.1-.04.19-.08.28-.11.08-.04.13-.06.16-.08.19-.15.38-.41.59-.79.05-.11.12-.24.18-.38.07-.15.13-.3.19-.46.06-.16.12-.32.18-.47.05-.16.1-.3.14-.42h1.47l.03,2.44h2.42v1.4h-2.42v4.57c0,.44,0,.79.02,1.05.01.26.05.45.1.59.05.13.13.22.24.25.11.04.26.06.45.06h0c.13,0,.27-.01.42-.03.15-.02.29-.05.43-.08.14-.03.27-.06.39-.1.12-.04.22-.07.29-.09h0l.39.96c-.16.13-.37.25-.61.38-.24.13-.5.24-.79.34-.29.1-.59.18-.92.25s-.64.09-.97.09h-.02c-.36,0-.67-.05-.93-.14-.26-.09-.46-.23-.62-.42-.16-.18-.27-.41-.34-.68s-.11-.58-.11-.93Z"/>
      <path class="st1" d="M-61.22-9.53c-.11,0-.23,0-.36,0-.13,0-.26-.01-.39-.02-.13-.01-.24-.02-.34-.04-.1-.01-.17-.03-.22-.05v-2.02c.08.04.25.08.49.14.25.05.53.08.86.08.17,0,.35-.02.54-.06.19-.04.4-.13.61-.29.21-.15.42-.38.63-.69.21-.3.42-.72.63-1.25h-1.48l-2.97-8.16-.75-.23v-1.06h4.77v1.05l-1.25.24,1.58,4.89.64,2.24.56-2.24,1.25-4.89-1.07-.24v-1.05h3.64v1.06l-.76.23c-.16.5-.33,1.04-.51,1.62s-.36,1.17-.54,1.76c-.18.59-.36,1.17-.54,1.73-.18.56-.33,1.07-.48,1.53-.14.46-.27.85-.38,1.18-.11.33-.19.54-.24.66-.47,1.27-1.02,2.24-1.65,2.9-.63.66-1.4.99-2.3.99Z"/>
    </g>
    <g id="apple1" data-name="apple">
      <path class="st4" d="M-34.47,4.83c0,.06-.01.12-.04.18-.1.22-.21.41-.37.59-.08.1-.19.14-.29.15-.01.01-.02.03-.04.04,0,0,0,0,0,0,.06.08.11.17.12.3.01.23-.08.43-.24.59-.17.17-.41.18-.61.09.05.17.1.33.17.49.12.27.08.57-.19.73-.03.02-.07.03-.11.04.42,1.93.17,2.8.16,2.99.08.3.42.46.9.43.61-.03.69-.3.72-.82.19-1.82.06-3.95-.17-5.81Z"/>
      <path class="st4" d="M-35.13,9.32c.31.01.61.03.91.12.14-3.76-.67-7.33-.93-8.8-.05-.3-.34-.5-.64-.45-.66.12-1.59.44-2.18.65-.31.11-.45.47-.31.77,1.8,3.97,2.35,6.36,2.49,7.72.22,0,.45-.02.67,0Z"/>
      <path class="st4" d="M-34.46,6.74c.04-3.59,4.45-3.12,6.68-3.02,2.43.11,4.44.1,7.09-1.38,2.65-1.47,3.99-3.8,4.36-4.29.3-.4,1.46-1.78,1.92-1.87.46-.09.38-.44.17-.49-.22-.06-2.86-.81-3.66-.99s-5.85-1.65-10.46,1.64c-4.61,3.28-6.14,7.8-6.32,8.2-.11.24.22,2.2.22,2.2"/>
      <path class="st4" d="M-36.03,7.55c-.16-.34-1.62-3.59-5.52-6.36-3.9-2.77-8.13-1.4-8.82-1.32-.69.09-2.83.67-3.01.72-.18.05-.25.34.14.42.39.08.97.54,1.28.96.31.42,1.92,2.89,4.16,4.14,2.24,1.24,3.82,1.35,5.85,1.26,1.87-.08,6.01.07,6.21,2.61,0,0-.19-2.23-.29-2.44Z"/>
    </g>
    <g>
      <path class="st1" d="M-190.95-33.47c-.43,0-.82-.04-1.17-.13-.35-.09-.64-.18-.88-.27-.24-.09-.42-.14-.55-.15l.1-2.14h.62l.18,1.57c.09.09.23.17.4.25.18.08.38.15.62.2.23.05.48.08.74.08.48,0,.87-.07,1.16-.2s.51-.33.64-.58.2-.54.2-.88-.09-.65-.29-.88-.45-.44-.77-.62c-.32-.17-.69-.34-1.09-.51-.25-.1-.52-.23-.8-.37-.28-.14-.54-.31-.79-.52s-.45-.45-.6-.73c-.15-.28-.23-.62-.23-1.01,0-.45.12-.84.35-1.18.23-.34.56-.6.99-.79.42-.19.92-.29,1.49-.29.27,0,.52.02.76.06.24.04.45.08.65.13.2.05.37.1.51.15.15.05.26.08.35.09l-.07,1.97h-.6l-.22-1.49c-.06-.05-.15-.1-.29-.15-.14-.05-.31-.1-.51-.14s-.41-.06-.64-.06c-.41,0-.75.05-1.02.16-.27.11-.47.27-.61.48-.13.22-.2.49-.2.81,0,.36.09.66.26.88.17.22.42.41.74.58.32.16.68.34,1.1.54.3.14.59.28.89.44.3.16.58.33.83.53s.46.43.61.7c.15.27.23.58.23.94,0,.31-.06.61-.19.91-.13.3-.32.57-.58.81-.26.24-.58.44-.97.58-.39.14-.85.22-1.37.22Z"/>
      <path class="st1" d="M-182.94-33.47c-.65,0-1.23-.11-1.74-.32-.51-.21-.94-.52-1.29-.91-.35-.4-.62-.87-.79-1.43-.18-.56-.27-1.19-.27-1.88s.11-1.28.32-1.85c.22-.56.52-1.05.91-1.47s.84-.74,1.36-.97c.52-.23,1.08-.34,1.68-.34.27,0,.53.02.78.05s.49.07.72.11c.22.04.42.09.6.13.18.04.32.07.43.09l-.1,1.96h-.62l-.26-1.39c-.07-.06-.19-.12-.35-.18-.16-.06-.36-.1-.6-.14s-.52-.05-.84-.05c-.54,0-1.04.15-1.47.45-.44.3-.79.74-1.04,1.31-.26.57-.39,1.27-.39,2.09,0,.56.06,1.08.18,1.58s.3.94.55,1.33c.24.39.55.69.93.92.38.22.82.33,1.33.33.33,0,.61-.02.82-.06s.39-.09.53-.16c.14-.07.26-.14.36-.23l.48-1.14.59.1-.3,1.61c-.16,0-.31.03-.46.08-.15.05-.31.1-.49.16s-.4.11-.64.15c-.25.04-.56.07-.92.07Z"/>
      <path class="st1" d="M-175.16-33.51c-.77,0-1.4-.14-1.89-.43-.49-.28-.85-.71-1.08-1.29-.23-.58-.35-1.31-.35-2.19v-4.45l-.9-.13v-.52h2.94v.52l-1.03.13v4.56c0,.62.06,1.14.18,1.55s.29.74.5.99.47.42.76.52c.29.1.62.16.97.16.51,0,.94-.12,1.29-.35.35-.24.61-.59.78-1.05.17-.46.26-1.04.26-1.72v-4.64l-1-.14v-.52h2.66v.52l-.91.13v4.61c0,.65-.08,1.21-.24,1.69-.16.47-.38.86-.67,1.17-.29.31-.62.53-1.01.68-.39.15-.81.22-1.26.22Z"/>
      <path class="st1" d="M-167.84-33.47c-.43,0-.82-.04-1.17-.13-.35-.09-.64-.18-.88-.27-.24-.09-.42-.14-.55-.15l.1-2.14h.62l.18,1.57c.09.09.23.17.4.25.18.08.38.15.62.2.23.05.48.08.74.08.48,0,.87-.07,1.16-.2s.51-.33.64-.58.2-.54.2-.88-.09-.65-.29-.88-.45-.44-.77-.62c-.32-.17-.69-.34-1.09-.51-.25-.1-.52-.23-.8-.37-.28-.14-.54-.31-.79-.52s-.45-.45-.6-.73c-.15-.28-.23-.62-.23-1.01,0-.45.12-.84.35-1.18.23-.34.56-.6.99-.79.42-.19.92-.29,1.49-.29.27,0,.52.02.76.06.24.04.45.08.65.13.2.05.37.1.51.15.15.05.26.08.35.09l-.07,1.97h-.6l-.22-1.49c-.06-.05-.15-.1-.29-.15-.14-.05-.31-.1-.51-.14s-.41-.06-.64-.06c-.41,0-.75.05-1.02.16-.27.11-.47.27-.61.48-.13.22-.2.49-.2.81,0,.36.09.66.26.88.17.22.42.41.74.58.32.16.68.34,1.1.54.3.14.59.28.89.44.3.16.58.33.83.53s.46.43.61.7c.15.27.23.58.23.94,0,.31-.06.61-.19.91-.13.3-.32.57-.58.81-.26.24-.58.44-.97.58-.39.14-.85.22-1.37.22Z"/>
      <path class="st1" d="M-160.62-33.51c-.14,0-.29-.01-.45-.02-.16,0-.32-.02-.48-.03s-.33-.02-.5-.03-.34-.01-.52-.01h-1.54v-.52l1.03-.11v-7.64l-.96-.13v-.52h1.45c.24,0,.48,0,.72-.02.23-.02.47-.03.7-.05.23-.02.47-.02.71-.02.78,0,1.44.1,2,.31s1.01.5,1.36.87c.35.38.61.83.78,1.35.17.52.25,1.11.25,1.75,0,.74-.11,1.4-.33,2-.22.6-.54,1.11-.94,1.54-.41.43-.89.75-1.44.98-.55.22-1.17.33-1.83.31ZM-160.47-34.1c.64,0,1.22-.17,1.72-.47.5-.31.9-.76,1.19-1.35.29-.59.43-1.32.43-2.19,0-.66-.08-1.23-.23-1.72-.15-.49-.38-.9-.68-1.22s-.68-.57-1.14-.74c-.46-.16-.99-.25-1.6-.25-.18,0-.35,0-.51.01s-.3.02-.44.03c-.14.01-.26.02-.37.02v7.78c.19.04.38.06.55.08.18.01.35.02.53.02s.35,0,.54,0Z"/>
    </g>
  </g>
  <g id="Merryweather">
    <g>
      <path class="st7" d="M25.57,52.55c-.39-.4-.59-.98-.59-1.75v-3.09h.57v3.07c0,.63.14,1.09.42,1.4.28.31.69.46,1.22.46s.95-.15,1.23-.46c.28-.31.42-.78.42-1.4v-3.07h.55v3.09c0,.77-.19,1.35-.58,1.75s-.93.6-1.63.6-1.24-.2-1.63-.6Z"/>
      <path class="st7" d="M36.55,47.71v5.39h-.47l-3.47-4.38v4.38h-.57v-5.39h.47l3.47,4.38v-4.38h.56Z"/>
      <path class="st7" d="M39.23,47.71h.57v5.39h-.57v-5.39Z"/>
      <path class="st7" d="M43.04,48.2v2.12h2.79v.49h-2.79v2.29h-.57v-5.39h3.7v.49h-3.13Z"/>
      <path class="st7" d="M48.21,47.71h.57v5.39h-.57v-5.39Z"/>
      <path class="st7" d="M55.27,52.61v.49h-3.81v-5.39h3.7v.49h-3.13v1.92h2.79v.48h-2.79v2h3.24Z"/>
      <path class="st7" d="M57.4,47.71h2.2c.57,0,1.07.11,1.51.34.44.23.78.55,1.02.95s.36.87.36,1.4-.12.99-.36,1.4c-.24.41-.58.73-1.02.96-.44.23-.94.34-1.51.34h-2.2v-5.39ZM59.56,52.61c.47,0,.89-.09,1.24-.28s.63-.45.82-.78c.19-.33.29-.71.29-1.14s-.1-.81-.29-1.14c-.2-.33-.47-.59-.82-.78s-.77-.28-1.24-.28h-1.59v4.41h1.59Z"/>
      <path class="st7" d="M67.89,52.96c-.37-.13-.65-.3-.85-.51l.22-.44c.2.2.45.35.78.47.32.12.66.18,1,.18.48,0,.84-.09,1.09-.27.24-.18.36-.41.36-.69,0-.22-.07-.39-.2-.52-.13-.13-.29-.23-.48-.3-.19-.07-.45-.14-.79-.23-.41-.1-.73-.2-.97-.3-.24-.09-.45-.24-.62-.44-.17-.19-.26-.46-.26-.79,0-.27.07-.52.21-.74.14-.22.37-.4.66-.54.3-.13.67-.2,1.11-.2.31,0,.61.04.9.13.3.09.55.2.77.35l-.19.45c-.23-.15-.47-.26-.72-.34-.26-.07-.51-.11-.76-.11-.47,0-.83.09-1.07.27-.24.18-.36.42-.36.7,0,.22.07.39.2.52s.3.23.49.3c.2.07.46.15.8.23.4.1.72.19.96.29.24.1.45.24.62.43.17.19.26.45.26.78,0,.27-.07.52-.22.74-.15.22-.37.4-.67.53s-.68.2-1.12.2c-.4,0-.78-.06-1.15-.19Z"/>
      <path class="st7" d="M74.19,52.8c-.43-.24-.77-.56-1.01-.98-.24-.42-.37-.89-.37-1.41s.12-.99.37-1.41c.24-.42.58-.75,1.01-.98.43-.24.91-.35,1.45-.35.4,0,.77.07,1.11.2.34.13.63.33.86.59l-.36.36c-.42-.43-.95-.64-1.59-.64-.43,0-.81.1-1.16.29-.35.2-.62.46-.82.8s-.3.72-.3,1.14.1.8.3,1.14.47.61.82.8c.35.2.74.29,1.16.29.65,0,1.18-.22,1.59-.65l.36.36c-.24.26-.52.45-.87.59-.34.14-.71.2-1.11.2-.53,0-1.02-.12-1.45-.35Z"/>
      <path class="st7" d="M84.24,47.71v5.39h-.56v-2.49h-3.38v2.49h-.57v-5.39h.57v2.4h3.38v-2.4h.56Z"/>
      <path class="st7" d="M87.9,52.79c-.43-.24-.77-.57-1.02-.98-.24-.42-.37-.88-.37-1.4s.12-.99.37-1.4c.24-.42.58-.74,1.02-.98s.92-.36,1.45-.36,1.02.12,1.44.35.77.56,1.01.98c.25.42.37.89.37,1.41s-.12.99-.37,1.41c-.25.42-.58.75-1.01.98-.43.24-.91.35-1.44.35s-1.02-.12-1.45-.36ZM90.51,52.35c.34-.19.61-.46.81-.8.2-.34.29-.72.29-1.14s-.1-.8-.29-1.14c-.2-.34-.47-.61-.81-.8-.34-.19-.73-.29-1.16-.29s-.81.1-1.16.29c-.35.19-.62.46-.82.8-.2.34-.3.72-.3,1.14s.1.8.3,1.14c.2.34.47.61.82.8s.73.29,1.16.29.81-.1,1.16-.29Z"/>
      <path class="st7" d="M95.41,52.79c-.43-.24-.77-.57-1.02-.98-.24-.42-.37-.88-.37-1.4s.12-.99.37-1.4c.24-.42.58-.74,1.02-.98s.92-.36,1.45-.36,1.02.12,1.44.35.77.56,1.01.98c.25.42.37.89.37,1.41s-.12.99-.37,1.41c-.25.42-.58.75-1.01.98-.43.24-.91.35-1.44.35s-1.02-.12-1.45-.36ZM98.02,52.35c.34-.19.61-.46.81-.8.2-.34.29-.72.29-1.14s-.1-.8-.29-1.14c-.2-.34-.47-.61-.81-.8-.34-.19-.73-.29-1.16-.29s-.81.1-1.16.29c-.35.19-.62.46-.82.8-.2.34-.3.72-.3,1.14s.1.8.3,1.14c.2.34.47.61.82.8s.73.29,1.16.29.81-.1,1.16-.29Z"/>
      <path class="st7" d="M101.95,47.71h.57v4.9h3.02v.49h-3.59v-5.39Z"/>
      <path class="st7" d="M110.28,47.71h2.2c.57,0,1.07.11,1.51.34.44.23.78.55,1.02.95s.36.87.36,1.4-.12.99-.36,1.4c-.24.41-.58.73-1.02.96-.44.23-.94.34-1.51.34h-2.2v-5.39ZM112.44,52.61c.47,0,.89-.09,1.24-.28s.63-.45.82-.78c.19-.33.29-.71.29-1.14s-.1-.81-.29-1.14c-.2-.33-.47-.59-.82-.78s-.77-.28-1.24-.28h-1.59v4.41h1.59Z"/>
      <path class="st7" d="M117.64,47.71h.57v5.39h-.57v-5.39Z"/>
      <path class="st7" d="M121.28,52.96c-.37-.13-.65-.3-.85-.51l.22-.44c.2.2.45.35.78.47.32.12.66.18,1,.18.48,0,.84-.09,1.09-.27.24-.18.36-.41.36-.69,0-.22-.07-.39-.2-.52-.13-.13-.29-.23-.48-.3-.19-.07-.45-.14-.79-.23-.41-.1-.73-.2-.97-.3-.24-.09-.45-.24-.62-.44-.17-.19-.26-.46-.26-.79,0-.27.07-.52.21-.74.14-.22.37-.4.66-.54.3-.13.67-.2,1.11-.2.31,0,.61.04.9.13.3.09.55.2.77.35l-.19.45c-.23-.15-.47-.26-.72-.34-.26-.07-.51-.11-.76-.11-.47,0-.83.09-1.07.27-.24.18-.36.42-.36.7,0,.22.07.39.2.52s.3.23.49.3c.2.07.46.15.8.23.4.1.72.19.96.29.24.1.45.24.62.43.17.19.26.45.26.78,0,.27-.07.52-.22.74-.15.22-.37.4-.67.53s-.68.2-1.12.2c-.4,0-.78-.06-1.15-.19Z"/>
      <path class="st7" d="M127.86,48.2h-1.89v-.49h4.36v.49h-1.89v4.9h-.57v-4.9Z"/>
      <path class="st7" d="M135.91,53.1l-1.23-1.73c-.14.02-.28.02-.43.02h-1.45v1.71h-.57v-5.39h2.02c.69,0,1.23.16,1.62.49.39.33.59.78.59,1.36,0,.42-.11.78-.32,1.07-.21.29-.52.5-.91.63l1.32,1.85h-.62ZM135.46,50.55c.28-.24.42-.57.42-.99s-.14-.77-.42-1.01c-.28-.23-.69-.35-1.23-.35h-1.43v2.7h1.43c.53,0,.94-.12,1.23-.35Z"/>
      <path class="st7" d="M138.77,47.71h.57v5.39h-.57v-5.39Z"/>
      <path class="st7" d="M142.99,52.8c-.43-.24-.77-.56-1.01-.98-.24-.42-.37-.89-.37-1.41s.12-.99.37-1.41c.24-.42.58-.75,1.01-.98.43-.24.91-.35,1.45-.35.4,0,.77.07,1.11.2.34.13.63.33.86.59l-.36.36c-.42-.43-.95-.64-1.59-.64-.43,0-.81.1-1.16.29-.35.2-.62.46-.82.8s-.3.72-.3,1.14.1.8.3,1.14.47.61.82.8c.35.2.74.29,1.16.29.65,0,1.18-.22,1.59-.65l.36.36c-.24.26-.52.45-.87.59-.34.14-.71.2-1.11.2-.53,0-1.02-.12-1.45-.35Z"/>
      <path class="st7" d="M149.87,48.2h-1.89v-.49h4.36v.49h-1.89v4.9h-.57v-4.9Z"/>
    </g>
    <g>
      <path class="st7" d="M29.04,45.16c-.51,0-.98-.04-1.41-.11s-.82-.16-1.17-.25c-.35-.09-.64-.18-.89-.26-.25-.08-.44-.12-.58-.14l.14-3.12h1.48l.36,2.04c.14.16.38.31.72.45.33.14.75.21,1.23.21.38,0,.71-.05.98-.14.27-.09.49-.22.66-.38.17-.16.29-.35.36-.57.07-.22.11-.45.11-.71,0-.29-.06-.55-.19-.79-.13-.23-.31-.45-.54-.66-.24-.21-.52-.4-.87-.59-.34-.19-.73-.39-1.15-.6-.33-.15-.68-.34-1.05-.56s-.71-.49-1.03-.81c-.31-.32-.58-.69-.78-1.12-.21-.43-.31-.93-.31-1.49,0-.45.09-.88.28-1.28.18-.4.46-.75.82-1.05.36-.3.81-.54,1.35-.71.54-.18,1.16-.26,1.87-.26.38,0,.75.03,1.11.08.36.06.7.12,1.01.19.31.07.59.14.83.2.24.07.42.11.55.13l-.11,2.85h-1.45l-.34-1.87s-.12-.1-.22-.15c-.1-.05-.22-.1-.35-.14s-.28-.08-.44-.11-.32-.04-.49-.04c-.34,0-.63.04-.87.11s-.44.18-.59.32-.26.3-.33.49c-.07.19-.11.39-.11.62,0,.32.07.6.21.85.14.24.34.47.6.68s.56.4.91.59.74.39,1.15.6c.36.18.73.39,1.11.61.38.23.73.49,1.04.79s.57.63.77,1.01c.2.38.3.81.3,1.3,0,.43-.09.88-.26,1.33-.17.45-.44.86-.82,1.23s-.86.67-1.45.9c-.59.23-1.31.35-2.16.35Z"/>
      <path class="st7" d="M34.58,42.46c0-.41.07-.77.22-1.08s.35-.59.6-.82c.25-.24.56-.44.9-.6.35-.17.72-.3,1.12-.41.4-.11.82-.19,1.25-.23.43-.05.87-.08,1.3-.09v-.4c0-.63-.13-1.07-.38-1.34-.26-.27-.67-.4-1.26-.4-.3,0-.59.02-.89.07-.3.05-.59.1-.86.17-.27.07-.53.15-.76.23-.23.09-.43.17-.6.24h0l-.49-1.1c.12-.09.31-.22.58-.37.27-.15.6-.3.99-.44.38-.14.81-.27,1.28-.37s.95-.16,1.44-.16c.61,0,1.13.07,1.55.2.43.13.77.33,1.04.61.27.28.46.62.59,1.04.12.42.19.92.19,1.49v5.15h1.02v1.01c-.1.02-.23.05-.39.09-.15.04-.32.07-.51.1-.19.03-.39.06-.6.08-.21.02-.43.03-.66.03-.2,0-.37,0-.51-.02-.14-.02-.25-.05-.34-.12s-.15-.15-.19-.26c-.04-.11-.06-.27-.06-.46v-.48c-.09.13-.22.27-.39.42s-.36.3-.6.44c-.23.14-.5.25-.8.34s-.62.14-.98.14c-.39,0-.76-.05-1.1-.16s-.64-.27-.89-.49-.46-.5-.61-.84c-.15-.34-.22-.74-.22-1.21ZM38.5,43.57c.1,0,.21-.01.34-.04.13-.03.26-.07.4-.12.14-.05.27-.11.4-.18.13-.07.25-.15.35-.24v-2.73c-.53,0-.98.05-1.34.15s-.65.23-.86.4c-.21.17-.37.35-.46.57-.09.21-.14.44-.14.68,0,.49.11.86.33,1.12s.55.38.98.38Z"/>
      <path class="st7" d="M43.78,40.36c0-.74.11-1.42.33-2.04.22-.62.54-1.14.95-1.59s.91-.79,1.5-1.03c.58-.24,1.24-.37,1.97-.37.37,0,.71.02,1.01.06s.58.09.83.14c.24.05.45.11.63.17s.32.1.43.14l-.08,2.81h-1.45l-.48-1.45c-.12-.23-.27-.41-.45-.54s-.39-.2-.64-.2-.48.06-.71.19c-.22.12-.42.32-.59.59-.17.27-.31.61-.42,1.04-.1.42-.16.93-.16,1.53,0,.68.05,1.26.16,1.73.11.47.26.86.47,1.15s.46.5.75.63.63.19,1,.19c.51,0,.95-.07,1.32-.21.37-.14.68-.29.94-.45l.44,1c-.12.13-.28.27-.5.42-.22.15-.47.29-.76.42-.29.13-.61.24-.96.33-.35.09-.71.13-1.09.13-.78,0-1.44-.12-2-.36-.56-.24-1.02-.58-1.38-1.01-.36-.43-.63-.94-.8-1.52-.17-.59-.26-1.22-.26-1.91Z"/>
      <path class="st7" d="M52.8,44.97v-1.1l1.19-.16v-6.35l-1.12-.35v-1.25l2.82-.4h.05l.44.35v1.97s.02,0,.02,0c.07-.18.19-.4.36-.66.17-.27.39-.52.64-.77s.55-.46.88-.64c.33-.18.69-.27,1.08-.27.17,0,.3,0,.39.02s.17.03.23.05v2.85c-.06-.04-.22-.09-.47-.14-.25-.05-.56-.08-.91-.08-.19,0-.38.01-.58.03-.19.02-.37.05-.54.09-.17.04-.32.08-.45.13-.13.05-.23.1-.3.15v5.26l2.05.2v1.07h-5.78Z"/>
      <path class="st7" d="M60.65,42.46c0-.41.07-.77.22-1.08s.35-.59.6-.82c.25-.24.56-.44.9-.6.35-.17.72-.3,1.12-.41.4-.11.82-.19,1.25-.23.43-.05.87-.08,1.3-.09v-.4c0-.63-.13-1.07-.38-1.34-.26-.27-.67-.4-1.26-.4-.3,0-.59.02-.89.07-.3.05-.59.1-.86.17-.27.07-.53.15-.76.23-.23.09-.43.17-.6.24h0l-.49-1.1c.12-.09.31-.22.58-.37.27-.15.6-.3.99-.44.38-.14.81-.27,1.28-.37s.95-.16,1.44-.16c.61,0,1.13.07,1.55.2.43.13.77.33,1.04.61.27.28.46.62.59,1.04.12.42.19.92.19,1.49v5.15h1.02v1.01c-.1.02-.23.05-.39.09-.15.04-.32.07-.51.1-.19.03-.39.06-.6.08-.21.02-.43.03-.66.03-.2,0-.37,0-.51-.02-.14-.02-.25-.05-.34-.12s-.15-.15-.19-.26c-.04-.11-.06-.27-.06-.46v-.48c-.09.13-.22.27-.39.42s-.36.3-.6.44c-.23.14-.5.25-.8.34s-.62.14-.98.14c-.39,0-.76-.05-1.1-.16s-.64-.27-.89-.49-.46-.5-.61-.84c-.15-.34-.22-.74-.22-1.21ZM64.57,43.57c.1,0,.21-.01.34-.04.13-.03.26-.07.4-.12.14-.05.27-.11.4-.18.13-.07.25-.15.35-.24v-2.73c-.53,0-.98.05-1.34.15s-.65.23-.86.4c-.21.17-.37.35-.46.57-.09.21-.14.44-.14.68,0,.49.11.86.33,1.12s.55.38.98.38Z"/>
      <path class="st7" d="M70.58,44.97v-1.07l1.03-.19v-6.35l-1.12-.35v-1.25l2.92-.4h.04l.44.35v.98c.18-.17.41-.33.67-.5.27-.16.55-.3.86-.42.31-.12.62-.22.94-.29.32-.07.62-.11.91-.11.63,0,1.14.1,1.51.31.37.2.66.53.85.97.15-.14.36-.28.61-.43s.53-.29.83-.41c.3-.12.62-.23.95-.31.33-.08.66-.12.97-.12.52,0,.95.07,1.29.2.35.13.62.35.83.64.21.3.36.68.45,1.16.09.48.13,1.05.13,1.74v4.58l1.16.19v1.07h-4.57v-1.07l.87-.19v-4.51c0-.42-.02-.78-.07-1.08-.05-.29-.12-.53-.24-.71-.11-.18-.26-.31-.44-.4-.19-.08-.42-.12-.7-.12-.14,0-.29.02-.45.06-.16.04-.33.09-.49.14s-.32.12-.48.19c-.15.07-.29.14-.4.21.04.23.07.48.09.75.02.27.02.57.02.89v4.58l1.1.18v1.07h-4.62v-1.07l.99-.18v-4.61c0-.38-.02-.71-.07-.99-.04-.28-.12-.5-.23-.68-.11-.18-.25-.31-.44-.39-.18-.09-.42-.13-.7-.13-.16,0-.34.02-.51.06s-.35.09-.52.14c-.17.06-.33.12-.47.2-.14.07-.26.15-.36.23v6.16l1.11.19v1.07h-4.68Z"/>
      <path class="st7" d="M91.64,45.16c-.77,0-1.44-.12-2-.36-.56-.24-1.02-.58-1.38-1.01-.36-.43-.63-.95-.8-1.55-.17-.6-.26-1.25-.26-1.96,0-.77.11-1.46.33-2.07.22-.61.52-1.12.92-1.55s.87-.75,1.43-.98c.55-.23,1.17-.34,1.85-.34,2.28,0,3.47,1.11,3.57,3.34.01.38,0,.72,0,1.03s-.04.56-.09.77h-5.38c.03.54.11,1.01.24,1.39s.3.7.52.94c.21.24.47.42.76.53.29.11.62.16.97.16.28,0,.54-.02.78-.07s.47-.1.67-.17.39-.14.56-.22c.17-.08.31-.16.43-.24l.43,1c-.14.14-.33.29-.57.45-.25.16-.53.3-.84.43-.32.13-.66.24-1.02.33-.37.09-.74.13-1.12.13ZM91.42,36.45c-.21,0-.41.04-.6.12-.18.08-.35.22-.49.44-.14.21-.26.51-.35.89-.09.38-.15.88-.17,1.48h2.96s0-.07,0-.12,0-.1,0-.16c0-.05,0-.11,0-.16v-.11c0-.28-.02-.56-.06-.85-.04-.29-.11-.54-.21-.77s-.24-.41-.42-.55-.41-.21-.69-.21Z"/>
      <path class="st7" d="M96.62,44.97v-1.1l1.06-.17v-6.34l-1.12-.35v-1.25l2.95-.4h.04l.44.35v.98c.18-.17.4-.33.64-.49.25-.16.52-.3.8-.42.29-.12.59-.22.91-.29.32-.07.64-.11.96-.11.53,0,.97.07,1.32.21.35.14.64.36.84.66s.36.69.45,1.17.13,1.05.13,1.72v4.57l1.17.16v1.1h-4.64v-1.1l.9-.16v-4.6c0-.38-.02-.71-.06-.99-.04-.28-.11-.5-.21-.68-.1-.18-.24-.31-.42-.39-.18-.09-.41-.13-.69-.13-.19,0-.37.02-.55.06s-.35.09-.52.16c-.16.07-.31.14-.45.22-.13.08-.25.16-.35.23v6.1l1.11.17v1.1h-4.73Z"/>
      <path class="st7" d="M108.72,42.99v-6.07h-1.16v-.94s.11-.03.21-.07c.1-.04.2-.07.3-.11.1-.04.19-.08.28-.11.08-.04.13-.06.16-.08.19-.15.38-.41.59-.79.05-.11.12-.24.18-.38.07-.15.13-.3.19-.46.06-.16.12-.32.18-.47.05-.16.1-.3.14-.42h1.47l.03,2.44h2.42v1.4h-2.42v4.57c0,.44,0,.79.02,1.05.01.26.05.45.1.59.05.13.13.22.24.25.11.04.26.06.45.06h0c.13,0,.27-.01.42-.03.15-.02.29-.05.43-.08.14-.03.27-.06.39-.1.12-.04.22-.07.29-.09h0l.39.96c-.16.13-.37.25-.61.38-.24.13-.5.24-.79.34-.29.1-.59.18-.92.25s-.64.09-.97.09h-.02c-.36,0-.67-.05-.93-.14-.26-.09-.46-.23-.62-.42-.16-.18-.27-.41-.34-.68s-.11-.58-.11-.93Z"/>
      <path class="st7" d="M114.48,40.3c0-.84.13-1.56.39-2.19.26-.62.6-1.14,1.03-1.55s.92-.72,1.49-.92,1.15-.3,1.76-.3c.71,0,1.35.11,1.9.33s1.01.54,1.39.96c.37.42.66.93.85,1.53.19.6.29,1.28.29,2.04,0,.86-.13,1.6-.39,2.23s-.6,1.14-1.03,1.55-.92.7-1.48.9c-.56.2-1.15.29-1.76.29-.71,0-1.35-.11-1.9-.33s-1.01-.54-1.39-.96c-.38-.42-.66-.93-.85-1.53-.19-.6-.29-1.28-.29-2.04ZM119.05,44.02c.3,0,.56-.07.78-.2s.4-.35.55-.63c.15-.29.25-.66.32-1.11.07-.45.1-.99.1-1.62s-.03-1.21-.09-1.71c-.06-.5-.17-.91-.3-1.25-.14-.33-.32-.59-.55-.76-.23-.17-.51-.26-.84-.26-.3,0-.56.07-.79.2s-.41.35-.56.63c-.15.29-.26.66-.33,1.11-.07.45-.11.99-.11,1.62s.03,1.21.1,1.71c.07.5.17.91.32,1.25.15.33.33.59.56.76.23.17.51.26.84.26Z"/>
      <path class="st7" d="M135.83,45.16c-.97,0-1.83-.16-2.57-.47-.74-.31-1.36-.75-1.86-1.31s-.88-1.24-1.14-2.02-.38-1.66-.38-2.61.17-1.86.5-2.65c.33-.79.79-1.47,1.37-2.04s1.27-1,2.06-1.31c.79-.31,1.65-.46,2.56-.46.4,0,.77.02,1.13.07s.69.1,1,.16c.31.06.6.12.85.17.26.06.48.1.67.13l-.19,3.28h-1.69l-.5-2.17c-.05-.07-.12-.13-.21-.19-.08-.06-.19-.12-.31-.16-.12-.04-.27-.08-.45-.11s-.38-.04-.63-.04c-.47,0-.91.1-1.3.31s-.74.52-1.02.93c-.28.42-.5.94-.66,1.56-.16.63-.24,1.36-.24,2.2,0,.73.06,1.42.19,2.09.13.67.32,1.26.58,1.78.26.51.59.93.99,1.23s.88.46,1.43.46c.27,0,.51-.02.71-.05s.37-.07.51-.12c.14-.05.26-.11.35-.18.09-.07.17-.14.24-.21l.75-1.82,1.45.08-.2,2.8c-.24.02-.48.06-.72.13-.24.07-.51.14-.82.22-.3.08-.65.15-1.05.21s-.87.09-1.42.09Z"/>
      <path class="st7" d="M141.3,44.97v-1.1l1.2-.16v-6.35l-1.11-.35v-1.24l3.03-.4h.04l.6.35v7.98l1.2.17v1.1h-4.96ZM143.49,33.97c-.19,0-.36-.04-.51-.11-.15-.07-.28-.17-.38-.28s-.18-.26-.23-.42c-.05-.16-.08-.33-.08-.52,0-.21.03-.42.09-.61s.15-.36.27-.5c.12-.14.27-.26.45-.34.18-.08.39-.12.62-.12h0c.23,0,.42.04.58.11s.3.17.41.3.19.27.24.42c.05.16.08.33.08.5,0,.22-.03.42-.09.61-.06.19-.15.35-.28.5-.12.14-.28.25-.48.33-.2.08-.42.12-.69.12h0Z"/>
      <path class="st7" d="M147.88,42.99v-6.07h-1.16v-.94s.11-.03.21-.07c.1-.04.2-.07.3-.11.1-.04.19-.08.28-.11.08-.04.13-.06.16-.08.19-.15.38-.41.59-.79.05-.11.12-.24.18-.38.07-.15.13-.3.19-.46.06-.16.12-.32.18-.47.05-.16.1-.3.14-.42h1.47l.03,2.44h2.42v1.4h-2.42v4.57c0,.44,0,.79.02,1.05.01.26.05.45.1.59.05.13.13.22.24.25.11.04.26.06.45.06h0c.13,0,.27-.01.42-.03.15-.02.29-.05.43-.08.14-.03.27-.06.39-.1.12-.04.22-.07.29-.09h0l.39.96c-.16.13-.37.25-.61.38-.24.13-.5.24-.79.34-.29.1-.59.18-.92.25s-.64.09-.97.09h-.02c-.36,0-.67-.05-.93-.14-.26-.09-.46-.23-.62-.42-.16-.18-.27-.41-.34-.68s-.11-.58-.11-.93Z"/>
      <path class="st7" d="M156.13,49.17c-.11,0-.23,0-.36,0-.13,0-.26-.01-.39-.02-.13-.01-.24-.02-.34-.04-.1-.01-.17-.03-.22-.05v-2.02c.08.04.25.08.49.14.25.05.53.08.86.08.17,0,.35-.02.54-.06.19-.04.4-.13.61-.29.21-.15.42-.38.63-.69.21-.3.42-.72.63-1.25h-1.48l-2.97-8.16-.75-.23v-1.06h4.77v1.05l-1.25.24,1.58,4.89.64,2.24.56-2.24,1.25-4.89-1.07-.24v-1.05h3.64v1.06l-.76.23c-.16.5-.33,1.04-.51,1.62s-.36,1.17-.54,1.76c-.18.59-.36,1.17-.54,1.73-.18.56-.33,1.07-.48,1.53-.14.46-.27.85-.38,1.18-.11.33-.19.54-.24.66-.47,1.27-1.02,2.24-1.65,2.9-.63.66-1.4.99-2.3.99Z"/>
    </g>
    <path class="st9" d="M58.46,24.26c-3.66-6.64-10.88-4.52-16.79-1.53-2.61,1.1-4.79.24-7.61-.83-6.34-2.48-12.22-2.55-17.17,1.81-17.44,14.4,2,50.62,22.39,41.96,2.99-1.42,6.08,1.44,9.36.43,1.5-.28,3.33-1.72,4.01-3.15.22-.45.19-.87-.04-.81l-.07.02c-1.79.49-3.66,1.25-5.61,1.4-1.68.16-2.85-.16-4.19-.2-.66-.02-1.32.07-1.97.2-3.49.72-7.04,2.38-10.62,1.19-4.9-1.45-8.15-5.63-10.84-9.93-6.65-10.78-6.86-24.9,4.97-30.29,4.14-2.07,8.61-.81,12.92.37,1.6.44,3.3.37,4.87-.17h.04c7.18-2.67,8.72-2.51,15.83,1.37.92.37.89-1.14.51-1.83Z"/>
    <path class="st4" d="M60.18,6.67c-.22-.06-2.86-.82-3.66-.99-.81-.17-5.85-1.65-10.46,1.64-4.01,2.85-5.68,6.64-6.17,7.84-.22-1.55-.49-2.81-.62-3.55-.05-.3-.34-.5-.64-.45-.66.12-1.59.44-2.18.65-.31.11-.45.47-.31.77,1.09,2.4,1.72,4.21,2.08,5.58-.5-.98-2.05-3.66-5.34-5.99-3.9-2.77-8.13-1.4-8.82-1.32-.69.09-2.83.67-3.01.72-.18.05-.25.34.14.42.39.08.97.54,1.28.96.31.42,1.92,2.89,4.16,4.14,2.24,1.24,3.82,1.35,5.85,1.26,1.73-.07,5.41.05,6.1,2.09.07.95-.05,1.43-.06,1.57.08.3.42.46.9.43.61-.03.69-.3.72-.82.07-.67.08-1.38.08-2.1,0-.26,0-.52,0-.77,0-.02,0-.04,0-.06-.02-.62-.06-1.23-.12-1.82.7-2.65,4.53-2.26,6.56-2.17,2.43.11,4.44.1,7.09-1.38,2.65-1.47,3.99-3.8,4.36-4.29.3-.4,1.46-1.78,1.92-1.87.46-.09.38-.44.17-.49Z"/>
  </g>
</svg>