<svg width="252" height="52" viewBox="0 0 252 52" fill="none" xmlns="http://www.w3.org/2000/svg">
<g clip-path="url(#clip0_21749_1677)">
<path d="M71.5559 13.8029L67.9812 27.4293H64.4009L59.6157 8.84888H63.4348L66.5491 21.4788L69.7657 8.84888H73.4654L76.5684 21.4788L79.6657 8.84888H83.4847L78.7166 27.4293H75.1363L71.5559 13.8029Z" fill="#45555F"/>
<path d="M82.8482 27.4293L90.0089 8.84888H93.5893L100.739 27.4179L96.9309 27.4293L95.8568 24.5821H87.747L86.6729 27.4293H82.8539H82.8482ZM91.89 13.8029L89.1735 20.8638H94.5384L91.89 13.8029Z" fill="#45555F"/>
<path d="M103.046 8.84888H106.626V16.2799L112.594 8.84888H116.612L109.604 17.5212L118.078 27.4293H113.423L106.626 19.4004V27.4293H103.046V8.84888Z" fill="#45555F"/>
<path d="M119.8 27.4293V8.86027L132.945 8.84888V12.3167H123.38V16.2799H130.546V19.7363H123.38V23.9558H132.922V27.4293H119.8Z" fill="#45555F"/>
<path d="M145.806 24.7586C144.095 22.9877 143.231 20.767 143.231 18.0964C143.243 15.4884 144.101 13.2961 145.811 11.5138C147.522 9.73149 149.636 8.84319 152.171 8.84319C154.705 8.84319 156.916 9.66885 158.74 11.3202L156.353 14.0307C155.137 13.0399 153.739 12.5502 152.171 12.5502C150.562 12.5558 149.267 13.0797 148.289 14.1104C147.306 15.141 146.811 16.4621 146.811 18.0736C146.823 19.7989 147.317 21.1713 148.3 22.1848C149.289 23.1984 150.585 23.7052 152.193 23.7052C153.802 23.7052 155.188 23.2155 156.353 22.2304L158.74 24.9409C156.922 26.5922 154.728 27.4179 152.171 27.4179C149.636 27.4122 147.516 26.5182 145.806 24.7473" fill="#45555F"/>
<path d="M163.861 24.7586C162.15 22.9763 161.298 20.7727 161.298 18.1362C161.298 15.4998 162.15 13.2847 163.861 11.5081C165.571 9.73149 167.697 8.84319 170.243 8.84319C172.789 8.84319 174.914 9.73149 176.625 11.5081C178.336 13.2847 179.188 15.4941 179.188 18.1362C179.188 20.7784 178.33 22.9877 176.625 24.7643C174.914 26.541 172.789 27.4293 170.243 27.4293C167.697 27.4293 165.571 26.541 163.861 24.7586ZM170.26 23.9615C171.84 23.9615 173.13 23.4034 174.124 22.2873C175.119 21.1713 175.619 19.7876 175.619 18.1362C175.619 16.4849 175.125 15.1012 174.124 13.9851C173.13 12.869 171.834 12.3167 170.237 12.3167C168.64 12.3167 167.367 12.8747 166.373 13.9851C165.378 15.1012 164.884 16.4849 164.884 18.1362C164.884 19.7876 165.378 21.1713 166.373 22.2873C167.367 23.4034 168.663 23.9615 170.26 23.9615Z" fill="#45555F"/>
<path d="M184.763 8.84888V19.6281C184.763 21.0346 185.161 22.0653 185.957 22.7258C186.752 23.3863 187.747 23.7166 188.94 23.7166C190.134 23.7166 191.128 23.3863 191.924 22.7258C192.72 22.0653 193.117 21.0289 193.117 19.6281V8.84888H196.698V20.6132C196.698 22.5151 195.959 24.1209 194.493 25.4477C193.021 26.7687 191.174 27.4293 188.946 27.4293C186.718 27.4293 184.871 26.7687 183.399 25.4477C181.927 24.1266 181.194 22.5151 181.194 20.6132V8.84888H184.769H184.763Z" fill="#45555F"/>
<path d="M200.17 27.4293V8.84888H201.364L212.576 20.488V8.84888H216.157V27.4293H214.844L203.745 15.9098V27.4293H200.17Z" fill="#45555F"/>
<path d="M234.076 8.84888V12.3167H228.114V27.4293H224.534V12.3167H218.566V8.84888H234.076Z" fill="#45555F"/>
<path d="M235.297 8.84888H239.497L243.646 14.9133L247.897 8.84888H252L245.436 18.1362V27.4293H241.861V18.1362L235.297 8.84888Z" fill="#45555F"/>
<path d="M60.0931 45.0872V33.3684H64.7873C67.2993 33.3684 68.5552 34.4958 68.5552 36.7451C68.5552 38.9943 67.2993 40.2414 64.793 40.2414H62.247V45.0815H60.0931V45.0872ZM62.247 38.0604H65.2647C66.1342 38.0434 66.5775 37.6163 66.6002 36.7679C66.5775 35.9991 66.1399 35.6005 65.2874 35.5664H62.2527V38.0604H62.247Z" fill="#45555F"/>
<path d="M72.0617 33.3684V40.1616C72.0617 41.0499 72.3004 41.6991 72.7835 42.1148C73.2608 42.5304 73.8576 42.7411 74.5736 42.7411C75.2897 42.7411 75.8921 42.5361 76.3695 42.1148C76.8469 41.6991 77.0856 41.0442 77.0856 40.1616V33.3684H79.2395V40.788C79.2395 41.9838 78.7962 43.0031 77.9096 43.8344C77.023 44.6715 75.9092 45.0872 74.568 45.0872C73.2267 45.0872 72.1129 44.6715 71.232 43.8344C70.3454 43.0031 69.9021 41.9838 69.9021 40.788V33.3684H72.056H72.0617Z" fill="#45555F"/>
<path d="M89.1337 38.9089C90.0828 39.5979 90.5772 40.4919 90.6341 41.5909C90.5375 43.8003 89.4577 44.9676 87.3833 45.0986H81.3252V33.3855H87.0424C88.8553 33.4993 89.81 34.6496 89.9123 36.8305C89.8782 37.8725 89.6225 38.5672 89.1337 38.9146M83.4847 38.0718H86.4968C87.3606 38.0548 87.8039 37.5707 87.8323 36.6084C87.8096 36.0333 87.372 35.7315 86.5195 35.703H83.4847V38.0661V38.0718ZM83.4847 43.2593H87.0026C88.0085 43.2422 88.5313 42.6785 88.5541 41.5624C88.5313 40.8108 88.0199 40.4236 87.0253 40.3894H83.4847V43.2536V43.2593Z" fill="#45555F"/>
<path d="M94.885 33.3684V42.9006H100.625V45.0872H92.7311V33.3684H94.885Z" fill="#45555F"/>
<path d="M104.472 33.3627H102.324V45.0815H104.472V33.3627Z" fill="#45555F"/>
<path d="M107.575 43.4017C106.547 42.2856 106.03 40.8848 106.03 39.205C106.035 37.5594 106.552 36.1756 107.581 35.0539C108.61 33.9321 109.888 33.3741 111.406 33.3741C112.923 33.3741 114.259 33.8922 115.361 34.9343L113.923 36.6483C113.196 36.0219 112.355 35.7087 111.406 35.7087C110.44 35.7087 109.661 36.039 109.07 36.6938C108.479 37.3487 108.183 38.18 108.183 39.1936C108.183 40.2812 108.485 41.1467 109.081 41.7845C109.672 42.4279 110.451 42.7468 111.417 42.7468C112.383 42.7468 113.219 42.4393 113.923 41.8187L115.361 43.5326C114.264 44.5747 112.946 45.0929 111.406 45.0929C109.888 45.0872 108.61 44.5234 107.575 43.4074" fill="#45555F"/>
<path d="M126.33 33.7613C126.881 34.0232 127.392 34.4104 127.87 34.9343L126.438 36.4945C125.96 35.8682 125.29 35.555 124.426 35.555C123.562 35.555 123.016 35.777 122.778 36.2212C122.539 36.6654 122.539 37.0412 122.778 37.3544C123.022 37.6675 123.568 37.901 124.426 38.0604C125.335 38.1629 126.159 38.4875 126.904 39.0342C127.642 39.5808 128.017 40.452 128.017 41.6535C128.017 42.5931 127.625 43.4017 126.83 44.0736C126.034 44.7512 125.113 45.0872 124.062 45.0872C123.011 45.0872 122.226 44.9277 121.556 44.6145C120.885 44.3014 120.311 43.8857 119.834 43.3675L121.272 41.8073C121.749 42.4279 122.562 42.7981 123.71 42.9006C124.67 42.9006 125.267 42.6785 125.506 42.2343C125.739 41.7902 125.739 41.346 125.506 40.9076C125.267 40.4634 124.67 40.1901 123.71 40.0876C122.846 39.9851 122.062 39.6947 121.34 39.2278C120.624 38.7608 120.26 37.9523 120.26 36.8077C120.26 35.7714 120.669 34.94 121.488 34.3136C122.3 33.6873 123.141 33.3741 124 33.3741C125 33.3741 125.778 33.505 126.33 33.767" fill="#45555F"/>
<path d="M130.887 43.4017C129.853 42.2856 129.342 40.8848 129.342 39.205C129.347 37.5594 129.859 36.1756 130.893 35.0539C131.922 33.9321 133.195 33.3741 134.718 33.3741C136.241 33.3741 137.571 33.8922 138.673 34.9343L137.235 36.6483C136.502 36.0219 135.661 35.7087 134.718 35.7087C133.752 35.7087 132.973 36.039 132.382 36.6938C131.791 37.3487 131.496 38.18 131.496 39.1936C131.496 40.2812 131.802 41.1467 132.393 41.7845C132.99 42.4279 133.769 42.7468 134.735 42.7468C135.701 42.7468 136.536 42.4393 137.241 41.8187L138.679 43.5326C137.582 44.5747 136.264 45.0929 134.724 45.0929C133.2 45.0872 131.927 44.5234 130.893 43.4074" fill="#45555F"/>
<path d="M140.918 45.0872V33.3684H143.066V38.0604H148.085V33.3627H150.238V45.0758L148.085 45.0872V40.2414H143.066V45.0872H140.918Z" fill="#45555F"/>
<path d="M153.489 43.4017C152.461 42.2799 151.943 40.8905 151.943 39.2278C151.943 37.5651 152.461 36.17 153.489 35.0482C154.518 33.9321 155.796 33.3684 157.331 33.3684C158.865 33.3684 160.144 33.9321 161.167 35.0482C162.201 36.17 162.713 37.5594 162.713 39.2278C162.713 40.8962 162.201 42.2856 161.167 43.4074C160.138 44.5234 158.86 45.0872 157.331 45.0872C155.802 45.0872 154.518 44.5234 153.489 43.4017ZM157.337 42.9006C158.291 42.9006 159.07 42.5475 159.661 41.8471C160.263 41.1467 160.559 40.2698 160.559 39.2335C160.559 38.1971 160.258 37.3202 159.661 36.6141C159.064 35.9137 158.286 35.5607 157.32 35.5607C156.353 35.5607 155.592 35.9137 154.995 36.6141C154.398 37.3202 154.097 38.1914 154.097 39.2335C154.097 40.2755 154.398 41.1467 154.995 41.8471C155.592 42.5475 156.376 42.9006 157.337 42.9006Z" fill="#45555F"/>
<path d="M165.242 43.4017C164.213 42.2799 163.702 40.8905 163.702 39.2278C163.702 37.5651 164.213 36.17 165.242 35.0482C166.27 33.9321 167.555 33.3684 169.084 33.3684C170.612 33.3684 171.897 33.9321 172.925 35.0482C173.954 36.17 174.465 37.5594 174.465 39.2278C174.465 40.8962 173.954 42.2856 172.925 43.4074C171.897 44.5234 170.618 45.0872 169.084 45.0872C167.549 45.0872 166.27 44.5234 165.242 43.4017ZM169.089 42.9006C170.038 42.9006 170.817 42.5475 171.414 41.8471C172.016 41.1467 172.312 40.2698 172.312 39.2335C172.312 38.1971 172.016 37.3202 171.414 36.6141C170.817 35.9137 170.038 35.5607 169.072 35.5607C168.106 35.5607 167.345 35.9137 166.748 36.6141C166.151 37.3202 165.85 38.1914 165.85 39.2335C165.85 40.2755 166.151 41.1467 166.748 41.8471C167.345 42.5475 168.129 42.9006 169.089 42.9006Z" fill="#45555F"/>
<path d="M178.171 33.3684V42.9006H183.911V45.0872H176.017V33.3684H178.171Z" fill="#45555F"/>
<path d="M194.629 33.7613C195.18 34.0232 195.692 34.4104 196.175 34.9343L194.737 36.4945C194.26 35.8682 193.589 35.555 192.725 35.555C191.861 35.555 191.316 35.777 191.071 36.2212C190.833 36.6654 190.833 37.0412 191.071 37.3544C191.31 37.6675 191.861 37.901 192.725 38.0604C193.635 38.1629 194.459 38.4875 195.203 39.0342C195.942 39.5808 196.317 40.452 196.317 41.6535C196.317 42.5931 195.919 43.4017 195.129 44.0736C194.334 44.7512 193.413 45.0872 192.356 45.0872C191.299 45.0872 190.52 44.9277 189.85 44.6145C189.179 44.3014 188.611 43.8857 188.128 43.3675L189.565 41.8073C190.043 42.4279 190.856 42.7981 192.004 42.9006C192.964 42.9006 193.561 42.6785 193.799 42.2343C194.032 41.7902 194.032 41.346 193.799 40.9076C193.561 40.4634 192.964 40.1901 192.004 40.0876C191.14 39.9851 190.355 39.6947 189.639 39.2278C188.918 38.7608 188.56 37.9523 188.56 36.8077C188.56 35.7714 188.969 34.94 189.787 34.3136C190.6 33.6873 191.441 33.3741 192.305 33.3741C193.305 33.3741 194.078 33.505 194.629 33.767" fill="#45555F"/>
<path d="M197.533 33.3684H200.062L202.557 37.2006L205.114 33.3684H207.581L203.637 39.2278V45.0872H201.483V39.2278L197.533 33.3684Z" fill="#45555F"/>
<path d="M214.935 33.7613C215.486 34.0232 216.003 34.4104 216.475 34.9343L215.043 36.4945C214.565 35.8682 213.895 35.555 213.031 35.555C212.167 35.555 211.622 35.777 211.383 36.2212C211.144 36.6654 211.144 37.0412 211.383 37.3544C211.622 37.6675 212.173 37.901 213.031 38.0604C213.94 38.1629 214.764 38.4875 215.509 39.0342C216.253 39.5808 216.623 40.452 216.623 41.6535C216.623 42.5931 216.231 43.4017 215.435 44.0736C214.639 44.7512 213.719 45.0872 212.662 45.0872C211.605 45.0872 210.826 44.9277 210.155 44.6145C209.485 44.3014 208.911 43.8857 208.433 43.3675L209.871 41.8073C210.349 42.4279 211.161 42.7981 212.309 42.9006C213.27 42.9006 213.861 42.6785 214.105 42.2343C214.338 41.7902 214.338 41.346 214.105 40.9076C213.866 40.4634 213.27 40.1901 212.309 40.0876C211.445 39.9851 210.661 39.6947 209.945 39.2278C209.223 38.7608 208.865 37.9523 208.865 36.8077C208.865 35.7714 209.274 34.94 210.093 34.3136C210.911 33.6873 211.747 33.3741 212.61 33.3741C213.611 33.3741 214.384 33.505 214.935 33.767" fill="#45555F"/>
<path d="M227.261 33.3684V35.5607H223.67V45.0872H221.516V35.5607H217.924V33.3684H227.261Z" fill="#45555F"/>
<path d="M228.756 45.0872V33.3798L236.667 33.3684V35.555H230.91V38.0604H235.223V40.2357H230.91V42.9006H236.656V45.0872H228.756Z" fill="#45555F"/>
<path d="M238.764 45.0872V33.3684H239.48L244.146 39.1481L248.817 33.3684H249.539V45.0872H247.385L247.38 38.2939L244.146 42.1945L240.918 38.2939V45.0872H238.764Z" fill="#45555F"/>
<path d="M52.1765 0H0V52H52.1765V0Z" fill="#00ADD0"/>
<path fill-rule="evenodd" clip-rule="evenodd" d="M18.7656 45.1669C12.2528 44.5747 7.80858 39.894 7.80858 32.7477V8.52431H18.7656V45.1669Z" fill="white"/>
<path d="M33.3939 8.54709V23.5856H31.4616V13.4669H32.7233H32.7347L30.2682 12.1857C29.9954 11.3088 29.4498 10.5629 28.7338 10.0333V8.36487H28.4496V7.90933C28.5974 7.80114 28.694 7.63031 28.694 7.43102C28.694 7.09505 28.4212 6.82742 28.0916 6.82742C27.7619 6.82742 27.4892 7.10075 27.4892 7.43102C27.4892 7.63031 27.5858 7.80114 27.7335 7.90933V8.36487H27.1539V7.90933C27.3016 7.80114 27.3982 7.63031 27.3982 7.43102C27.3982 7.09505 27.1311 6.82742 26.7958 6.82742C26.4605 6.82742 26.1934 7.10075 26.1934 7.43102C26.1934 7.63031 26.29 7.80114 26.4321 7.90933V8.36487H25.8581V7.90933C26.0059 7.80114 26.1025 7.63031 26.1025 7.43102C26.1025 7.09505 25.8297 6.82742 25.5001 6.82742C25.1704 6.82742 24.8977 7.10075 24.8977 7.43102C24.8977 7.63031 24.9943 7.80114 25.142 7.90933V8.36487H24.568V7.90933C24.7101 7.80114 24.8067 7.63031 24.8067 7.43102C24.8067 7.09505 24.5339 6.82742 24.2043 6.82742C23.8747 6.82742 23.5962 7.10075 23.5962 7.43102C23.5962 7.63031 23.6928 7.80114 23.8406 7.90933V8.36487H23.5167V10.0504C22.812 10.5799 22.2721 11.3202 21.9936 12.1857L21.914 12.2256L19.4362 13.4555H20.6694V45.1612H31.4616V33.4082H33.3712L33.3939 45.1441C40.1966 44.5291 44.3793 39.3986 44.3793 32.6509V8.54709H33.3996H33.3939ZM23.7781 23.5856H22.1982V15.2151H23.7781V23.5856ZM26.8526 23.5856H25.2727V15.2151H26.8526V23.5856ZM29.9727 23.5856H28.3928V15.2151H29.9727V23.5856Z" fill="white"/>
</g>
<defs>
<clipPath id="clip0_21749_1677">
<rect width="252" height="52" fill="white"/>
</clipPath>
</defs>
</svg>
